{"glyphs":{"0":{"ha":833,"x_min":101,"x_max":771,"o":"m 364 -17 q 167 62 233 -17 q 101 306 101 140 q 111 465 101 385 q 141 622 121 546 q 193 764 161 697 q 270 880 225 831 q 374 958 315 929 q 508 986 433 986 q 705 908 639 986 q 771 664 771 829 q 761 504 771 585 q 731 348 751 424 q 679 206 711 272 q 602 90 647 139 q 497 12 557 40 q 364 -17 438 -17 m 367 28 q 578 131 494 28 q 694 422 663 233 l 711 522 q 720 599 718 563 q 722 668 722 636 q 672 872 722 803 q 506 942 621 942 q 294 839 378 942 q 178 547 210 736 l 161 447 q 152 370 154 407 q 150 301 150 333 q 201 97 150 167 q 367 28 251 28 m 429 439 q 396 448 406 439 q 386 468 386 457 q 386 478 386 474 q 389 492 386 483 q 405 521 393 511 q 443 531 417 531 q 476 522 467 531 q 486 501 486 513 q 486 491 486 496 q 483 478 486 486 q 467 449 479 458 q 429 439 456 439 z "},"1":{"ha":833,"x_min":67,"x_max":707,"o":"m 67 0 l 74 44 l 372 44 l 519 932 l 514 932 l 189 686 l 163 721 l 492 969 l 576 969 l 422 44 l 707 44 l 700 0 l 67 0 z "},"2":{"ha":833,"x_min":56,"x_max":746,"o":"m 669 0 l 56 0 l 65 53 l 493 418 q 627 551 579 489 q 686 683 675 613 q 694 735 693 719 q 694 761 694 750 q 644 891 694 840 q 490 942 593 942 q 328 895 392 942 q 228 754 264 849 l 183 771 q 301 931 224 876 q 496 986 378 986 q 603 969 557 986 q 682 921 650 951 q 730 849 714 890 q 746 761 746 808 q 733 658 746 706 q 692 567 719 611 q 624 478 665 522 q 525 388 582 435 l 121 44 l 676 44 l 669 0 z "},"3":{"ha":833,"x_min":58,"x_max":739,"o":"m 418 531 q 597 578 529 531 q 681 713 665 625 q 685 750 683 738 q 686 771 686 763 q 631 897 686 851 q 485 942 576 942 q 333 908 392 942 q 236 806 275 874 l 199 831 q 309 944 239 901 q 490 986 379 986 q 588 972 543 986 q 667 930 633 957 q 719 863 700 903 q 739 774 739 824 q 679 597 739 664 q 508 510 619 529 l 508 504 q 576 483 544 500 q 631 440 607 467 q 667 376 654 413 q 681 296 681 339 q 657 166 681 224 q 590 67 633 108 q 486 5 547 26 q 350 -17 425 -17 q 167 23 240 -17 q 58 138 94 63 l 99 161 q 193 60 132 93 q 354 28 254 28 q 536 81 465 28 q 622 231 607 135 q 628 276 628 263 q 629 299 629 289 q 575 435 629 383 q 414 486 521 486 l 286 486 l 293 531 l 418 531 z "},"4":{"ha":833,"x_min":38,"x_max":751,"o":"m 501 0 l 538 215 l 38 215 l 46 263 l 647 969 l 713 969 l 593 257 l 751 257 l 744 215 l 586 215 l 550 0 l 501 0 m 96 257 l 544 257 l 654 908 l 649 908 l 96 257 z "},"5":{"ha":833,"x_min":78,"x_max":775,"o":"m 768 925 l 322 925 l 218 482 l 222 482 q 320 557 267 533 q 449 581 374 581 q 636 515 571 581 q 701 339 701 450 q 678 191 701 257 q 612 79 656 125 q 505 8 568 33 q 361 -17 442 -17 q 188 22 264 -17 q 78 136 113 61 l 119 161 q 217 59 153 90 q 363 28 282 28 q 556 90 488 28 q 642 256 624 151 q 649 308 649 292 q 650 338 650 324 q 597 483 650 429 q 438 536 543 536 q 367 530 397 536 q 310 512 336 524 q 260 483 283 500 q 214 443 238 465 l 165 449 l 288 969 l 775 969 l 768 925 z "},"6":{"ha":833,"x_min":104,"x_max":718,"o":"m 369 -17 q 171 57 238 -17 q 104 247 104 131 q 144 470 104 364 q 251 669 183 576 q 407 838 318 761 q 594 969 496 914 l 667 969 q 490 851 568 911 q 353 726 413 792 q 250 586 293 660 q 176 425 207 513 l 182 424 q 301 545 228 507 q 463 583 374 583 q 567 567 519 583 q 647 518 614 550 q 699 441 681 486 q 718 340 718 396 q 694 200 718 265 q 624 87 669 135 q 513 11 578 39 q 369 -17 449 -17 m 371 28 q 478 45 429 28 q 565 94 528 63 q 626 168 603 125 q 658 263 650 211 q 665 313 664 297 q 667 339 667 328 q 612 485 667 429 q 449 540 557 540 q 342 523 390 540 q 256 474 293 506 q 194 400 218 443 q 163 306 171 357 q 156 256 157 271 q 154 229 154 240 q 208 83 154 139 q 371 28 263 28 z "},"7":{"ha":833,"x_min":160,"x_max":818,"o":"m 196 0 l 757 925 l 243 925 l 207 706 l 160 706 l 204 969 l 818 969 l 811 925 l 251 0 l 196 0 z "},"8":{"ha":833,"x_min":76,"x_max":774,"o":"m 363 -17 q 241 1 294 -17 q 151 49 188 18 q 96 122 115 79 q 76 218 76 165 q 145 410 76 332 q 333 508 214 488 l 333 515 q 227 583 265 535 q 189 707 189 632 q 212 819 189 768 q 277 908 235 871 q 379 965 319 944 q 513 986 439 986 q 705 928 636 986 q 774 775 774 871 q 715 603 774 674 q 557 510 657 533 l 557 503 q 681 427 638 481 q 725 286 725 374 q 699 164 725 219 q 626 68 674 108 q 512 6 579 28 q 363 -17 444 -17 m 368 28 q 481 43 429 28 q 571 85 532 58 q 634 151 610 113 q 667 235 658 189 q 673 278 672 267 q 674 301 674 290 q 610 436 674 385 q 435 488 547 488 q 322 472 374 488 q 232 430 271 457 q 169 365 193 403 q 136 281 144 326 q 130 237 131 249 q 129 214 129 225 q 192 79 129 131 q 368 28 256 28 m 454 531 q 632 581 564 531 q 715 715 700 631 q 720 756 719 743 q 721 778 721 768 q 665 898 721 854 q 507 942 608 942 q 329 892 397 942 q 246 757 261 842 q 241 717 242 729 q 240 694 240 704 q 297 574 240 618 q 454 531 353 531 z "},"9":{"ha":833,"x_min":140,"x_max":754,"o":"m 754 722 q 715 499 754 606 q 608 301 675 393 q 451 132 540 208 q 264 0 363 56 l 192 0 q 368 118 290 58 q 506 244 446 178 q 608 383 565 310 q 682 544 651 457 l 676 546 q 558 424 631 463 q 396 386 485 386 q 292 403 339 386 q 211 451 244 419 q 159 528 178 483 q 140 629 140 572 q 165 769 140 704 q 235 883 189 835 q 345 958 281 931 q 489 986 410 986 q 688 913 621 986 q 754 722 754 839 m 410 429 q 517 447 468 429 q 603 495 565 464 q 664 569 640 526 q 696 664 688 613 q 703 714 701 699 q 704 740 704 729 q 650 886 704 831 q 488 942 596 942 q 380 924 429 942 q 293 876 331 907 q 232 801 256 844 q 200 707 208 758 q 193 657 194 672 q 192 631 192 642 q 247 485 192 540 q 410 429 301 429 z "},"\u0000":{"ha":0,"x_min":0,"x_max":0,"o":""},"\r":{"ha":833,"x_min":0,"x_max":0,"o":""}," ":{"ha":833,"x_min":0,"x_max":0,"o":""},"a":{"ha":833,"x_min":93,"x_max":731,"o":"m 564 0 l 590 163 l 586 163 q 485 33 546 82 q 331 -17 425 -17 q 228 3 272 -17 q 153 60 183 24 q 108 147 124 96 q 93 258 93 197 q 115 440 93 354 q 181 592 138 526 q 287 695 224 657 q 431 733 350 733 q 579 694 522 733 q 657 589 636 654 l 663 589 l 683 717 l 731 717 l 611 0 l 564 0 m 339 26 q 424 41 385 26 q 500 89 464 56 q 569 176 538 124 q 613 293 601 228 l 646 490 q 642 563 651 526 q 608 627 633 599 q 540 673 583 656 q 438 690 497 690 q 333 668 381 690 q 251 607 286 646 q 192 515 215 568 q 158 401 168 463 l 146 325 q 140 257 140 293 q 152 167 140 208 q 188 94 164 125 q 249 44 211 63 q 339 26 286 26 z "},"b":{"ha":833,"x_min":103,"x_max":740,"o":"m 274 1028 l 321 1028 l 243 554 l 247 554 q 348 684 288 635 q 503 733 408 733 q 606 713 561 733 q 680 657 650 693 q 725 570 710 621 q 740 458 740 519 q 718 276 740 363 q 653 125 696 190 q 547 22 610 60 q 403 -17 483 -17 q 254 23 311 -17 q 176 128 197 63 l 171 128 l 150 0 l 103 0 l 274 1028 m 396 26 q 500 49 453 26 q 583 110 547 71 q 641 201 618 149 q 675 315 664 254 l 688 392 q 693 460 693 424 q 681 550 693 508 q 646 623 669 592 q 584 672 622 654 q 494 690 546 690 q 409 676 449 690 q 333 628 369 661 q 264 541 296 593 q 221 424 232 489 l 188 226 q 190 154 181 190 q 225 90 200 118 q 292 44 250 61 q 396 26 335 26 z "},"c":{"ha":833,"x_min":113,"x_max":694,"o":"m 369 -17 q 258 6 306 -17 q 177 67 210 28 q 128 161 144 107 q 113 281 113 215 q 139 472 113 388 q 213 614 165 556 q 325 703 260 672 q 467 733 390 733 q 619 688 560 733 q 694 571 678 642 l 653 557 q 584 657 633 624 q 464 690 535 690 q 275 617 351 690 q 178 417 199 544 l 165 344 q 161 308 163 322 q 160 274 160 293 q 173 176 160 221 q 213 97 186 131 q 278 45 239 64 q 372 26 318 26 q 515 73 453 26 q 639 215 576 119 l 676 196 q 544 41 617 99 q 369 -17 472 -17 z "},"d":{"ha":833,"x_min":93,"x_max":782,"o":"m 590 163 l 586 163 q 485 33 546 82 q 331 -17 425 -17 q 228 3 272 -17 q 153 60 183 24 q 108 147 124 96 q 93 258 93 197 q 115 440 93 354 q 181 592 138 526 q 287 695 224 657 q 431 733 350 733 q 579 694 522 733 q 657 589 636 654 l 663 589 l 735 1028 l 782 1028 l 611 0 l 564 0 l 590 163 m 339 26 q 424 41 385 26 q 500 89 464 56 q 569 176 538 124 q 613 293 601 228 l 646 490 q 642 563 651 526 q 608 627 633 599 q 540 673 583 656 q 438 690 497 690 q 333 668 381 690 q 251 607 286 646 q 192 515 215 568 q 158 401 168 463 l 146 325 q 140 257 140 293 q 152 167 140 208 q 188 94 164 125 q 249 44 211 63 q 339 26 286 26 z "},"e":{"ha":833,"x_min":113,"x_max":710,"o":"m 381 -17 q 181 62 250 -17 q 113 293 113 140 q 140 464 113 383 q 215 604 167 544 q 331 699 264 664 q 481 733 399 733 q 648 687 586 733 q 710 557 710 640 q 692 481 710 521 q 618 405 675 440 q 453 345 561 369 q 161 317 344 321 q 160 294 160 306 q 160 281 160 283 q 171 181 160 228 q 208 100 182 135 q 278 45 235 65 q 383 25 321 25 q 536 74 472 25 q 649 215 600 124 l 686 194 q 554 35 628 86 q 381 -17 481 -17 m 476 692 q 370 672 421 692 q 278 613 319 651 q 210 518 238 574 q 171 390 182 463 l 165 354 q 419 376 322 357 q 570 423 517 394 q 642 486 624 451 q 661 556 661 521 q 619 653 661 614 q 476 692 576 692 z "},"f":{"ha":833,"x_min":-15,"x_max":861,"o":"m 286 -294 q 251 -281 267 -294 q 203 -237 235 -267 l -15 -35 l 15 -4 l 281 -251 l 293 -247 l 447 675 l 182 675 l 189 717 l 454 717 l 494 958 q 517 1010 500 992 q 569 1028 533 1028 l 861 1028 l 854 986 l 547 986 l 501 717 l 810 717 l 803 675 l 494 675 l 344 -224 q 326 -275 339 -256 q 286 -294 314 -294 z "},"g":{"ha":833,"x_min":63,"x_max":731,"o":"m 289 -294 q 153 -269 208 -294 q 63 -200 99 -244 l 97 -168 q 173 -229 126 -207 q 290 -251 219 -251 q 471 -194 401 -251 q 561 -8 540 -137 l 590 168 l 586 168 q 485 38 546 88 q 331 -11 425 -11 q 228 9 272 -11 q 153 65 183 29 q 108 152 124 101 q 93 264 93 203 q 116 444 93 358 q 182 594 139 529 q 288 696 225 658 q 431 733 350 733 q 580 694 522 733 q 658 589 638 654 l 663 589 l 683 717 l 731 717 l 607 -19 q 501 -228 583 -162 q 289 -294 419 -294 m 339 32 q 424 47 385 32 q 500 94 464 61 q 569 178 536 126 q 613 297 601 231 l 646 490 q 642 563 651 526 q 608 627 633 599 q 540 673 583 656 q 438 690 497 690 q 333 668 381 690 q 250 608 286 646 q 190 517 214 569 q 157 401 167 464 l 146 332 q 140 264 140 300 q 152 173 140 215 q 188 99 164 131 q 249 50 211 68 q 339 32 286 32 z "},"h":{"ha":833,"x_min":113,"x_max":699,"o":"m 283 1028 l 332 1028 l 253 556 l 258 556 q 357 686 299 639 q 507 733 415 733 q 649 681 599 733 q 699 535 699 629 q 697 494 699 515 q 692 453 694 474 l 615 0 l 568 0 l 643 449 q 648 489 646 468 q 650 528 650 510 q 494 690 650 690 q 400 670 446 690 q 317 603 354 650 q 294 573 307 590 q 269 533 282 556 q 247 483 257 510 q 231 425 236 456 l 160 0 l 113 0 l 283 1028 z "},"i":{"ha":833,"x_min":124,"x_max":713,"o":"m 483 940 q 446 950 456 940 q 436 972 436 960 q 440 997 436 981 q 457 1026 444 1015 q 493 1036 469 1036 q 531 1026 521 1036 q 540 1004 540 1017 q 536 979 540 996 q 519 951 532 961 q 483 940 507 940 m 326 -17 q 293 -5 304 -17 q 282 26 282 7 q 283 43 282 33 q 289 76 285 53 l 406 675 l 124 675 l 131 717 l 461 717 l 329 36 l 342 29 l 688 275 l 713 244 l 428 39 q 367 -3 388 11 q 326 -17 346 -17 z "},"j":{"ha":833,"x_min":138,"x_max":724,"o":"m 440 -294 q 406 -282 422 -294 q 357 -239 389 -269 l 138 -35 l 168 -4 l 433 -250 l 446 -247 l 600 675 l 201 675 l 208 717 l 654 717 l 497 -224 q 480 -275 492 -256 q 440 -294 468 -294 m 667 940 q 629 950 639 940 q 619 972 619 960 q 621 983 619 978 q 624 997 622 989 q 676 1036 631 1036 q 714 1026 704 1036 q 724 1003 724 1015 q 719 979 724 993 q 667 940 713 940 z "},"k":{"ha":833,"x_min":103,"x_max":796,"o":"m 274 1028 l 322 1028 l 244 556 l 249 556 q 365 691 296 649 q 518 733 435 733 q 660 687 614 733 q 707 568 707 640 q 693 497 707 533 q 643 426 679 461 q 542 360 607 392 q 376 306 478 329 l 529 29 l 539 28 l 769 240 l 796 211 l 624 49 q 567 -2 586 13 q 529 -17 549 -17 q 500 -6 511 -17 q 475 31 489 6 l 318 319 q 482 370 417 343 q 586 428 547 397 q 641 493 625 460 q 657 563 657 526 q 622 656 657 621 q 507 692 588 692 q 331 624 403 692 q 259 532 286 583 q 222 425 232 481 l 151 0 l 103 0 l 274 1028 z "},"l":{"ha":833,"x_min":168,"x_max":700,"o":"m 308 -17 q 276 -5 288 -17 q 265 26 265 7 q 267 44 265 33 q 271 75 268 56 l 449 986 l 168 986 l 175 1028 l 504 1028 l 311 35 l 326 29 l 675 276 l 700 246 l 410 38 q 349 -3 369 10 q 308 -17 328 -17 z "},"m":{"ha":833,"x_min":49,"x_max":786,"o":"m 49 0 l 168 717 l 214 717 l 196 607 l 200 607 q 228 653 213 631 q 263 694 243 676 q 309 722 283 711 q 368 733 335 733 q 458 698 428 733 q 483 600 488 663 l 488 600 q 556 694 514 656 q 664 733 599 733 q 754 696 722 733 q 786 599 786 658 q 785 566 786 583 q 781 532 783 549 l 692 0 l 646 0 l 732 518 q 738 557 735 538 q 740 592 740 576 q 717 665 740 638 q 650 692 694 692 q 590 677 617 692 q 538 632 564 663 q 500 572 517 607 q 476 497 483 538 l 393 0 l 347 0 l 435 521 q 440 563 438 543 q 443 597 443 582 q 419 669 443 646 q 354 692 396 692 q 290 676 318 692 q 242 633 263 660 q 203 572 222 607 q 176 492 183 536 l 94 0 l 49 0 z "},"n":{"ha":833,"x_min":113,"x_max":699,"o":"m 113 0 l 232 717 l 279 717 l 253 556 l 258 556 q 357 686 299 639 q 507 733 415 733 q 649 681 599 733 q 699 535 699 629 q 697 494 699 515 q 692 453 694 474 l 615 0 l 568 0 l 643 449 q 648 489 646 468 q 650 528 650 510 q 494 690 650 690 q 400 670 446 690 q 317 603 354 650 q 294 573 307 590 q 269 533 282 556 q 247 483 257 510 q 231 425 236 456 l 160 0 l 113 0 z "},"o":{"ha":833,"x_min":108,"x_max":725,"o":"m 369 -17 q 257 4 306 -17 q 175 62 208 25 q 125 149 142 99 q 108 260 108 200 q 134 458 108 369 q 206 607 160 546 q 319 701 253 668 q 464 733 385 733 q 576 713 528 733 q 658 655 625 692 q 708 567 692 618 q 725 457 725 517 q 699 258 725 346 q 627 110 674 171 q 515 16 581 49 q 369 -17 449 -17 m 372 26 q 564 103 492 26 q 660 317 636 181 l 672 389 q 676 424 675 410 q 678 463 678 439 q 665 554 678 513 q 625 626 651 596 q 558 673 599 656 q 461 690 517 690 q 269 613 342 690 q 174 400 197 536 l 161 328 q 157 292 158 307 q 156 254 156 278 q 169 163 156 204 q 208 91 182 121 q 276 44 235 61 q 372 26 317 26 z "},"p":{"ha":833,"x_min":57,"x_max":740,"o":"m 222 717 l 269 717 l 243 554 l 247 554 q 348 684 288 635 q 503 733 408 733 q 606 713 561 733 q 680 657 650 693 q 725 570 710 621 q 740 458 740 519 q 718 276 740 363 q 653 125 696 190 q 547 22 610 60 q 403 -17 483 -17 q 254 23 311 -17 q 176 128 197 63 l 171 128 l 104 -278 l 57 -278 l 222 717 m 396 26 q 500 49 453 26 q 583 110 547 71 q 641 201 618 149 q 675 315 664 254 l 688 392 q 693 460 693 424 q 681 550 693 508 q 646 623 669 592 q 584 672 622 654 q 494 690 546 690 q 409 676 449 690 q 333 628 369 661 q 264 541 296 593 q 221 424 232 489 l 188 226 q 190 154 181 190 q 225 90 200 118 q 292 44 250 61 q 396 26 335 26 z "},"q":{"ha":833,"x_min":93,"x_max":731,"o":"m 590 163 l 586 163 q 485 33 546 82 q 331 -17 425 -17 q 228 3 272 -17 q 153 60 183 24 q 108 147 124 96 q 93 258 93 197 q 115 440 93 354 q 181 592 138 526 q 287 695 224 657 q 431 733 350 733 q 579 694 522 733 q 657 589 636 654 l 663 589 l 683 717 l 731 717 l 565 -278 l 518 -278 l 590 163 m 339 26 q 424 41 385 26 q 500 89 464 56 q 569 176 538 124 q 613 293 601 228 l 646 490 q 642 563 651 526 q 608 627 633 599 q 540 673 583 656 q 438 690 497 690 q 333 668 381 690 q 251 607 286 646 q 192 515 215 568 q 158 401 168 463 l 146 325 q 140 257 140 293 q 152 167 140 208 q 188 94 164 125 q 249 44 211 63 q 339 26 286 26 z "},"r":{"ha":833,"x_min":163,"x_max":828,"o":"m 286 0 l 399 675 l 163 675 l 169 717 l 453 717 l 431 579 l 435 579 q 476 637 454 611 q 527 680 499 663 q 592 707 556 697 q 676 717 628 717 l 828 717 l 821 671 l 667 671 q 507 621 575 671 q 447 559 475 597 q 411 468 419 521 l 333 0 l 286 0 z "},"s":{"ha":833,"x_min":82,"x_max":733,"o":"m 390 -17 q 82 124 175 -17 l 119 151 q 231 55 164 85 q 393 25 297 25 q 577 72 508 25 q 646 213 646 119 q 604 306 646 278 q 489 342 563 335 l 381 353 q 303 367 339 357 q 240 397 267 378 q 197 447 213 417 q 182 522 182 478 q 204 618 182 578 q 265 684 226 658 q 353 722 303 710 q 461 733 404 733 q 558 724 515 733 q 633 700 600 715 q 691 664 667 685 q 733 621 715 643 l 697 590 q 664 628 683 610 q 615 661 644 647 q 547 683 586 675 q 457 692 508 692 q 290 650 351 692 q 229 525 229 608 q 271 431 229 458 q 388 396 313 403 l 494 385 q 571 371 535 381 q 634 342 607 361 q 677 292 661 322 q 693 217 693 261 q 669 115 693 158 q 606 42 646 71 q 510 -2 565 13 q 390 -17 454 -17 z "},"t":{"ha":833,"x_min":107,"x_max":774,"o":"m 304 -17 q 272 -6 283 -17 q 260 22 260 6 q 260 44 260 33 q 265 78 261 56 l 368 675 l 107 675 l 114 717 l 331 717 q 385 763 376 717 l 418 969 l 465 969 l 424 717 l 774 717 l 767 675 l 415 675 l 307 36 l 321 29 l 692 261 l 715 228 l 407 35 q 347 -3 369 10 q 304 -17 325 -17 z "},"u":{"ha":833,"x_min":133,"x_max":721,"o":"m 581 161 l 576 161 q 477 31 536 79 q 328 -17 418 -17 q 185 35 236 -17 q 133 182 133 88 q 136 222 133 201 q 142 264 139 243 l 218 717 l 265 717 l 190 268 q 185 228 188 249 q 183 189 183 207 q 339 26 183 26 q 434 47 388 26 q 517 114 481 67 q 539 144 526 126 q 564 184 551 161 q 587 234 576 207 q 603 292 597 261 l 674 717 l 721 717 l 601 0 l 554 0 l 581 161 z "},"v":{"ha":833,"x_min":111,"x_max":740,"o":"m 335 717 l 238 40 l 249 31 q 431 78 349 33 q 570 197 513 124 q 660 362 628 269 q 692 553 692 454 q 664 707 692 640 l 710 722 q 733 642 725 688 q 740 554 740 596 q 702 338 740 440 q 597 160 664 236 q 442 38 531 83 q 251 -7 353 -7 q 206 6 221 -7 q 192 39 192 18 q 196 78 192 50 l 282 675 l 111 675 l 118 717 l 335 717 z "},"w":{"ha":833,"x_min":92,"x_max":786,"o":"m 214 -17 q 122 20 153 -17 q 92 113 92 57 q 95 167 92 139 q 103 224 99 196 l 185 717 l 231 717 l 149 225 q 140 167 142 189 q 138 121 138 144 q 161 49 138 74 q 225 25 185 25 q 294 46 264 25 q 346 100 324 67 q 377 166 365 129 q 396 239 389 203 l 475 717 l 519 717 l 442 236 q 435 183 438 210 q 432 132 432 156 q 455 54 432 83 q 524 25 478 25 q 615 62 575 25 q 683 161 656 99 q 726 305 711 224 q 742 476 742 386 q 731 606 742 543 q 701 708 721 668 l 743 721 q 774 615 763 678 q 786 478 786 553 q 765 265 786 365 q 697 93 743 164 q 620 13 665 42 q 517 -17 575 -17 q 427 19 463 -17 q 396 135 392 56 l 390 135 q 322 24 365 64 q 214 -17 278 -17 z "},"x":{"ha":833,"x_min":28,"x_max":813,"o":"m 161 -17 q 64 24 100 -17 q 28 143 28 64 q 30 186 28 160 q 38 239 32 213 l 85 242 q 77 194 79 215 q 75 149 75 174 q 100 54 75 85 q 169 24 125 24 q 243 47 210 24 q 303 109 276 71 q 348 195 329 147 q 379 292 367 243 q 398 385 392 340 q 404 461 404 429 q 399 535 404 499 q 383 601 393 571 q 361 656 374 632 q 336 693 349 679 l 324 696 l 82 578 l 65 610 l 247 704 q 294 726 275 719 q 333 733 314 733 q 374 715 354 733 q 408 663 393 697 q 433 581 424 629 q 443 472 442 532 l 449 472 q 542 669 481 606 q 679 733 604 733 q 776 693 740 733 q 813 574 813 653 q 810 531 813 557 q 803 478 808 504 l 756 475 q 763 522 761 501 q 765 568 765 543 q 740 663 765 632 q 671 693 715 693 q 597 669 631 693 q 538 608 564 646 q 492 522 511 569 q 461 425 474 474 q 442 332 449 376 q 436 256 436 288 q 442 182 436 218 q 457 115 447 146 q 479 61 467 85 q 506 24 492 38 l 518 21 l 750 150 l 769 119 l 593 15 q 544 -10 561 -4 q 510 -17 528 -17 q 469 1 489 -17 q 433 53 449 19 q 408 135 418 88 q 397 244 399 183 l 392 244 q 298 47 360 111 q 161 -17 236 -17 z "},"y":{"ha":833,"x_min":53,"x_max":721,"o":"m 279 -294 q 144 -269 199 -294 q 53 -200 89 -244 l 88 -168 q 163 -229 117 -207 q 281 -251 210 -251 q 462 -194 392 -251 q 553 -8 532 -137 l 582 165 l 578 165 q 478 36 538 83 q 329 -11 419 -11 q 185 40 236 -11 q 133 185 133 90 q 142 268 133 224 l 218 717 l 267 717 l 192 272 q 186 232 189 253 q 183 193 183 211 q 224 72 183 113 q 340 31 264 31 q 435 51 389 31 q 518 118 481 72 q 540 148 528 131 q 565 188 553 165 q 588 237 578 210 q 603 294 597 264 l 674 717 l 721 717 l 599 -19 q 492 -228 575 -162 q 279 -294 410 -294 z "},"z":{"ha":833,"x_min":72,"x_max":757,"o":"m 622 -17 q 584 -12 604 -17 q 535 -1 564 -8 l 140 89 l 133 82 l 119 0 l 72 0 l 89 103 l 658 599 q 471 669 543 647 q 344 690 399 690 q 229 644 265 690 q 192 481 193 599 l 149 481 l 150 507 q 201 677 157 621 q 346 733 246 733 q 474 712 401 733 q 635 653 547 690 l 689 629 l 696 636 l 710 718 l 757 718 l 740 615 l 174 122 l 633 22 l 643 32 l 604 272 l 642 281 l 665 157 q 681 84 675 113 q 686 39 686 56 q 669 1 686 18 q 622 -17 651 -17 z "},"A":{"ha":833,"x_min":7,"x_max":708,"o":"m 657 0 l 608 314 l 215 314 l 61 0 l 7 0 l 485 969 l 553 969 l 708 0 l 657 0 m 514 915 l 507 915 l 235 358 l 601 358 l 514 915 z "},"B":{"ha":833,"x_min":78,"x_max":747,"o":"m 239 969 l 529 969 q 692 915 636 969 q 747 758 747 860 q 703 593 747 664 q 571 499 660 522 l 571 494 q 677 429 640 479 q 714 301 714 379 q 638 80 714 160 q 428 0 563 0 l 78 0 l 239 969 m 422 44 q 581 92 522 44 q 651 217 639 139 l 660 265 q 664 310 664 290 q 622 425 664 378 q 489 472 579 472 l 206 472 l 135 44 l 422 44 m 476 515 q 623 564 569 515 q 688 686 676 613 l 694 729 q 697 752 697 744 q 697 769 697 760 q 656 883 697 840 q 525 925 615 925 l 282 925 l 214 515 l 476 515 z "},"C":{"ha":833,"x_min":121,"x_max":782,"o":"m 392 -17 q 193 63 265 -17 q 121 311 121 143 q 144 548 121 428 q 217 765 167 668 q 344 924 267 863 q 532 986 422 986 q 629 972 588 986 q 701 930 671 957 q 750 866 731 903 q 782 785 769 829 l 736 771 q 709 841 725 810 q 669 894 693 872 q 610 929 644 917 q 529 942 576 942 q 317 839 404 942 q 197 546 229 736 l 182 451 q 173 376 175 413 q 171 304 171 339 q 228 98 171 168 q 394 28 285 28 q 547 77 485 28 q 661 225 608 126 l 703 204 q 640 106 672 147 q 571 38 608 65 q 490 -3 533 10 q 392 -17 446 -17 z "},"D":{"ha":833,"x_min":88,"x_max":771,"o":"m 249 969 l 476 969 q 597 949 543 969 q 690 888 651 928 q 750 788 729 847 q 771 653 771 729 q 747 398 771 517 q 672 190 722 279 q 544 51 622 101 q 357 0 465 0 l 88 0 l 249 969 m 360 44 q 577 137 490 44 q 694 411 664 229 l 711 506 q 720 580 718 543 q 722 651 722 617 q 657 855 722 785 q 474 925 592 925 l 292 925 l 144 44 l 360 44 z "},"E":{"ha":833,"x_min":85,"x_max":817,"o":"m 85 0 l 246 969 l 817 969 l 810 925 l 289 925 l 221 514 l 722 514 l 715 469 l 213 469 l 142 44 l 663 44 l 656 0 l 85 0 z "},"F":{"ha":833,"x_min":85,"x_max":824,"o":"m 85 0 l 246 969 l 824 969 l 817 925 l 289 925 l 221 514 l 708 514 l 701 469 l 213 469 l 135 0 l 85 0 z "},"G":{"ha":833,"x_min":117,"x_max":781,"o":"m 632 143 l 628 143 q 585 81 608 110 q 533 30 563 51 q 467 -4 504 8 q 382 -17 431 -17 q 183 63 250 -17 q 117 311 117 142 q 138 547 117 428 q 208 765 160 667 q 333 924 256 863 q 524 986 411 986 q 697 930 638 986 q 781 785 757 874 l 736 771 q 665 895 714 849 q 521 942 615 942 q 307 838 390 942 q 192 546 224 735 l 176 451 q 167 374 169 411 q 165 306 165 338 q 217 98 165 168 q 390 28 269 28 q 488 47 443 28 q 566 99 532 65 q 623 180 600 133 q 656 281 646 226 l 676 404 l 438 404 l 446 447 l 731 447 l 656 0 l 608 0 l 632 143 z "},"H":{"ha":833,"x_min":71,"x_max":804,"o":"m 671 469 l 200 469 l 121 0 l 71 0 l 232 969 l 282 969 l 207 514 l 678 514 l 754 969 l 804 969 l 643 0 l 593 0 l 671 469 z "},"I":{"ha":833,"x_min":65,"x_max":810,"o":"m 65 0 l 72 42 l 339 42 l 486 928 l 219 928 l 226 969 l 810 969 l 803 928 l 536 928 l 389 42 l 656 42 l 649 0 l 65 0 z "},"J":{"ha":833,"x_min":96,"x_max":749,"o":"m 749 969 l 629 254 q 528 52 607 121 q 331 -17 449 -17 q 163 35 224 -17 q 96 176 103 88 l 144 186 q 199 69 151 108 q 329 29 246 29 q 498 90 433 29 q 582 268 563 151 l 692 925 l 308 925 l 315 969 l 749 969 z "},"K":{"ha":833,"x_min":83,"x_max":867,"o":"m 396 524 l 188 326 l 133 0 l 83 0 l 246 969 l 296 969 l 200 400 l 204 400 l 418 606 l 803 969 l 867 969 l 435 558 l 707 0 l 653 0 l 396 524 z "},"L":{"ha":833,"x_min":135,"x_max":682,"o":"m 135 0 l 296 969 l 346 969 l 192 44 l 682 44 l 675 0 l 135 0 z "},"M":{"ha":833,"x_min":53,"x_max":822,"o":"m 764 896 l 758 896 l 413 331 l 254 896 l 249 896 l 100 0 l 53 0 l 214 969 l 281 969 l 425 440 l 431 440 l 753 969 l 822 969 l 661 0 l 614 0 l 764 896 z "},"N":{"ha":833,"x_min":71,"x_max":804,"o":"m 275 910 l 269 910 l 118 0 l 71 0 l 232 969 l 307 969 l 600 60 l 606 60 l 757 969 l 804 969 l 643 0 l 568 0 l 275 910 z "},"O":{"ha":833,"x_min":101,"x_max":771,"o":"m 364 -17 q 167 62 233 -17 q 101 306 101 140 q 111 465 101 385 q 141 622 121 546 q 193 764 161 697 q 270 880 225 831 q 374 958 315 929 q 508 986 433 986 q 705 908 639 986 q 771 664 771 829 q 761 504 771 585 q 731 348 751 424 q 679 206 711 272 q 602 90 647 139 q 497 12 557 40 q 364 -17 438 -17 m 367 28 q 578 131 494 28 q 694 422 663 233 l 711 522 q 720 599 718 563 q 722 668 722 636 q 672 872 722 803 q 506 942 621 942 q 294 839 378 942 q 178 547 210 736 l 161 447 q 152 370 154 407 q 150 301 150 333 q 201 97 150 167 q 367 28 251 28 z "},"P":{"ha":833,"x_min":85,"x_max":799,"o":"m 85 0 l 246 969 l 576 969 q 741 909 683 969 q 799 756 799 849 q 780 625 799 683 q 724 525 761 567 q 634 461 688 483 q 510 439 581 439 l 208 439 l 135 0 l 85 0 m 215 483 l 513 483 q 668 535 613 483 q 736 667 724 586 l 744 718 q 747 738 746 729 q 747 758 747 747 q 737 823 747 793 q 705 876 726 853 q 650 912 683 899 q 572 925 617 925 l 289 925 l 215 483 z "},"Q":{"ha":833,"x_min":101,"x_max":771,"o":"m 524 -239 q 479 -210 497 -239 l 347 -17 q 163 67 225 -11 q 101 306 101 146 q 111 465 101 385 q 141 622 121 546 q 193 764 161 697 q 270 880 225 831 q 374 958 315 929 q 508 986 433 986 q 705 908 639 986 q 771 664 771 829 q 763 511 771 589 q 735 360 754 433 q 688 223 717 288 q 617 108 658 158 q 523 25 576 57 q 403 -14 469 -7 l 525 -196 l 532 -197 l 696 -58 l 724 -83 l 578 -211 q 524 -239 549 -239 m 367 28 q 578 131 494 28 q 694 422 663 233 l 711 522 q 720 599 718 563 q 722 668 722 636 q 672 872 722 803 q 506 942 621 942 q 294 839 378 942 q 178 547 210 736 l 161 447 q 152 370 154 407 q 150 301 150 333 q 201 97 150 167 q 367 28 251 28 z "},"R":{"ha":833,"x_min":85,"x_max":799,"o":"m 135 0 l 85 0 l 246 969 l 576 969 q 741 909 683 969 q 799 756 799 849 q 726 528 799 613 q 517 440 654 443 l 468 440 l 671 0 l 618 0 l 418 440 l 208 440 l 135 0 m 513 483 q 667 534 613 483 q 736 667 722 585 l 744 718 q 747 738 746 729 q 747 758 747 747 q 737 823 747 793 q 705 876 726 853 q 650 912 683 899 q 572 925 617 925 l 289 925 l 215 483 l 513 483 z "},"S":{"ha":833,"x_min":47,"x_max":790,"o":"m 378 -17 q 169 27 246 -17 q 47 143 92 71 l 86 174 q 135 112 108 139 q 197 66 161 85 q 277 38 232 47 q 381 28 322 28 q 585 92 511 28 q 660 275 660 157 q 619 396 660 351 q 485 461 578 440 l 368 489 q 213 569 263 513 q 164 715 164 625 q 188 832 164 782 q 253 917 211 882 q 353 969 294 951 q 482 986 411 986 q 682 948 611 986 q 790 844 753 910 l 751 818 q 707 874 732 851 q 649 913 682 897 q 575 935 617 928 q 481 942 533 942 q 286 885 358 942 q 214 717 214 828 q 256 596 214 639 q 389 532 297 553 l 504 506 q 662 424 613 481 q 711 278 711 367 q 688 153 711 208 q 620 61 664 99 q 515 3 576 24 q 378 -17 454 -17 z "},"T":{"ha":833,"x_min":146,"x_max":883,"o":"m 536 925 l 382 0 l 332 0 l 486 925 l 146 925 l 153 969 l 883 969 l 876 925 l 536 925 z "},"U":{"ha":833,"x_min":117,"x_max":804,"o":"m 282 969 l 185 385 q 170 288 175 326 q 165 215 165 249 q 210 71 165 114 q 364 28 256 28 q 485 47 436 28 q 566 107 533 65 q 619 215 599 149 q 656 378 639 282 l 754 969 l 804 969 l 707 382 q 664 195 689 271 q 600 72 639 119 q 503 4 561 25 q 363 -17 446 -17 q 175 37 233 -17 q 117 213 117 90 q 122 299 117 251 q 138 399 128 347 l 232 969 l 282 969 z "},"V":{"ha":833,"x_min":171,"x_max":864,"o":"m 322 0 l 171 969 l 221 969 l 363 54 l 367 54 l 810 969 l 864 969 l 392 0 l 322 0 z "},"W":{"ha":833,"x_min":103,"x_max":861,"o":"m 103 0 l 174 969 l 219 969 l 151 50 l 158 50 l 439 683 l 500 683 l 569 50 l 576 50 l 815 969 l 861 969 l 610 0 l 531 0 l 463 619 l 457 619 l 183 0 l 103 0 z "},"X":{"ha":833,"x_min":3,"x_max":865,"o":"m 715 0 l 661 0 l 440 451 l 436 451 l 64 0 l 3 0 l 414 496 l 178 969 l 233 969 l 446 538 l 450 538 l 804 969 l 865 969 l 472 493 l 715 0 z "},"Y":{"ha":833,"x_min":136,"x_max":900,"o":"m 332 0 l 399 401 l 136 969 l 190 969 l 426 453 l 431 453 l 840 969 l 900 969 l 450 403 l 382 0 l 332 0 z "},"Z":{"ha":833,"x_min":7,"x_max":839,"o":"m 707 0 l 7 0 l 15 47 l 774 925 l 192 925 l 199 969 l 839 969 l 832 922 l 74 44 l 714 44 l 707 0 z "},"&":{"ha":833,"x_min":14,"x_max":818,"o":"m 243 -17 q 144 1 188 -17 q 72 51 101 19 q 28 126 43 83 q 14 218 14 169 q 29 340 14 285 q 78 435 44 394 q 163 501 111 476 q 289 532 215 525 q 252 601 267 571 q 228 656 238 631 q 215 706 219 682 q 211 754 211 729 q 228 858 211 814 q 276 930 246 901 q 349 972 307 958 q 438 986 390 986 q 523 973 483 986 q 592 933 563 960 q 638 867 621 907 q 654 774 654 828 q 634 645 654 700 q 578 552 614 590 q 494 490 543 514 q 388 456 446 467 l 646 28 l 656 28 l 783 225 l 818 207 l 725 56 q 687 0 701 17 q 653 -17 672 -17 q 619 -8 633 -17 q 586 36 606 1 l 490 197 l 486 197 q 451 97 475 138 q 396 31 428 56 q 324 -6 364 6 q 243 -17 285 -17 m 247 26 q 319 36 283 26 q 384 69 354 46 q 436 132 414 93 q 469 229 458 171 l 306 503 q 140 442 193 489 q 74 314 88 394 q 65 251 65 269 q 64 219 64 233 q 75 143 64 178 q 109 82 86 108 q 166 41 132 56 q 247 26 200 26 m 436 943 q 367 933 399 943 q 311 901 335 924 q 274 843 288 879 q 260 756 260 807 q 263 710 260 732 q 276 661 267 688 q 301 602 285 635 q 344 528 318 569 l 371 483 q 518 547 460 503 q 592 675 576 592 q 603 740 601 719 q 606 774 606 761 q 560 901 606 858 q 436 943 515 943 z "},"@":{"ha":833,"x_min":106,"x_max":751,"o":"m 571 -149 l 386 -149 q 170 -67 235 -149 q 106 165 106 15 q 113 289 106 222 q 133 433 121 356 q 192 687 158 582 q 271 858 225 792 q 376 956 317 925 q 511 986 435 986 q 622 968 576 986 q 697 919 668 950 q 738 845 725 888 q 751 753 751 803 q 743 643 751 699 l 658 131 l 614 131 l 632 242 l 628 242 q 561 154 600 190 q 460 118 522 118 q 349 168 389 118 q 310 318 310 218 q 315 384 310 350 q 328 454 321 418 q 406 638 353 581 q 543 696 460 696 q 639 667 603 696 q 686 593 675 638 l 690 593 l 699 643 q 706 696 704 669 q 708 746 708 722 q 664 893 708 840 q 510 946 619 946 q 304 832 383 946 q 186 467 225 718 l 171 368 q 156 256 161 311 q 150 158 150 201 q 162 46 150 96 q 202 -38 174 -4 q 276 -90 231 -72 q 390 -108 322 -108 l 578 -108 l 571 -149 m 475 157 q 535 174 507 157 q 588 218 564 190 q 627 280 611 246 q 650 351 643 314 l 675 508 q 655 615 686 572 q 549 657 624 657 q 436 608 483 657 q 371 443 389 560 l 363 390 q 354 311 354 344 q 386 192 354 226 q 475 157 418 157 z "},"-":{"ha":833,"x_min":236,"x_max":618,"o":"m 236 399 l 244 447 l 618 447 l 610 399 l 236 399 z "},"­":{"ha":833,"x_min":236,"x_max":618,"o":"m 236 399 l 244 447 l 618 447 l 610 399 l 236 399 z "},"–":{"ha":833,"x_min":90,"x_max":763,"o":"m 90 401 l 97 446 l 763 446 l 756 401 l 90 401 z "},"—":{"ha":833,"x_min":8,"x_max":846,"o":"m 8 401 l 15 446 l 846 446 l 839 401 l 8 401 z "},"_":{"ha":833,"x_min":-6,"x_max":667,"o":"m -6 -204 l 1 -161 l 667 -161 l 660 -204 l -6 -204 z "},".":{"ha":833,"x_min":304,"x_max":425,"o":"m 356 -8 q 304 31 304 -8 q 305 42 304 36 q 307 56 306 49 q 374 103 315 103 q 425 64 425 103 q 424 52 425 58 q 422 39 424 46 q 356 -8 414 -8 z "},"…":{"ha":833,"x_min":64,"x_max":667,"o":"m 113 -7 q 64 29 64 -7 q 68 57 64 40 q 87 89 72 76 q 129 101 101 101 q 178 65 178 101 q 174 38 178 54 q 155 6 169 18 q 113 -7 140 -7 m 357 -7 q 308 29 308 -7 q 313 57 308 40 q 331 89 317 76 q 374 101 346 101 q 422 65 422 101 q 418 38 422 54 q 399 6 414 18 q 357 -7 385 -7 m 601 -7 q 553 29 553 -7 q 557 57 553 40 q 576 89 561 76 q 618 101 590 101 q 667 65 667 101 q 663 38 667 54 q 644 6 658 18 q 601 -7 629 -7 z "},":":{"ha":833,"x_min":304,"x_max":528,"o":"m 356 -8 q 304 31 304 -8 q 305 42 304 36 q 307 56 306 49 q 374 103 315 103 q 425 64 425 103 q 424 52 425 58 q 422 39 424 46 q 356 -8 414 -8 m 458 614 q 407 653 407 614 q 408 665 407 658 q 410 678 408 671 q 476 725 418 725 q 528 686 528 725 q 527 674 528 681 q 525 661 526 668 q 458 614 517 614 z "},",":{"ha":833,"x_min":213,"x_max":432,"o":"m 346 128 l 432 128 l 254 -229 l 213 -229 l 346 128 z "},";":{"ha":833,"x_min":213,"x_max":528,"o":"m 346 128 l 432 128 l 254 -229 l 213 -229 l 346 128 m 458 614 q 407 653 407 614 q 408 665 407 658 q 410 678 408 671 q 476 725 418 725 q 528 686 528 725 q 527 674 528 681 q 525 661 526 668 q 458 614 517 614 z "},"'":{"ha":833,"x_min":444,"x_max":554,"o":"m 444 672 l 504 1028 l 554 1028 l 494 672 l 444 672 z "},"\"":{"ha":833,"x_min":347,"x_max":653,"o":"m 347 672 l 407 1028 l 457 1028 l 397 672 l 347 672 m 543 672 l 603 1028 l 653 1028 l 593 672 l 543 672 z "},"‘":{"ha":833,"x_min":375,"x_max":594,"o":"m 554 1028 l 594 1028 l 461 672 l 375 672 l 554 1028 z "},"’":{"ha":833,"x_min":404,"x_max":624,"o":"m 538 1028 l 624 1028 l 446 672 l 404 672 l 538 1028 z "},"“":{"ha":833,"x_min":251,"x_max":722,"o":"m 431 1028 l 471 1028 l 338 672 l 251 672 l 431 1028 m 682 1028 l 722 1028 l 589 672 l 503 672 l 682 1028 z "},"”":{"ha":833,"x_min":281,"x_max":751,"o":"m 414 1028 l 500 1028 l 322 672 l 281 672 l 414 1028 m 665 1028 l 751 1028 l 574 672 l 532 672 l 665 1028 z "},"‚":{"ha":833,"x_min":213,"x_max":432,"o":"m 346 128 l 432 128 l 254 -229 l 213 -229 l 346 128 z "},"„":{"ha":833,"x_min":96,"x_max":567,"o":"m 229 128 l 315 128 l 138 -229 l 96 -229 l 229 128 m 481 128 l 567 128 l 389 -229 l 347 -229 l 481 128 z "},"‹":{"ha":833,"x_min":233,"x_max":588,"o":"m 485 99 l 233 350 l 240 396 l 575 646 l 588 610 l 288 369 l 507 132 l 485 99 z "},"›":{"ha":833,"x_min":250,"x_max":606,"o":"m 250 136 l 551 376 l 331 614 l 353 646 l 606 396 l 599 350 l 263 99 l 250 136 z "},"«":{"ha":833,"x_min":114,"x_max":769,"o":"m 365 99 l 114 350 l 121 396 l 456 646 l 468 610 l 168 369 l 388 132 l 365 99 m 667 99 l 415 350 l 422 396 l 757 646 l 769 610 l 469 369 l 689 132 l 667 99 z "},"»":{"ha":833,"x_min":69,"x_max":726,"o":"m 69 136 l 371 376 l 150 614 l 172 646 l 425 396 l 418 350 l 82 99 l 69 136 m 371 136 l 672 376 l 451 614 l 474 646 l 726 396 l 719 350 l 383 99 l 371 136 z "},"¡":{"ha":833,"x_min":289,"x_max":529,"o":"m 289 -253 l 350 114 l 421 453 l 444 453 l 401 114 l 340 -253 l 289 -253 m 460 614 q 408 653 408 614 q 409 665 408 658 q 411 678 410 671 q 478 725 419 725 q 529 686 529 725 q 528 674 529 681 q 526 661 528 668 q 460 614 518 614 z "},"!":{"ha":833,"x_min":304,"x_max":544,"o":"m 389 264 l 432 603 l 493 969 l 544 969 l 483 603 l 413 264 l 389 264 m 356 -8 q 304 31 304 -8 q 305 42 304 36 q 307 56 306 49 q 374 103 315 103 q 425 64 425 103 q 424 52 425 58 q 422 39 424 46 q 356 -8 414 -8 z "},"¿":{"ha":833,"x_min":67,"x_max":624,"o":"m 314 -269 q 133 -209 200 -269 q 67 -49 67 -149 q 151 166 67 86 q 399 263 235 246 l 432 460 l 481 460 l 442 225 q 215 160 290 211 q 125 8 140 108 q 120 -24 122 -6 q 118 -50 118 -42 q 169 -179 118 -132 q 317 -226 221 -226 q 483 -177 422 -226 q 579 -42 544 -128 l 624 -58 q 512 -211 588 -153 q 314 -269 436 -269 m 500 725 q 551 686 551 725 q 551 674 551 681 q 549 661 550 668 q 482 614 540 614 q 431 653 431 614 q 431 665 431 658 q 433 678 432 671 q 500 725 442 725 z "},"?":{"ha":833,"x_min":203,"x_max":760,"o":"m 346 257 l 385 492 q 611 557 536 506 q 701 708 686 608 q 706 740 704 722 q 708 767 708 758 q 657 896 708 849 q 510 943 606 943 q 343 894 404 943 q 247 758 282 844 l 203 775 q 315 928 239 869 q 513 986 390 986 q 693 926 626 986 q 760 765 760 865 q 676 551 760 631 q 428 454 592 471 l 394 257 l 346 257 m 326 -8 q 275 31 275 -8 q 276 42 275 36 q 278 56 276 49 q 344 103 286 103 q 396 64 396 103 q 395 52 396 58 q 393 39 394 46 q 326 -8 385 -8 z "},"(":{"ha":833,"x_min":318,"x_max":769,"o":"m 318 317 q 351 552 318 442 q 438 756 383 663 q 565 926 493 850 q 714 1056 636 1001 l 769 1056 q 637 947 700 1008 q 522 814 574 886 q 433 660 469 742 q 381 490 396 578 l 371 426 q 364 367 367 396 q 361 310 361 339 q 415 33 361 156 q 560 -192 468 -89 l 513 -192 q 437 -92 472 -147 q 375 26 401 -37 q 333 163 349 90 q 318 317 318 235 z "},")":{"ha":833,"x_min":90,"x_max":542,"o":"m 542 547 q 509 312 542 422 q 422 108 476 201 q 295 -62 367 14 q 146 -192 224 -137 l 90 -192 q 222 -83 158 -144 q 338 50 286 -22 q 427 204 390 122 q 479 374 464 286 l 489 438 q 496 497 493 468 q 499 554 499 525 q 445 831 499 708 q 300 1056 392 953 l 347 1056 q 423 956 388 1011 q 485 838 458 901 q 526 701 511 774 q 542 547 542 628 z "},"[":{"ha":833,"x_min":263,"x_max":814,"o":"m 263 -192 l 471 1056 l 814 1056 l 807 1017 l 507 1017 l 313 -153 l 613 -153 l 606 -192 l 263 -192 z "},"]":{"ha":833,"x_min":36,"x_max":588,"o":"m 588 1056 l 379 -192 l 36 -192 l 43 -153 l 343 -153 l 538 1017 l 238 1017 l 244 1056 l 588 1056 z "},"{":{"ha":833,"x_min":167,"x_max":792,"o":"m 325 -192 q 274 -149 274 -192 q 274 -142 274 -147 q 278 -121 275 -136 q 285 -76 281 -106 q 299 1 290 -47 q 317 72 304 43 q 343 123 329 101 q 372 160 357 144 q 397 186 386 175 q 452 249 436 225 q 468 306 468 272 q 417 386 468 360 q 271 413 367 413 l 167 413 l 174 451 l 278 451 q 455 485 394 451 q 515 586 515 518 q 508 627 515 606 q 481 679 500 649 q 465 702 474 690 q 450 729 457 714 q 438 764 443 744 q 433 810 433 783 q 440 865 433 821 q 464 997 447 908 q 486 1040 469 1025 q 532 1056 503 1056 l 792 1056 l 785 1017 l 511 1017 q 494 924 500 961 q 483 864 488 888 q 478 828 479 840 q 476 808 476 815 q 489 744 476 765 q 514 701 501 722 q 547 642 533 668 q 560 588 560 615 q 510 480 560 519 q 372 432 461 440 l 372 429 q 474 392 435 422 q 513 310 513 363 q 492 237 513 267 q 429 164 471 207 q 407 140 419 153 q 382 108 394 126 q 358 63 369 89 q 342 -1 347 36 l 315 -153 l 590 -153 l 583 -192 l 325 -192 z "},"}":{"ha":833,"x_min":65,"x_max":690,"o":"m 532 1056 q 583 1013 583 1056 q 583 1005 583 1010 q 579 985 582 1000 q 572 940 576 969 q 558 863 567 911 q 540 792 551 821 q 514 741 528 763 q 485 704 500 719 q 460 678 471 689 q 426 643 440 658 q 404 615 413 628 q 392 588 396 601 q 389 558 389 575 q 440 478 389 504 q 586 451 490 451 l 690 451 l 683 413 l 579 413 q 402 379 463 413 q 342 278 342 346 q 349 237 342 258 q 376 185 357 215 q 407 134 390 163 q 424 54 424 106 q 417 -1 424 43 q 393 -133 410 -44 q 371 -176 388 -161 q 325 -192 354 -192 l 65 -192 l 72 -153 l 346 -153 q 363 -60 356 -97 q 374 0 369 -24 q 379 36 378 24 q 381 56 381 49 q 368 120 381 99 q 343 163 356 142 q 310 222 324 196 q 297 276 297 249 q 347 384 297 344 q 485 432 396 424 l 485 435 q 383 472 422 442 q 344 554 344 501 q 365 627 344 597 q 428 700 386 657 q 450 724 438 711 q 475 756 463 738 q 498 801 488 775 q 515 865 508 828 l 542 1017 l 267 1017 l 274 1056 l 532 1056 z "},"/":{"ha":833,"x_min":50,"x_max":800,"o":"m 50 -192 l 754 1056 l 800 1056 l 94 -192 l 50 -192 z "},"\\":{"ha":833,"x_min":271,"x_max":599,"o":"m 560 -192 l 271 1056 l 310 1056 l 599 -192 l 560 -192 z "},"⁄":{"ha":833,"x_min":-18,"x_max":893,"o":"m 847 969 l 893 969 l 583 553 l 536 553 l 847 969 m 293 417 l 339 417 l 29 0 l -18 0 l 293 417 z "},"%":{"ha":833,"x_min":-24,"x_max":900,"o":"m 274 517 q 153 563 201 517 q 106 694 106 608 q 125 824 106 769 q 176 915 144 879 q 249 969 208 951 q 335 986 290 986 q 455 940 407 986 q 503 808 503 894 q 483 678 503 733 q 432 588 464 624 q 358 534 400 551 q 274 517 317 517 m 274 553 q 385 592 336 553 q 449 722 433 632 q 459 785 457 768 q 461 814 461 803 q 424 917 461 885 q 335 950 388 950 q 224 910 272 950 q 160 781 175 871 q 149 718 151 736 q 147 689 147 700 q 184 585 147 618 q 274 553 221 553 m 853 969 l 900 969 l 588 553 l 540 553 l 853 969 m 288 417 l 335 417 l 24 0 l -24 0 l 288 417 m 540 -17 q 422 29 469 -17 q 374 161 374 75 q 393 291 374 236 q 444 382 413 346 q 517 435 476 418 q 603 453 558 453 q 723 407 675 453 q 771 275 771 361 q 751 145 771 200 q 700 54 732 90 q 626 1 668 18 q 540 -17 585 -17 m 542 19 q 653 59 604 19 q 717 189 701 99 q 726 251 724 233 q 729 281 729 269 q 692 384 729 351 q 601 417 654 417 q 491 377 539 417 q 426 247 443 338 q 417 184 419 201 q 415 156 415 167 q 452 52 415 85 q 542 19 489 19 z "},"‰":{"ha":833,"x_min":68,"x_max":814,"o":"m 224 556 q 113 597 157 556 q 68 714 68 639 q 85 836 68 785 q 133 921 103 888 q 202 970 163 954 q 285 986 242 986 q 396 944 351 986 q 440 828 440 903 q 423 706 440 757 q 376 621 406 654 q 306 572 346 588 q 224 556 267 556 m 226 590 q 329 626 285 590 q 386 743 374 663 q 393 780 390 765 q 397 804 396 794 q 398 820 397 814 q 399 832 399 826 q 364 923 399 894 q 283 951 329 951 q 181 915 225 951 q 122 799 136 879 q 113 737 114 754 q 111 710 111 719 q 145 619 111 647 q 226 590 179 590 m 111 436 l 771 692 l 783 660 l 124 404 l 111 436 m 279 -17 q 167 25 213 -17 q 122 142 122 67 q 140 264 122 213 q 187 349 157 315 q 256 398 217 382 q 339 414 296 414 q 429 387 390 414 q 482 311 468 360 l 486 311 q 560 389 515 364 q 657 414 604 414 q 769 372 724 414 q 814 256 814 331 q 797 133 814 185 q 749 49 779 82 q 680 -1 719 15 q 597 -17 640 -17 q 507 10 546 -17 q 454 88 468 38 l 450 88 q 376 9 421 35 q 279 -17 332 -17 m 281 18 q 383 54 339 18 q 442 171 428 90 q 448 208 446 193 q 451 232 450 222 q 452 248 451 242 q 453 260 453 254 q 418 351 453 322 q 338 379 383 379 q 235 343 279 379 q 176 226 190 307 q 167 165 169 182 q 165 138 165 147 q 200 47 165 75 q 281 18 235 18 m 599 18 q 701 54 657 18 q 760 171 746 90 q 766 208 764 193 q 769 232 768 222 q 770 248 769 242 q 771 260 771 254 q 736 351 771 322 q 656 379 701 379 q 553 343 597 379 q 496 226 508 307 q 485 165 488 182 q 483 138 483 147 q 518 47 483 75 q 599 18 553 18 z "},"|":{"ha":833,"x_min":303,"x_max":556,"o":"m 303 -192 l 511 1056 l 556 1056 l 347 -192 l 303 -192 z "},"¦":{"ha":833,"x_min":303,"x_max":556,"o":"m 428 557 l 511 1056 l 556 1056 l 472 557 l 428 557 m 303 -192 l 386 307 l 431 307 l 347 -192 l 303 -192 z "},"§":{"ha":833,"x_min":122,"x_max":742,"o":"m 600 10 q 528 -156 600 -97 q 335 -214 456 -214 q 212 -194 265 -214 q 122 -137 158 -174 l 154 -106 q 231 -154 186 -137 q 336 -171 275 -171 q 495 -125 438 -171 q 553 7 553 -79 q 517 109 553 72 q 417 164 481 146 l 315 193 q 193 260 232 217 q 154 374 154 304 q 205 512 154 458 q 351 594 256 565 l 351 600 q 264 763 264 657 q 336 928 264 869 q 529 986 408 986 q 652 966 599 986 q 742 910 706 946 l 710 878 q 633 926 678 910 q 528 943 589 943 q 369 897 426 943 q 311 765 311 851 q 347 663 311 700 q 447 608 383 626 l 549 579 q 671 512 632 556 q 710 400 710 468 q 659 260 710 314 q 513 178 608 207 l 513 172 q 600 10 600 115 m 663 392 q 631 485 663 450 q 524 542 600 519 l 422 571 q 401 577 411 574 q 383 583 392 581 q 249 504 297 551 q 201 381 201 457 q 233 288 201 322 q 340 231 264 253 l 442 201 q 463 195 453 199 q 481 189 472 192 q 615 268 567 221 q 663 392 663 315 z "},"¶":{"ha":833,"x_min":132,"x_max":767,"o":"m 407 342 q 292 361 343 342 q 205 416 240 381 q 151 501 169 451 q 132 611 132 551 q 160 754 132 689 q 238 867 189 819 q 355 942 288 915 q 500 969 422 969 l 767 969 l 571 -207 l 525 -207 l 714 928 l 550 928 l 361 -207 l 315 -207 l 407 342 z "},"©":{"ha":833,"x_min":18,"x_max":856,"o":"m 382 25 q 235 52 301 25 q 120 130 168 79 q 45 252 72 181 q 18 414 18 324 q 53 631 18 533 q 152 799 89 729 q 302 906 215 868 q 492 944 389 944 q 639 917 572 944 q 753 840 706 890 q 828 717 801 789 q 856 556 856 644 q 820 338 856 436 q 722 171 785 240 q 572 63 658 101 q 382 25 485 25 m 383 61 q 537 89 467 61 q 661 165 607 117 q 751 279 715 214 q 800 419 788 344 q 813 506 810 479 q 817 556 817 533 q 795 695 817 631 q 732 807 774 760 q 629 881 690 854 q 490 908 568 908 q 337 881 407 908 q 213 804 267 853 q 122 690 158 756 q 74 550 86 625 q 65 500 68 521 q 60 463 63 479 q 58 436 58 447 q 57 414 57 425 q 78 274 57 339 q 142 163 100 210 q 244 88 183 115 q 383 61 306 61 m 406 256 q 294 301 339 256 q 250 438 250 347 q 266 549 250 499 q 312 637 282 600 q 383 694 342 674 q 474 714 424 714 q 565 688 532 714 q 613 621 599 661 l 576 607 q 540 660 563 642 q 469 678 517 678 q 362 639 407 678 q 301 517 317 600 l 294 476 q 290 429 290 451 q 322 327 290 363 q 407 292 354 292 q 487 313 453 292 q 544 369 521 333 l 574 350 q 506 283 549 310 q 406 256 464 256 z "},"®":{"ha":833,"x_min":218,"x_max":728,"o":"m 449 481 q 357 497 399 481 q 284 541 315 513 q 235 610 253 569 q 218 701 218 651 q 240 818 218 765 q 299 908 261 871 q 387 966 336 946 q 497 986 438 986 q 589 970 547 986 q 662 926 631 954 q 710 856 693 897 q 728 765 728 815 q 706 649 728 701 q 647 558 685 596 q 559 501 610 521 q 449 481 508 481 m 450 508 q 607 560 543 508 q 688 697 671 611 q 694 740 693 726 q 696 765 696 754 q 642 907 696 856 q 496 958 588 958 q 339 907 403 958 q 258 769 275 856 q 251 726 253 740 q 250 701 250 713 q 304 560 250 611 q 450 508 358 508 m 399 607 l 371 607 l 414 864 l 514 864 q 582 803 582 864 q 560 739 582 760 q 507 715 539 718 l 558 607 l 528 607 l 478 713 l 417 713 l 399 607 m 490 736 q 531 747 518 736 q 549 781 544 757 q 551 796 551 792 q 551 804 551 800 q 507 839 551 839 l 438 839 l 421 736 l 490 736 z "},"™":{"ha":833,"x_min":119,"x_max":844,"o":"m 199 593 l 256 938 l 119 938 l 125 969 l 435 969 l 429 938 l 293 938 l 236 593 l 199 593 m 460 593 l 522 969 l 565 969 l 643 746 l 646 746 l 797 969 l 844 969 l 781 593 l 747 593 l 779 779 l 801 917 l 799 917 l 633 679 l 550 917 l 546 917 l 524 779 l 493 593 l 460 593 z "},"ª":{"ha":833,"x_min":257,"x_max":644,"o":"m 549 513 l 560 583 l 556 583 q 496 528 536 553 q 393 504 456 504 q 292 534 326 504 q 257 615 257 564 q 303 722 257 681 q 463 763 349 763 l 590 763 l 601 831 q 603 847 603 839 q 604 861 604 854 q 574 930 604 908 q 490 951 543 951 q 406 932 444 951 q 343 872 368 913 l 315 893 q 385 960 340 935 q 493 986 429 986 q 606 954 567 986 q 644 864 644 922 q 644 848 644 857 q 640 831 643 839 l 589 513 l 549 513 m 458 729 q 345 707 379 729 q 304 649 311 685 q 301 625 301 632 q 300 614 300 618 q 397 539 300 539 q 458 547 428 539 q 511 569 488 554 q 551 605 535 583 q 572 654 567 626 l 585 729 l 458 729 z "},"º":{"ha":833,"x_min":274,"x_max":689,"o":"m 444 504 q 319 553 365 504 q 274 685 274 603 q 291 807 274 751 q 340 902 308 863 q 417 964 372 942 q 518 986 463 986 q 643 937 597 986 q 689 806 689 888 q 672 683 689 739 q 622 588 654 628 q 545 526 590 549 q 444 504 500 504 m 449 540 q 519 553 488 540 q 574 590 550 567 q 612 644 597 613 q 633 710 626 675 l 643 767 q 646 788 646 778 q 646 810 646 799 q 613 910 646 869 q 514 950 581 950 q 444 937 475 950 q 389 901 413 924 q 350 847 365 878 q 329 781 335 815 l 319 724 q 317 702 317 713 q 317 681 317 692 q 349 581 317 621 q 449 540 382 540 z "},"°":{"ha":833,"x_min":263,"x_max":704,"o":"m 458 549 q 378 563 414 549 q 317 602 343 576 q 276 664 290 628 q 263 743 263 700 q 281 840 263 794 q 333 917 300 885 q 411 967 367 949 q 508 986 456 986 q 588 972 551 986 q 650 933 624 958 q 690 871 676 907 q 704 792 704 835 q 685 694 704 739 q 633 618 667 650 q 555 567 600 586 q 458 549 510 549 m 461 590 q 539 606 503 590 q 601 648 575 621 q 643 711 628 675 q 658 790 658 747 q 619 901 658 857 q 506 944 581 944 q 428 929 464 944 q 365 887 392 914 q 324 824 339 860 q 308 744 308 788 q 347 634 308 678 q 461 590 386 590 z "},"*":{"ha":833,"x_min":86,"x_max":790,"o":"m 164 72 l 129 100 l 383 385 l 86 486 l 106 524 l 406 424 l 463 763 l 508 763 l 451 425 l 783 525 l 790 483 l 458 382 l 618 96 l 581 72 l 418 360 l 164 72 z "},"†":{"ha":833,"x_min":158,"x_max":788,"o":"m 289 -278 l 447 676 l 158 676 l 165 717 l 454 717 l 506 1028 l 550 1028 l 499 717 l 788 717 l 781 676 l 492 676 l 333 -278 l 289 -278 z "},"‡":{"ha":833,"x_min":51,"x_max":788,"o":"m 289 -278 l 340 33 l 51 33 l 58 74 l 347 74 l 447 676 l 158 676 l 165 717 l 454 717 l 506 1028 l 550 1028 l 499 717 l 788 717 l 781 676 l 492 676 l 392 74 l 681 74 l 674 33 l 385 33 l 333 -278 l 289 -278 z "},"#":{"ha":833,"x_min":24,"x_max":851,"o":"m 236 325 l 24 325 l 31 365 l 251 365 l 332 604 l 119 604 l 126 644 l 346 644 l 457 969 l 504 969 l 172 0 l 125 0 l 236 325 m 703 969 l 750 969 l 639 644 l 851 644 l 844 604 l 624 604 l 543 365 l 756 365 l 749 325 l 529 325 l 418 0 l 371 0 l 703 969 z "},"^":{"ha":833,"x_min":108,"x_max":765,"o":"m 725 438 l 517 924 l 513 924 l 144 436 l 108 460 l 493 969 l 546 969 l 765 456 l 725 438 z "},"~":{"ha":833,"x_min":88,"x_max":769,"o":"m 582 347 q 551 350 567 347 q 518 359 536 353 q 476 376 500 365 q 422 401 453 386 q 338 442 369 429 q 272 456 306 456 q 192 429 225 456 q 122 347 158 403 l 88 368 q 275 497 164 497 q 339 485 306 497 q 435 443 372 474 q 519 402 488 415 q 585 389 551 389 q 665 415 632 389 q 735 497 699 442 l 769 476 q 582 347 693 347 z "},"+":{"ha":833,"x_min":94,"x_max":761,"o":"m 349 86 l 401 403 l 94 403 l 101 444 l 408 444 l 461 763 l 507 763 l 454 444 l 761 444 l 754 403 l 447 403 l 394 86 l 349 86 z "},"−":{"ha":833,"x_min":94,"x_max":761,"o":"m 94 403 l 101 444 l 761 444 l 754 403 l 94 403 z "},"±":{"ha":833,"x_min":26,"x_max":775,"o":"m 363 172 l 415 485 l 107 485 l 114 528 l 421 528 l 474 842 l 519 842 l 468 528 l 775 528 l 768 485 l 461 485 l 410 172 l 363 172 m 26 0 l 33 42 l 694 42 l 689 0 l 26 0 z "},"×":{"ha":833,"x_min":111,"x_max":744,"o":"m 425 396 l 138 147 l 111 178 l 399 425 l 193 672 l 225 700 l 431 453 l 718 700 l 744 669 l 457 422 l 663 176 l 631 147 l 425 396 z "},"÷":{"ha":833,"x_min":94,"x_max":761,"o":"m 94 403 l 101 444 l 761 444 l 754 403 l 94 403 m 375 101 q 336 112 347 101 q 325 139 325 122 q 326 150 325 144 q 328 163 326 156 q 389 206 338 206 q 428 195 417 206 q 439 168 439 185 q 438 157 439 163 q 436 144 438 151 q 375 101 426 101 m 465 642 q 426 652 438 642 q 415 679 415 663 q 416 690 415 685 q 418 703 417 696 q 479 746 428 746 q 518 735 507 746 q 529 708 529 725 q 528 697 529 703 q 526 685 528 692 q 465 642 517 642 z "},"=":{"ha":833,"x_min":72,"x_max":783,"o":"m 115 531 l 122 572 l 783 572 l 776 531 l 115 531 m 72 276 l 79 318 l 740 318 l 733 276 l 72 276 z "},"≈":{"ha":833,"x_min":68,"x_max":789,"o":"m 601 468 q 571 471 586 468 q 538 480 556 474 q 496 497 519 486 q 442 522 472 507 q 357 563 389 550 q 292 576 325 576 q 211 550 244 576 q 142 468 178 524 l 107 489 q 294 618 183 618 q 358 606 325 618 q 454 564 392 594 q 539 523 507 536 q 604 510 571 510 q 685 536 651 510 q 754 618 718 563 l 789 597 q 601 468 713 468 m 563 228 q 532 231 547 228 q 499 240 517 233 q 457 256 481 246 q 403 282 433 267 q 318 323 350 310 q 253 336 286 336 q 172 310 206 336 q 103 228 139 283 l 68 249 q 256 378 144 378 q 319 366 286 378 q 415 324 353 354 q 500 283 468 296 q 565 269 532 269 q 646 296 613 269 q 715 378 679 322 l 750 357 q 563 228 674 228 z "},"≠":{"ha":833,"x_min":72,"x_max":783,"o":"m 172 122 l 290 276 l 72 276 l 79 318 l 322 318 l 486 531 l 115 531 l 122 572 l 517 572 l 635 728 l 683 728 l 565 572 l 783 572 l 776 531 l 533 531 l 369 318 l 740 318 l 733 276 l 339 276 l 221 122 l 172 122 z "},"<":{"ha":833,"x_min":125,"x_max":788,"o":"m 125 401 l 133 446 l 788 801 l 779 747 l 178 424 l 178 419 l 671 94 l 663 47 l 125 401 z "},">":{"ha":833,"x_min":67,"x_max":729,"o":"m 76 101 l 676 425 l 678 429 l 185 754 l 193 801 l 729 446 l 722 403 l 67 47 l 76 101 z "},"≤":{"ha":833,"x_min":58,"x_max":793,"o":"m 58 0 l 65 42 l 663 42 l 656 0 l 58 0 m 783 771 l 188 483 l 188 478 l 688 189 l 679 143 l 136 460 l 144 506 l 793 822 l 783 771 z "},"≥":{"ha":833,"x_min":60,"x_max":742,"o":"m 93 194 l 689 482 l 690 488 l 190 776 l 199 822 l 742 506 l 733 460 l 85 143 l 93 194 m 67 42 l 663 42 l 656 0 l 60 0 l 67 42 z "},"·":{"ha":833,"x_min":367,"x_max":488,"o":"m 418 367 q 367 406 367 367 q 367 417 367 411 q 369 431 368 424 q 436 478 378 478 q 488 439 488 478 q 487 427 488 433 q 485 414 486 421 q 418 367 476 367 z "},"•":{"ha":833,"x_min":293,"x_max":563,"o":"m 407 293 q 319 318 344 293 q 293 382 293 343 q 294 399 293 389 q 300 438 294 410 q 342 520 308 488 q 449 553 376 553 q 537 528 511 553 q 563 464 563 503 q 562 447 563 457 q 556 408 561 436 q 513 326 547 358 q 407 293 479 293 z "},"◊":{"ha":833,"x_min":97,"x_max":781,"o":"m 333 0 l 97 485 l 494 969 l 544 969 l 781 485 l 383 0 l 333 0 m 367 44 l 731 489 l 518 925 l 511 925 l 147 481 l 360 44 l 367 44 z "},"¬":{"ha":833,"x_min":94,"x_max":740,"o":"m 644 136 l 689 403 l 94 403 l 101 444 l 740 444 l 689 136 l 644 136 z "},"√":{"ha":833,"x_min":89,"x_max":857,"o":"m 331 0 l 251 676 l 89 676 l 96 717 l 292 717 l 368 50 l 374 50 l 807 969 l 857 969 l 396 0 l 331 0 z "},"∫":{"ha":833,"x_min":-29,"x_max":860,"o":"m 272 -294 q 238 -281 254 -294 q 190 -237 221 -268 l -29 -36 l 3 -6 l 268 -250 l 281 -247 l 481 958 q 558 1028 492 1028 l 860 1028 l 853 986 l 533 986 l 332 -224 q 313 -275 326 -256 q 272 -294 300 -294 z "},"∞":{"ha":833,"x_min":17,"x_max":838,"o":"m 178 175 q 60 222 103 175 q 17 361 17 269 q 33 486 17 429 q 79 585 49 543 q 153 649 110 626 q 254 672 197 672 q 378 617 329 672 q 438 464 428 561 l 443 464 q 544 618 482 564 q 676 672 607 672 q 794 625 751 672 q 838 486 838 578 q 822 361 838 418 q 775 263 806 304 q 701 198 744 221 q 601 175 657 175 q 477 231 526 175 q 417 383 428 286 l 411 383 q 311 229 374 283 q 178 175 249 175 m 185 215 q 304 267 247 215 q 406 422 361 319 q 356 581 394 531 q 251 632 318 632 q 137 588 185 632 q 74 456 89 544 q 65 393 67 415 q 63 357 63 371 q 94 251 63 286 q 185 215 126 215 m 603 215 q 717 259 669 215 q 781 392 765 303 q 790 454 788 432 q 793 490 793 476 q 760 597 793 561 q 669 632 728 632 q 551 580 607 632 q 450 426 494 528 q 499 267 461 318 q 603 215 538 215 z "},"℮":{"ha":833,"x_min":36,"x_max":797,"o":"m 122 249 q 167 157 139 199 q 233 85 196 115 q 317 37 271 54 q 417 19 363 19 q 519 34 474 19 q 602 75 565 49 q 668 138 639 101 q 721 218 697 174 l 756 200 q 699 116 731 156 q 625 47 667 76 q 532 1 583 18 q 417 -17 481 -17 q 260 22 331 -17 q 140 126 190 60 q 63 285 90 193 q 36 485 36 376 q 63 685 36 593 q 140 843 90 776 q 260 948 190 910 q 417 986 331 986 q 573 948 503 986 q 693 843 643 910 q 770 685 743 776 q 797 485 797 593 l 122 485 l 122 249 m 711 519 l 711 722 q 665 814 693 772 q 600 885 638 856 q 517 933 563 915 q 417 950 471 950 q 317 933 363 950 q 233 885 271 915 q 168 814 196 856 q 122 722 140 772 l 122 519 l 711 519 z "},"ℓ":{"ha":833,"x_min":132,"x_max":681,"o":"m 438 -17 q 292 49 336 -17 q 249 226 249 115 l 249 272 q 201 238 225 253 q 154 207 178 222 l 132 242 q 191 278 161 258 q 249 324 221 299 l 249 789 q 292 983 249 921 q 417 1044 335 1044 q 535 992 494 1044 q 575 840 575 940 q 554 693 575 767 q 497 550 533 619 q 408 417 460 481 q 296 300 357 354 l 296 232 q 330 76 296 126 q 439 25 364 25 q 506 38 476 25 q 560 71 536 50 q 605 120 585 92 q 643 182 625 149 l 681 161 q 642 96 664 128 q 590 39 619 64 q 523 -1 561 14 q 438 -17 485 -17 m 417 1003 q 367 992 389 1003 q 329 957 344 982 q 305 892 314 932 q 296 792 296 851 l 296 354 q 389 463 346 404 q 463 582 432 521 q 512 707 494 643 q 529 833 529 771 l 529 851 q 499 967 529 931 q 417 1003 468 1003 z "},"№":{"ha":833,"x_min":22,"x_max":888,"o":"m 699 501 q 585 642 585 501 q 588 688 585 663 q 594 740 590 713 q 656 920 614 863 q 774 978 699 978 q 888 838 888 978 q 885 792 888 817 q 878 739 882 767 q 816 559 858 617 q 699 501 774 501 m 22 0 l 183 969 l 261 969 l 356 58 l 360 58 l 511 969 l 556 969 l 394 0 l 317 0 l 222 911 l 218 911 l 67 0 l 22 0 m 701 538 q 785 581 756 538 q 826 696 815 625 l 839 768 q 846 813 844 794 q 847 842 847 831 q 830 916 847 890 q 771 942 813 942 q 687 898 717 942 q 646 783 657 854 l 633 711 q 626 667 628 685 q 625 638 625 649 q 642 563 625 589 q 701 538 660 538 m 546 399 l 551 436 l 822 436 l 817 399 l 546 399 z "},"∂":{"ha":833,"x_min":101,"x_max":718,"o":"m 356 -17 q 169 56 238 -17 q 101 256 101 129 q 127 438 101 356 q 199 580 153 521 q 309 672 246 639 q 447 704 372 704 q 577 672 521 704 q 661 581 633 639 l 665 583 q 622 702 653 646 q 547 807 592 758 q 447 897 503 856 q 329 969 392 938 l 408 969 q 515 895 460 939 q 615 790 569 851 q 689 648 660 729 q 718 463 718 567 q 691 258 718 347 q 616 107 664 168 q 501 15 568 46 q 356 -17 435 -17 m 360 26 q 549 97 469 26 q 651 297 629 167 l 663 363 q 667 403 667 385 q 668 439 668 422 q 610 603 668 544 q 457 661 553 661 q 267 591 347 661 q 165 390 188 521 l 154 325 q 149 284 150 303 q 149 249 149 265 q 206 85 149 143 q 360 26 264 26 z "},"¢":{"ha":833,"x_min":113,"x_max":694,"o":"m 318 -14 q 164 83 215 3 q 113 281 113 164 q 138 465 113 383 q 206 604 163 546 q 310 695 250 663 q 443 733 371 728 l 467 875 l 508 875 l 485 732 q 623 683 568 728 q 694 571 678 639 l 653 557 q 588 655 635 622 q 476 690 542 688 l 367 25 l 378 25 q 518 75 457 26 q 639 215 579 124 l 676 196 q 547 43 618 100 q 375 -17 476 -14 l 360 -17 l 336 -158 l 294 -158 l 318 -14 m 160 274 q 200 111 160 179 q 326 28 240 43 l 436 689 q 266 608 335 681 q 178 417 197 536 l 165 344 q 161 308 163 322 q 160 274 160 293 z "},"€":{"ha":833,"x_min":135,"x_max":796,"o":"m 404 -17 q 207 63 279 -17 q 135 311 135 143 q 160 559 135 438 q 235 776 185 681 q 364 928 286 871 q 547 986 442 986 q 644 972 603 986 q 715 930 686 957 q 764 866 744 903 q 796 785 783 829 l 750 771 q 723 841 739 810 q 683 894 707 872 q 624 929 658 917 q 543 942 590 942 q 347 855 431 942 q 224 608 263 768 l 557 608 l 550 567 l 215 567 q 213 556 214 561 q 211 544 213 551 q 208 527 210 539 q 203 502 206 515 q 199 475 201 489 q 196 451 197 461 q 192 424 193 438 q 189 397 190 410 l 521 397 l 514 356 l 185 356 l 185 308 q 240 101 185 174 q 407 28 294 28 q 556 74 496 28 q 668 211 615 121 l 710 190 q 647 99 679 138 q 579 34 615 60 q 500 -4 543 8 q 404 -17 457 -17 z "},"ƒ":{"ha":833,"x_min":-76,"x_max":881,"o":"m 211 -294 q 176 -283 192 -294 q 133 -244 160 -271 l -76 -36 l -44 -6 l 206 -251 l 217 -247 l 419 540 l 164 540 l 172 583 l 431 583 l 511 900 q 539 952 519 935 q 597 969 558 969 l 881 969 l 872 928 l 568 928 l 479 583 l 782 583 l 774 540 l 468 540 l 271 -228 q 249 -278 263 -261 q 211 -294 236 -294 z "},"£":{"ha":833,"x_min":54,"x_max":768,"o":"m 686 -17 q 644 -12 668 -17 q 579 1 619 -7 l 117 82 l 103 0 l 54 0 l 71 107 q 142 147 110 125 q 197 199 174 168 q 233 270 219 229 q 246 368 246 311 q 244 411 246 390 q 239 451 242 432 l 94 451 l 101 494 l 231 494 q 213 585 222 542 q 204 678 204 629 q 226 806 204 749 q 288 903 249 864 q 383 965 328 943 q 503 986 438 986 q 669 940 603 986 q 768 814 736 894 l 724 794 q 500 942 664 942 q 321 872 388 942 q 254 675 254 803 q 263 583 254 626 q 281 494 272 540 l 567 494 l 560 451 l 289 451 q 294 411 292 432 q 296 369 296 390 q 287 293 296 331 q 259 224 278 256 q 211 165 240 192 q 140 124 182 139 l 140 118 l 682 26 l 692 35 l 653 271 l 692 281 l 715 158 q 731 82 726 111 q 736 36 736 53 q 723 -1 736 15 q 686 -17 710 -17 z "},"$":{"ha":833,"x_min":47,"x_max":792,"o":"m 328 -15 q 153 36 219 -7 q 47 144 88 79 l 85 174 q 181 74 125 111 q 335 29 238 36 l 410 479 l 368 489 q 213 569 263 513 q 163 715 163 625 q 185 831 163 781 q 250 916 208 882 q 350 968 292 950 q 479 986 408 986 l 494 986 l 518 1126 l 558 1126 l 535 985 q 698 940 639 976 q 792 844 757 903 l 753 818 q 665 906 717 876 q 528 940 613 935 l 457 515 l 503 506 q 662 424 611 481 q 713 278 713 367 q 689 153 713 208 q 622 61 665 99 q 519 3 579 24 q 383 -17 458 -17 l 368 -17 l 344 -157 l 304 -157 l 328 -15 m 214 717 q 256 597 214 639 q 386 532 297 554 l 418 525 l 488 942 l 474 942 q 284 883 354 939 q 214 717 214 826 m 660 275 q 619 395 660 351 q 483 461 578 439 l 449 469 l 375 28 l 389 28 q 588 94 515 31 q 660 275 660 158 z "},"¥":{"ha":833,"x_min":61,"x_max":897,"o":"m 68 43 l 339 43 l 397 396 l 126 396 l 133 439 l 378 439 l 139 969 l 192 969 l 425 443 l 429 443 l 839 969 l 897 969 l 481 439 l 725 439 l 718 396 l 447 396 l 389 43 l 660 43 l 653 0 l 61 0 l 68 43 z "},"฿":{"ha":833,"x_min":78,"x_max":753,"o":"m 336 -157 l 294 -157 l 321 0 l 78 0 l 239 969 l 482 969 l 508 1126 l 550 1126 l 524 969 l 533 969 q 697 915 642 969 q 753 760 753 860 q 708 592 753 664 q 572 497 664 521 l 572 493 q 679 428 643 478 q 715 301 715 378 q 639 80 715 160 q 424 0 563 0 l 363 0 l 336 -157 m 407 515 l 475 925 l 282 925 l 214 515 l 407 515 m 703 769 q 661 883 703 840 q 529 925 619 925 l 515 925 l 449 515 l 481 515 q 628 565 575 517 q 693 686 682 613 l 700 729 q 703 752 703 744 q 703 769 703 760 m 328 44 l 399 472 l 207 472 l 135 44 l 328 44 m 664 310 q 622 425 664 378 q 490 472 579 472 l 440 472 l 369 44 l 422 44 q 582 92 524 44 q 653 217 640 139 l 661 265 q 664 288 664 278 q 664 310 664 299 z "},"₡":{"ha":833,"x_min":121,"x_max":783,"o":"m 143 -157 l 203 54 q 142 158 163 94 q 121 311 121 222 q 142 540 121 428 q 206 744 163 653 q 314 899 249 836 q 468 979 379 963 l 511 1126 l 551 1126 l 511 985 q 523 986 518 986 q 532 986 528 986 q 640 967 594 986 l 686 1126 l 728 1126 l 678 949 q 744 880 718 922 q 783 785 769 838 l 739 771 q 708 845 726 813 q 663 900 690 878 l 413 29 q 551 81 494 33 q 658 221 608 129 l 700 200 q 638 106 669 146 q 571 40 607 67 q 493 -1 535 13 q 400 -17 451 -15 l 361 -157 l 319 -157 l 360 -15 q 293 -2 324 -12 q 238 28 263 8 l 185 -157 l 143 -157 m 529 943 q 513 943 522 943 q 499 942 504 943 l 250 75 q 372 28 300 32 l 629 922 q 529 943 588 943 m 171 304 q 219 111 171 179 l 456 932 q 292 806 360 904 q 197 547 224 707 l 182 451 q 173 374 175 411 q 171 304 171 338 z "},"₤":{"ha":833,"x_min":54,"x_max":768,"o":"m 688 -17 q 644 -12 668 -17 q 579 1 621 -7 l 117 82 l 103 0 l 54 0 l 71 107 q 138 144 107 124 q 191 192 168 164 q 228 256 214 219 q 244 343 242 293 l 72 343 l 79 385 l 244 385 q 235 470 243 429 q 219 550 228 511 l 97 550 l 104 592 l 213 592 q 204 676 204 631 q 226 806 204 749 q 288 903 249 863 q 382 965 328 943 q 501 986 436 986 q 669 941 601 986 q 768 814 736 896 l 724 794 q 500 942 664 942 q 321 873 388 942 q 254 675 254 804 q 257 632 254 653 q 263 592 260 611 l 572 592 l 565 550 l 269 550 q 285 470 278 511 q 294 385 293 429 l 546 385 l 539 343 l 293 343 q 253 213 289 272 q 140 124 217 153 l 140 118 l 682 26 l 692 35 l 653 271 l 692 281 l 715 158 q 731 82 726 111 q 736 36 736 53 q 724 -1 736 15 q 688 -17 711 -17 z "},"₦":{"ha":833,"x_min":40,"x_max":838,"o":"m 451 364 l 182 364 l 122 0 l 76 0 l 136 364 l 40 364 l 47 403 l 143 403 l 171 568 l 75 568 l 82 607 l 178 607 l 238 969 l 313 969 l 426 607 l 696 607 l 756 969 l 801 969 l 742 607 l 838 607 l 831 568 l 735 568 l 707 403 l 803 403 l 796 364 l 700 364 l 640 0 l 565 0 l 451 364 m 390 568 l 215 568 l 188 403 l 442 403 l 390 568 m 488 403 l 663 403 l 690 568 l 436 568 l 488 403 m 603 51 l 656 364 l 500 364 l 597 51 l 603 51 m 222 607 l 378 607 l 281 918 l 275 918 l 222 607 z "},"₨":{"ha":833,"x_min":35,"x_max":836,"o":"m 592 -17 q 462 19 508 -17 q 388 133 415 54 l 278 458 l 239 458 l 161 458 l 85 0 l 35 0 l 196 969 l 329 969 q 482 917 436 969 q 528 781 528 865 q 518 673 528 725 q 485 578 508 621 q 422 507 461 536 q 326 467 383 478 l 431 156 q 491 56 454 85 q 593 26 528 26 q 689 59 651 26 q 726 154 726 92 q 708 222 726 193 q 663 283 690 251 l 622 332 q 567 413 586 376 q 549 499 549 450 q 559 558 549 529 q 590 610 569 588 q 642 645 611 632 q 713 658 672 658 q 782 646 750 658 q 836 610 814 633 l 807 576 q 766 606 790 596 q 711 617 742 617 q 628 583 660 617 q 596 500 596 550 q 612 430 596 460 q 658 363 628 400 l 699 315 q 754 237 733 271 q 775 156 775 203 q 727 32 775 81 q 592 -17 679 -17 m 251 501 q 397 543 343 501 q 464 674 450 585 l 475 739 q 478 763 478 750 q 479 786 479 775 q 441 889 479 853 q 324 925 403 925 l 239 925 l 168 501 l 251 501 z "},"₩":{"ha":833,"x_min":53,"x_max":822,"o":"m 188 0 l 107 0 l 149 357 l 53 357 l 60 396 l 153 396 l 172 565 l 88 565 l 94 604 l 178 604 l 221 969 l 265 969 l 222 604 l 694 604 l 772 969 l 817 969 l 739 604 l 822 604 l 815 565 l 731 565 l 693 396 l 788 396 l 781 357 l 685 357 l 608 0 l 526 0 l 482 357 l 353 357 l 188 0 m 497 565 l 519 396 l 651 396 l 688 565 l 497 565 m 197 396 l 326 396 l 406 565 l 217 565 l 197 396 m 576 47 l 643 357 l 525 357 l 567 47 l 576 47 m 164 47 l 308 357 l 192 357 l 156 47 l 164 47 m 457 565 l 449 565 l 371 396 l 478 396 l 457 565 z "},"₪":{"ha":833,"x_min":54,"x_max":828,"o":"m 372 788 l 421 788 l 297 42 l 474 42 q 597 87 553 42 q 656 218 640 132 l 781 969 l 828 969 l 704 221 q 629 57 686 114 q 468 0 572 0 l 242 0 l 372 788 m 214 969 l 432 969 q 608 803 608 969 q 607 774 608 790 q 603 743 606 758 l 510 182 l 461 182 l 556 751 q 560 778 558 765 q 561 804 561 792 q 530 897 561 865 q 428 928 499 928 l 256 928 l 101 0 l 54 0 l 214 969 z "},"₫":{"ha":833,"x_min":54,"x_max":843,"o":"m 590 285 l 586 285 q 549 235 571 260 q 499 190 528 210 q 434 158 469 169 q 356 146 399 146 q 187 210 247 146 q 126 386 126 274 q 149 548 126 478 q 213 667 172 618 q 310 740 254 715 q 432 765 365 765 q 515 753 479 765 q 578 722 551 742 q 621 678 604 703 q 644 629 638 654 l 649 629 l 690 888 l 465 888 l 474 928 l 699 928 l 714 1028 l 761 1028 l 744 928 l 843 928 l 836 888 l 738 888 l 617 163 l 569 163 l 590 285 m 367 188 q 450 203 410 188 q 523 245 490 218 q 578 309 556 272 q 608 390 600 346 l 633 546 q 628 613 639 581 q 592 671 618 646 q 526 710 565 696 q 435 725 486 725 q 272 669 339 725 q 190 506 206 613 q 182 454 185 475 q 177 420 179 433 q 174 399 175 407 q 174 383 174 390 q 224 240 174 292 q 367 188 274 188 m 54 0 l 61 43 l 644 43 l 638 0 l 54 0 z "},"₭":{"ha":833,"x_min":63,"x_max":833,"o":"m 156 0 l 106 0 l 186 488 l 63 488 l 69 531 l 193 531 l 267 969 l 317 969 l 244 531 l 349 531 l 774 969 l 833 969 l 411 531 l 750 531 l 743 488 l 401 488 l 692 0 l 636 0 l 346 488 l 238 488 l 156 0 z "},"₮":{"ha":833,"x_min":146,"x_max":883,"o":"m 439 338 l 382 0 l 332 0 l 385 315 l 157 213 l 164 258 l 392 361 l 421 526 l 192 425 l 199 471 l 428 572 l 486 925 l 146 925 l 153 969 l 883 969 l 876 925 l 536 925 l 482 594 l 710 697 l 703 651 l 474 549 l 447 383 l 674 486 l 667 440 l 439 338 z "},"₱":{"ha":833,"x_min":103,"x_max":856,"o":"m 190 528 l 108 528 l 115 569 l 197 569 l 225 736 l 142 736 l 149 778 l 232 778 l 264 969 l 525 969 q 683 917 624 969 q 757 778 742 865 l 856 778 l 849 736 l 760 736 l 760 711 q 755 640 760 678 q 740 569 750 601 l 822 569 l 815 528 l 728 528 q 624 388 693 436 q 454 339 554 339 l 210 339 l 153 0 l 103 0 l 190 528 m 708 776 q 651 883 697 842 q 521 925 606 925 l 307 925 l 282 776 l 708 776 m 689 569 q 705 656 700 618 q 711 718 710 694 q 711 726 711 721 q 710 736 711 731 l 275 736 l 249 569 l 689 569 m 457 383 q 599 422 544 383 q 679 529 654 460 l 240 529 l 217 383 l 457 383 z "},"₲":{"ha":833,"x_min":118,"x_max":779,"o":"m 258 8 q 155 115 192 40 q 118 311 118 189 q 142 559 118 438 q 214 776 165 681 q 339 928 263 871 q 522 986 415 986 q 563 983 543 986 q 599 976 582 981 l 651 1126 l 694 1126 l 638 965 q 728 894 694 940 q 779 785 763 847 l 735 771 q 692 863 719 824 q 621 921 665 901 l 454 447 l 728 447 l 707 329 q 592 67 676 150 q 383 -17 508 -17 q 338 -14 360 -17 q 297 -4 317 -11 l 243 -157 l 201 -157 l 258 8 m 167 307 q 275 53 167 113 l 585 933 q 517 942 553 942 q 307 838 389 942 q 193 547 225 735 l 178 453 q 169 376 171 413 q 167 307 167 339 m 311 38 q 347 28 328 31 q 389 26 367 26 q 561 97 492 26 q 658 325 631 168 l 672 404 l 440 404 l 311 38 z "},"₴":{"ha":833,"x_min":63,"x_max":825,"o":"m 400 -17 q 210 43 279 -17 q 142 204 142 103 q 165 303 142 263 q 215 369 188 343 l 63 369 l 69 411 l 250 411 l 558 583 l 558 588 l 99 588 l 106 629 l 621 629 q 670 698 657 661 q 683 771 683 735 q 633 897 683 853 q 492 942 583 942 q 375 920 433 942 q 258 846 317 899 l 229 881 q 360 963 292 939 q 494 986 429 986 q 669 930 606 986 q 733 778 733 874 q 676 629 733 686 l 825 629 l 818 588 l 640 588 l 332 415 l 331 411 l 789 411 l 782 369 l 271 369 q 213 298 235 338 q 190 207 190 258 q 247 75 190 122 q 403 28 303 28 q 527 53 464 28 q 658 142 590 79 l 688 108 q 545 13 619 42 q 400 -17 471 -17 z "},"₵":{"ha":833,"x_min":121,"x_max":782,"o":"m 264 10 q 158 117 196 43 q 121 311 121 192 q 146 559 121 438 q 222 776 171 681 q 350 928 272 871 q 533 986 428 986 q 563 985 549 986 q 590 981 578 983 l 640 1126 l 683 1126 l 631 971 q 728 900 693 949 q 782 785 764 851 l 738 771 q 694 869 722 829 q 615 928 665 908 l 315 39 q 393 28 347 28 q 546 76 485 28 q 660 221 607 125 l 700 200 q 568 37 639 90 q 390 -17 497 -17 q 300 -4 342 -17 l 249 -157 l 207 -157 l 264 10 m 169 304 q 198 147 169 210 q 279 54 226 85 l 576 939 q 529 943 556 943 q 316 840 404 943 q 196 547 228 736 l 181 451 q 172 374 174 411 q 169 304 169 338 z "},"₸":{"ha":833,"x_min":119,"x_max":875,"o":"m 154 926 l 161 969 l 875 969 l 868 926 l 154 926 m 501 715 l 382 0 l 332 0 l 451 715 l 119 715 l 126 758 l 840 758 l 833 715 l 501 715 z "},"₹":{"ha":833,"x_min":107,"x_max":867,"o":"m 561 0 l 304 438 l 107 438 l 114 481 l 382 481 q 548 538 490 481 q 614 694 606 596 l 150 694 l 157 738 l 617 738 q 608 804 617 771 q 578 865 599 838 q 522 909 557 892 q 438 926 488 926 l 188 926 l 196 969 l 867 969 l 858 926 l 564 926 l 563 922 q 637 850 610 899 q 665 738 664 801 l 828 738 l 819 694 l 664 694 q 640 594 660 640 q 588 513 621 547 q 506 459 554 479 q 396 438 458 439 l 360 438 l 621 0 l 561 0 z "},"₺":{"ha":833,"x_min":56,"x_max":744,"o":"m 239 401 l 56 319 l 61 365 l 247 447 l 275 613 l 90 531 l 97 576 l 282 658 l 333 969 l 385 969 l 336 681 l 639 817 l 632 771 l 329 635 l 301 469 l 603 604 l 597 558 l 293 424 l 231 44 l 363 44 q 489 72 433 44 q 586 149 544 99 q 655 269 628 199 q 694 424 682 339 l 744 424 q 699 251 729 329 q 621 118 668 174 q 508 31 574 63 q 360 0 443 0 l 172 0 l 239 401 z "},"₽":{"ha":833,"x_min":43,"x_max":838,"o":"m 232 228 l 194 0 l 144 0 l 182 228 l 43 228 l 50 271 l 189 271 l 218 439 l 79 439 l 86 482 l 224 482 l 306 969 l 615 969 q 780 909 722 969 q 838 754 838 849 q 764 524 838 610 q 549 439 690 439 l 268 439 l 239 271 l 575 271 l 568 228 l 232 228 m 275 482 l 551 482 q 707 533 651 482 q 775 665 763 583 l 783 717 q 786 738 786 728 q 786 757 786 747 q 776 822 786 792 q 744 876 765 853 q 689 912 722 899 q 611 925 656 925 l 349 925 l 275 482 z "},"₿":{"ha":833,"x_min":78,"x_max":747,"o":"m 382 0 l 257 0 l 231 -157 l 189 -157 l 215 0 l 78 0 l 239 969 l 376 969 l 403 1126 l 444 1126 l 418 969 l 543 969 l 569 1126 l 611 1126 l 585 965 q 706 899 664 951 q 747 758 747 846 q 703 593 747 664 q 571 499 660 522 l 571 494 q 677 429 640 479 q 714 301 714 379 q 640 83 714 163 q 424 0 567 3 l 397 -157 l 356 -157 l 382 0 m 214 515 l 476 515 q 623 564 569 515 q 688 686 676 613 l 694 729 q 697 752 697 744 q 697 769 697 760 q 656 883 697 840 q 525 925 615 925 l 282 925 l 214 515 m 135 44 l 422 44 q 581 92 522 44 q 651 217 639 139 l 660 265 q 664 310 664 290 q 622 425 664 378 q 489 472 579 472 l 206 472 l 135 44 z "},"ﬁ":{"ha":833,"x_min":114,"x_max":799,"o":"m 236 675 l 114 675 l 121 717 l 243 717 l 282 958 q 305 1010 288 992 q 358 1028 322 1028 l 582 1028 l 575 986 l 335 986 l 290 717 l 725 717 l 606 0 l 558 0 l 671 675 l 283 675 l 171 0 l 124 0 l 236 675 m 742 940 q 704 950 714 940 q 694 972 694 960 q 699 997 694 981 q 715 1026 703 1015 q 751 1036 728 1036 q 789 1026 779 1036 q 799 1004 799 1017 q 794 979 799 996 q 778 951 790 961 q 742 940 765 940 z "},"ﬂ":{"ha":833,"x_min":114,"x_max":776,"o":"m 236 675 l 114 675 l 121 717 l 243 717 l 282 958 q 305 1010 288 992 q 358 1028 322 1028 l 604 1028 l 597 986 l 335 986 l 290 717 l 553 717 l 546 675 l 283 675 l 171 0 l 124 0 l 236 675 m 729 1028 l 776 1028 l 606 0 l 558 0 l 729 1028 z "},"á":{"ha":833,"x_min":93,"x_max":731,"o":"m 564 0 l 590 163 l 586 163 q 485 33 546 82 q 331 -17 425 -17 q 228 3 272 -17 q 153 60 183 24 q 108 147 124 96 q 93 258 93 197 q 115 440 93 354 q 181 592 138 526 q 287 695 224 657 q 431 733 350 733 q 579 694 522 733 q 657 589 636 654 l 663 589 l 683 717 l 731 717 l 611 0 l 564 0 m 339 26 q 424 41 385 26 q 500 89 464 56 q 569 176 538 124 q 613 293 601 228 l 646 490 q 642 563 651 526 q 608 627 633 599 q 540 673 583 656 q 438 690 497 690 q 333 668 381 690 q 251 607 286 646 q 192 515 215 568 q 158 401 168 463 l 146 325 q 140 257 140 293 q 152 167 140 208 q 188 94 164 125 q 249 44 211 63 q 339 26 286 26 m 449 825 l 418 846 l 600 1063 l 642 1036 l 449 825 z "},"ă":{"ha":833,"x_min":93,"x_max":731,"o":"m 564 0 l 590 163 l 586 163 q 485 33 546 82 q 331 -17 425 -17 q 228 3 272 -17 q 153 60 183 24 q 108 147 124 96 q 93 258 93 197 q 115 440 93 354 q 181 592 138 526 q 287 695 224 657 q 431 733 350 733 q 579 694 522 733 q 657 589 636 654 l 663 589 l 683 717 l 731 717 l 611 0 l 564 0 m 339 26 q 424 41 385 26 q 500 89 464 56 q 569 176 538 124 q 613 293 601 228 l 646 490 q 642 563 651 526 q 608 627 633 599 q 540 673 583 656 q 438 690 497 690 q 333 668 381 690 q 251 607 286 646 q 192 515 215 568 q 158 401 168 463 l 146 325 q 140 257 140 293 q 152 167 140 208 q 188 94 164 125 q 249 44 211 63 q 339 26 286 26 m 469 843 q 401 857 428 843 q 355 895 374 871 q 323 953 336 919 q 299 1029 310 988 l 331 1044 l 356 981 q 403 906 379 928 q 471 885 426 885 q 545 906 514 885 q 618 981 576 926 l 664 1044 l 697 1029 q 649 953 672 988 q 599 895 625 919 q 542 857 574 871 q 469 843 511 843 z "},"â":{"ha":833,"x_min":93,"x_max":731,"o":"m 564 0 l 590 163 l 586 163 q 485 33 546 82 q 331 -17 425 -17 q 228 3 272 -17 q 153 60 183 24 q 108 147 124 96 q 93 258 93 197 q 115 440 93 354 q 181 592 138 526 q 287 695 224 657 q 431 733 350 733 q 579 694 522 733 q 657 589 636 654 l 663 589 l 683 717 l 731 717 l 611 0 l 564 0 m 339 26 q 424 41 385 26 q 500 89 464 56 q 569 176 538 124 q 613 293 601 228 l 646 490 q 642 563 651 526 q 608 627 633 599 q 540 673 583 656 q 438 690 497 690 q 333 668 381 690 q 251 607 286 646 q 192 515 215 568 q 158 401 168 463 l 146 325 q 140 257 140 293 q 152 167 140 208 q 188 94 164 125 q 249 44 211 63 q 339 26 286 26 m 531 1050 l 671 860 l 640 840 l 499 1013 l 296 840 l 269 864 l 472 1050 l 531 1050 z "},"ä":{"ha":833,"x_min":93,"x_max":731,"o":"m 564 0 l 590 163 l 586 163 q 485 33 546 82 q 331 -17 425 -17 q 228 3 272 -17 q 153 60 183 24 q 108 147 124 96 q 93 258 93 197 q 115 440 93 354 q 181 592 138 526 q 287 695 224 657 q 431 733 350 733 q 579 694 522 733 q 657 589 636 654 l 663 589 l 683 717 l 731 717 l 611 0 l 564 0 m 339 26 q 424 41 385 26 q 500 89 464 56 q 569 176 538 124 q 613 293 601 228 l 646 490 q 642 563 651 526 q 608 627 633 599 q 540 673 583 656 q 438 690 497 690 q 333 668 381 690 q 251 607 286 646 q 192 515 215 568 q 158 401 168 463 l 146 325 q 140 257 140 293 q 152 167 140 208 q 188 94 164 125 q 249 44 211 63 q 339 26 286 26 m 351 892 q 317 901 326 892 q 307 922 307 911 q 308 933 307 928 q 310 946 308 939 q 361 983 317 983 q 396 974 386 983 q 406 953 406 964 q 405 942 406 947 q 403 929 404 936 q 351 892 396 892 m 604 892 q 569 901 579 892 q 560 922 560 911 q 560 933 560 928 q 563 946 561 939 q 614 983 569 983 q 649 974 639 983 q 658 953 658 964 q 658 942 658 947 q 656 929 657 936 q 604 892 649 892 z "},"ạ":{"ha":833,"x_min":93,"x_max":731,"o":"m 564 0 l 590 163 l 586 163 q 485 33 546 82 q 331 -17 425 -17 q 228 3 272 -17 q 153 60 183 24 q 108 147 124 96 q 93 258 93 197 q 115 440 93 354 q 181 592 138 526 q 287 695 224 657 q 431 733 350 733 q 579 694 522 733 q 657 589 636 654 l 663 589 l 683 717 l 731 717 l 611 0 l 564 0 m 339 26 q 424 41 385 26 q 500 89 464 56 q 569 176 538 124 q 613 293 601 228 l 646 490 q 642 563 651 526 q 608 627 633 599 q 540 673 583 656 q 438 690 497 690 q 333 668 381 690 q 251 607 286 646 q 192 515 215 568 q 158 401 168 463 l 146 325 q 140 257 140 293 q 152 167 140 208 q 188 94 164 125 q 249 44 211 63 q 339 26 286 26 m 299 -201 q 264 -192 274 -201 q 254 -171 254 -182 q 255 -160 254 -165 q 257 -147 256 -154 q 308 -110 264 -110 q 343 -119 333 -110 q 353 -140 353 -129 q 352 -151 353 -146 q 350 -164 351 -157 q 299 -201 343 -201 z "},"à":{"ha":833,"x_min":93,"x_max":731,"o":"m 564 0 l 590 163 l 586 163 q 485 33 546 82 q 331 -17 425 -17 q 228 3 272 -17 q 153 60 183 24 q 108 147 124 96 q 93 258 93 197 q 115 440 93 354 q 181 592 138 526 q 287 695 224 657 q 431 733 350 733 q 579 694 522 733 q 657 589 636 654 l 663 589 l 683 717 l 731 717 l 611 0 l 564 0 m 339 26 q 424 41 385 26 q 500 89 464 56 q 569 176 538 124 q 613 293 601 228 l 646 490 q 642 563 651 526 q 608 627 633 599 q 540 673 583 656 q 438 690 497 690 q 333 668 381 690 q 251 607 286 646 q 192 515 215 568 q 158 401 168 463 l 146 325 q 140 257 140 293 q 152 167 140 208 q 188 94 164 125 q 249 44 211 63 q 339 26 286 26 m 361 1042 l 407 1063 l 514 842 l 481 825 l 361 1042 z "},"ả":{"ha":833,"x_min":93,"x_max":731,"o":"m 564 0 l 590 163 l 586 163 q 485 33 546 82 q 331 -17 425 -17 q 228 3 272 -17 q 153 60 183 24 q 108 147 124 96 q 93 258 93 197 q 115 440 93 354 q 181 592 138 526 q 287 695 224 657 q 431 733 350 733 q 579 694 522 733 q 657 589 636 654 l 663 589 l 683 717 l 731 717 l 611 0 l 564 0 m 339 26 q 424 41 385 26 q 500 89 464 56 q 569 176 538 124 q 613 293 601 228 l 646 490 q 642 563 651 526 q 608 627 633 599 q 540 673 583 656 q 438 690 497 690 q 333 668 381 690 q 251 607 286 646 q 192 515 215 568 q 158 401 168 463 l 146 325 q 140 257 140 293 q 152 167 140 208 q 188 94 164 125 q 249 44 211 63 q 339 26 286 26 m 397 1043 l 572 1043 q 608 1034 597 1043 q 619 1010 619 1025 q 609 978 619 996 q 564 921 599 961 l 479 821 l 450 839 l 576 1004 l 390 1004 l 397 1043 z "},"ā":{"ha":833,"x_min":93,"x_max":731,"o":"m 564 0 l 590 163 l 586 163 q 485 33 546 82 q 331 -17 425 -17 q 228 3 272 -17 q 153 60 183 24 q 108 147 124 96 q 93 258 93 197 q 115 440 93 354 q 181 592 138 526 q 287 695 224 657 q 431 733 350 733 q 579 694 522 733 q 657 589 636 654 l 663 589 l 683 717 l 731 717 l 611 0 l 564 0 m 339 26 q 424 41 385 26 q 500 89 464 56 q 569 176 538 124 q 613 293 601 228 l 646 490 q 642 563 651 526 q 608 627 633 599 q 540 673 583 656 q 438 690 497 690 q 333 668 381 690 q 251 607 286 646 q 192 515 215 568 q 158 401 168 463 l 146 325 q 140 257 140 293 q 152 167 140 208 q 188 94 164 125 q 249 44 211 63 q 339 26 286 26 m 304 960 l 668 960 l 661 918 l 297 918 l 304 960 z "},"ą":{"ha":833,"x_min":93,"x_max":731,"o":"m 611 0 q 520 -56 557 -32 q 460 -101 483 -81 q 428 -142 438 -122 q 418 -185 418 -162 q 438 -231 418 -217 q 486 -246 458 -246 q 536 -235 515 -246 q 572 -210 557 -225 l 599 -236 q 553 -269 582 -256 q 485 -282 524 -282 q 407 -260 440 -282 q 374 -189 374 -237 q 382 -146 374 -168 q 412 -101 390 -124 q 470 -53 433 -78 q 564 0 507 -28 l 590 163 l 586 163 q 485 33 546 82 q 331 -17 425 -17 q 228 3 272 -17 q 153 60 183 24 q 108 147 124 96 q 93 258 93 197 q 115 440 93 354 q 181 592 138 526 q 287 695 224 657 q 431 733 350 733 q 579 694 522 733 q 657 589 636 654 l 663 589 l 683 717 l 731 717 l 611 0 m 339 26 q 424 41 385 26 q 500 89 464 56 q 569 176 538 124 q 611 293 600 228 l 646 490 q 642 563 651 526 q 608 627 633 599 q 540 673 583 656 q 438 690 497 690 q 333 668 381 690 q 251 607 286 646 q 192 515 215 568 q 158 401 168 463 l 146 325 q 140 257 140 293 q 152 167 140 208 q 188 94 164 125 q 249 44 211 63 q 339 26 286 26 z "},"å":{"ha":833,"x_min":93,"x_max":731,"o":"m 564 0 l 590 163 l 586 163 q 485 33 546 82 q 331 -17 425 -17 q 228 3 272 -17 q 153 60 183 24 q 108 147 124 96 q 93 258 93 197 q 115 440 93 354 q 181 592 138 526 q 287 695 224 657 q 431 733 350 733 q 579 694 522 733 q 657 589 636 654 l 663 589 l 683 717 l 731 717 l 611 0 l 564 0 m 339 26 q 424 41 385 26 q 500 89 464 56 q 569 176 538 124 q 613 293 601 228 l 646 490 q 642 563 651 526 q 608 627 633 599 q 540 673 583 656 q 438 690 497 690 q 333 668 381 690 q 251 607 286 646 q 192 515 215 568 q 158 401 168 463 l 146 325 q 140 257 140 293 q 152 167 140 208 q 188 94 164 125 q 249 44 211 63 q 339 26 286 26 m 465 825 q 381 856 413 825 q 350 938 350 888 q 363 999 350 971 q 396 1049 375 1028 q 445 1081 417 1069 q 506 1092 474 1092 q 590 1060 558 1092 q 621 979 621 1029 q 608 917 621 946 q 575 868 596 889 q 526 836 554 847 q 465 825 497 825 m 469 858 q 542 882 513 858 q 578 949 571 906 q 581 972 581 964 q 582 988 582 981 q 562 1039 582 1019 q 501 1058 542 1058 q 429 1035 458 1058 q 393 968 400 1011 q 390 944 390 953 q 389 929 389 936 q 409 878 389 897 q 469 858 429 858 z "},"ǻ":{"ha":833,"x_min":93,"x_max":731,"o":"m 564 0 l 590 163 l 586 163 q 485 33 546 82 q 331 -17 425 -17 q 228 3 272 -17 q 153 60 183 24 q 108 147 124 96 q 93 258 93 197 q 115 440 93 354 q 181 592 138 526 q 287 695 224 657 q 431 733 350 733 q 579 694 522 733 q 657 589 636 654 l 663 589 l 683 717 l 731 717 l 611 0 l 564 0 m 339 26 q 424 41 385 26 q 500 89 464 56 q 569 176 538 124 q 613 293 601 228 l 646 490 q 642 563 651 526 q 608 627 633 599 q 540 673 583 656 q 438 690 497 690 q 333 668 381 690 q 251 607 286 646 q 192 515 215 568 q 158 401 168 463 l 146 325 q 140 257 140 293 q 152 167 140 208 q 188 94 164 125 q 249 44 211 63 q 339 26 286 26 m 514 1125 l 488 1144 l 619 1290 l 654 1263 l 514 1125 m 465 822 q 381 853 413 822 q 350 935 350 885 q 363 997 350 968 q 396 1046 375 1025 q 445 1078 417 1067 q 506 1089 474 1089 q 590 1058 558 1089 q 621 976 621 1026 q 608 915 621 943 q 575 865 596 886 q 526 833 554 844 q 465 822 497 822 m 469 856 q 542 879 513 856 q 578 946 571 903 q 581 969 581 961 q 582 985 582 978 q 562 1036 582 1017 q 501 1056 542 1056 q 429 1032 458 1056 q 393 965 400 1008 q 390 942 390 950 q 389 926 389 933 q 409 875 389 894 q 469 856 429 856 z "},"ã":{"ha":833,"x_min":93,"x_max":731,"o":"m 564 0 l 590 163 l 586 163 q 485 33 546 82 q 331 -17 425 -17 q 228 3 272 -17 q 153 60 183 24 q 108 147 124 96 q 93 258 93 197 q 115 440 93 354 q 181 592 138 526 q 287 695 224 657 q 431 733 350 733 q 579 694 522 733 q 657 589 636 654 l 663 589 l 683 717 l 731 717 l 611 0 l 564 0 m 339 26 q 424 41 385 26 q 500 89 464 56 q 569 176 538 124 q 613 293 601 228 l 646 490 q 642 563 651 526 q 608 627 633 599 q 540 673 583 656 q 438 690 497 690 q 333 668 381 690 q 251 607 286 646 q 192 515 215 568 q 158 401 168 463 l 146 325 q 140 257 140 293 q 152 167 140 208 q 188 94 164 125 q 249 44 211 63 q 339 26 286 26 m 572 878 q 522 888 544 878 q 472 918 500 899 q 427 944 447 935 q 383 954 407 954 q 337 943 360 954 q 289 910 314 932 l 268 936 q 392 994 324 994 q 442 984 419 994 q 492 954 464 974 q 537 928 517 938 q 581 918 557 918 q 627 929 604 918 q 675 963 650 940 l 696 936 q 572 878 639 878 z "},"ắ":{"ha":833,"x_min":93,"x_max":731,"o":"m 564 0 l 590 163 l 586 163 q 485 33 546 82 q 331 -17 425 -17 q 228 3 272 -17 q 153 60 183 24 q 108 147 124 96 q 93 258 93 197 q 115 440 93 354 q 181 592 138 526 q 287 695 224 657 q 431 733 350 733 q 579 694 522 733 q 657 589 636 654 l 663 589 l 683 717 l 731 717 l 611 0 l 564 0 m 339 26 q 424 41 385 26 q 500 89 464 56 q 569 176 538 124 q 613 293 601 228 l 646 490 q 642 563 651 526 q 608 627 633 599 q 540 673 583 656 q 438 690 497 690 q 333 668 381 690 q 251 607 286 646 q 192 515 215 568 q 158 401 168 463 l 146 325 q 140 257 140 293 q 152 167 140 208 q 188 94 164 125 q 249 44 211 63 q 339 26 286 26 m 468 832 q 399 845 426 832 q 353 882 372 858 q 322 940 335 906 q 297 1014 308 974 l 328 1029 l 354 967 q 402 893 378 914 q 471 872 426 872 q 547 892 514 872 q 619 967 579 913 l 667 1029 l 699 1014 q 649 939 674 972 q 599 881 625 906 q 541 844 572 857 q 468 832 510 832 m 476 982 l 446 1003 l 628 1219 l 669 1193 l 476 982 z "},"ặ":{"ha":833,"x_min":93,"x_max":731,"o":"m 564 0 l 590 163 l 586 163 q 485 33 546 82 q 331 -17 425 -17 q 228 3 272 -17 q 153 60 183 24 q 108 147 124 96 q 93 258 93 197 q 115 440 93 354 q 181 592 138 526 q 287 695 224 657 q 431 733 350 733 q 579 694 522 733 q 657 589 636 654 l 663 589 l 683 717 l 731 717 l 611 0 l 564 0 m 339 26 q 424 41 385 26 q 500 89 464 56 q 569 176 538 124 q 613 293 601 228 l 646 490 q 642 563 651 526 q 608 627 633 599 q 540 673 583 656 q 438 690 497 690 q 333 668 381 690 q 251 607 286 646 q 192 515 215 568 q 158 401 168 463 l 146 325 q 140 257 140 293 q 152 167 140 208 q 188 94 164 125 q 249 44 211 63 q 339 26 286 26 m 469 843 q 401 857 428 843 q 355 895 374 871 q 323 953 336 919 q 299 1029 310 988 l 331 1044 l 356 981 q 403 906 379 928 q 471 885 426 885 q 545 906 514 885 q 618 981 576 926 l 664 1044 l 697 1029 q 649 953 672 988 q 599 895 625 919 q 542 857 574 871 q 469 843 511 843 m 299 -201 q 264 -192 274 -201 q 254 -171 254 -182 q 255 -160 254 -165 q 257 -147 256 -154 q 308 -110 264 -110 q 343 -119 333 -110 q 353 -140 353 -129 q 352 -151 353 -146 q 350 -164 351 -157 q 299 -201 343 -201 z "},"ằ":{"ha":833,"x_min":93,"x_max":731,"o":"m 564 0 l 590 163 l 586 163 q 485 33 546 82 q 331 -17 425 -17 q 228 3 272 -17 q 153 60 183 24 q 108 147 124 96 q 93 258 93 197 q 115 440 93 354 q 181 592 138 526 q 287 695 224 657 q 431 733 350 733 q 579 694 522 733 q 657 589 636 654 l 663 589 l 683 717 l 731 717 l 611 0 l 564 0 m 339 26 q 424 41 385 26 q 500 89 464 56 q 569 176 538 124 q 613 293 601 228 l 646 490 q 642 563 651 526 q 608 627 633 599 q 540 673 583 656 q 438 690 497 690 q 333 668 381 690 q 251 607 286 646 q 192 515 215 568 q 158 401 168 463 l 146 325 q 140 257 140 293 q 152 167 140 208 q 188 94 164 125 q 249 44 211 63 q 339 26 286 26 m 468 832 q 399 845 426 832 q 353 882 372 858 q 322 940 335 906 q 297 1014 308 974 l 328 1029 l 354 967 q 402 893 378 914 q 471 872 426 872 q 547 892 514 872 q 619 967 579 913 l 667 1029 l 699 1014 q 649 939 674 972 q 599 881 625 906 q 541 844 572 857 q 468 832 510 832 m 369 1199 l 415 1219 l 522 997 l 489 982 l 369 1199 z "},"ẳ":{"ha":833,"x_min":93,"x_max":731,"o":"m 564 0 l 590 163 l 586 163 q 485 33 546 82 q 331 -17 425 -17 q 228 3 272 -17 q 153 60 183 24 q 108 147 124 96 q 93 258 93 197 q 115 440 93 354 q 181 592 138 526 q 287 695 224 657 q 431 733 350 733 q 579 694 522 733 q 657 589 636 654 l 663 589 l 683 717 l 731 717 l 611 0 l 564 0 m 339 26 q 424 41 385 26 q 500 89 464 56 q 569 176 538 124 q 613 293 601 228 l 646 490 q 642 563 651 526 q 608 627 633 599 q 540 673 583 656 q 438 690 497 690 q 333 668 381 690 q 251 607 286 646 q 192 515 215 568 q 158 401 168 463 l 146 325 q 140 257 140 293 q 152 167 140 208 q 188 94 164 125 q 249 44 211 63 q 339 26 286 26 m 468 832 q 399 845 426 832 q 353 882 372 858 q 322 940 335 906 q 297 1014 308 974 l 328 1029 l 354 967 q 402 893 378 914 q 471 872 426 872 q 547 892 514 872 q 619 967 579 913 l 667 1029 l 699 1014 q 649 939 674 972 q 599 881 625 906 q 541 844 572 857 q 468 832 510 832 m 410 1201 l 581 1201 q 617 1192 607 1201 q 628 1168 628 1183 q 619 1140 628 1156 q 578 1086 610 1124 l 489 978 l 458 997 l 586 1163 l 404 1163 l 410 1201 z "},"ẵ":{"ha":833,"x_min":93,"x_max":731,"o":"m 564 0 l 590 163 l 586 163 q 485 33 546 82 q 331 -17 425 -17 q 228 3 272 -17 q 153 60 183 24 q 108 147 124 96 q 93 258 93 197 q 115 440 93 354 q 181 592 138 526 q 287 695 224 657 q 431 733 350 733 q 579 694 522 733 q 657 589 636 654 l 663 589 l 683 717 l 731 717 l 611 0 l 564 0 m 339 26 q 424 41 385 26 q 500 89 464 56 q 569 176 538 124 q 613 293 601 228 l 646 490 q 642 563 651 526 q 608 627 633 599 q 540 673 583 656 q 438 690 497 690 q 333 668 381 690 q 251 607 286 646 q 192 515 215 568 q 158 401 168 463 l 146 325 q 140 257 140 293 q 152 167 140 208 q 188 94 164 125 q 249 44 211 63 q 339 26 286 26 m 468 832 q 399 845 426 832 q 353 882 372 858 q 322 940 335 906 q 297 1014 308 974 l 328 1029 l 354 967 q 402 893 378 914 q 471 872 426 872 q 547 892 514 872 q 619 967 579 913 l 667 1029 l 699 1014 q 649 939 674 972 q 599 881 625 906 q 541 844 572 857 q 468 832 510 832 m 599 1072 q 548 1083 571 1072 q 497 1113 525 1093 q 452 1138 472 1129 q 410 1147 432 1147 q 363 1136 385 1147 q 314 1103 340 1125 l 293 1129 q 415 1186 349 1186 q 466 1176 443 1186 q 517 1146 489 1165 q 562 1120 542 1129 q 604 1111 582 1111 q 651 1122 629 1111 q 700 1156 674 1133 l 721 1129 q 599 1072 665 1072 z "},"ấ":{"ha":833,"x_min":93,"x_max":856,"o":"m 564 0 l 590 163 l 586 163 q 485 33 546 82 q 331 -17 425 -17 q 228 3 272 -17 q 153 60 183 24 q 108 147 124 96 q 93 258 93 197 q 115 440 93 354 q 181 592 138 526 q 287 695 224 657 q 431 733 350 733 q 579 694 522 733 q 657 589 636 654 l 663 589 l 683 717 l 731 717 l 611 0 l 564 0 m 339 26 q 424 41 385 26 q 500 89 464 56 q 569 176 538 124 q 613 293 601 228 l 646 490 q 642 563 651 526 q 608 627 633 599 q 540 673 583 656 q 438 690 497 690 q 333 668 381 690 q 251 607 286 646 q 192 515 215 568 q 158 401 168 463 l 146 325 q 140 257 140 293 q 152 167 140 208 q 188 94 164 125 q 249 44 211 63 q 339 26 286 26 m 663 982 l 633 1003 l 815 1219 l 856 1193 l 663 982 m 528 1038 l 668 847 l 638 828 l 496 1001 l 293 828 l 267 851 l 469 1038 l 528 1038 z "},"ậ":{"ha":833,"x_min":93,"x_max":731,"o":"m 564 0 l 590 163 l 586 163 q 485 33 546 82 q 331 -17 425 -17 q 228 3 272 -17 q 153 60 183 24 q 108 147 124 96 q 93 258 93 197 q 115 440 93 354 q 181 592 138 526 q 287 695 224 657 q 431 733 350 733 q 579 694 522 733 q 657 589 636 654 l 663 589 l 683 717 l 731 717 l 611 0 l 564 0 m 339 26 q 424 41 385 26 q 500 89 464 56 q 569 176 538 124 q 613 293 601 228 l 646 490 q 642 563 651 526 q 608 627 633 599 q 540 673 583 656 q 438 690 497 690 q 333 668 381 690 q 251 607 286 646 q 192 515 215 568 q 158 401 168 463 l 146 325 q 140 257 140 293 q 152 167 140 208 q 188 94 164 125 q 249 44 211 63 q 339 26 286 26 m 531 1050 l 671 860 l 640 840 l 499 1013 l 296 840 l 269 864 l 472 1050 l 531 1050 m 299 -201 q 264 -192 274 -201 q 254 -171 254 -182 q 255 -160 254 -165 q 257 -147 256 -154 q 308 -110 264 -110 q 343 -119 333 -110 q 353 -140 353 -129 q 352 -151 353 -146 q 350 -164 351 -157 q 299 -201 343 -201 z "},"ầ":{"ha":833,"x_min":93,"x_max":731,"o":"m 564 0 l 590 163 l 586 163 q 485 33 546 82 q 331 -17 425 -17 q 228 3 272 -17 q 153 60 183 24 q 108 147 124 96 q 93 258 93 197 q 115 440 93 354 q 181 592 138 526 q 287 695 224 657 q 431 733 350 733 q 579 694 522 733 q 657 589 636 654 l 663 589 l 683 717 l 731 717 l 611 0 l 564 0 m 339 26 q 424 41 385 26 q 500 89 464 56 q 569 176 538 124 q 613 293 601 228 l 646 490 q 642 563 651 526 q 608 627 633 599 q 540 673 583 656 q 438 690 497 690 q 333 668 381 690 q 251 607 286 646 q 192 515 215 568 q 158 401 168 463 l 146 325 q 140 257 140 293 q 152 167 140 208 q 188 94 164 125 q 249 44 211 63 q 339 26 286 26 m 200 1201 l 244 1222 l 353 1000 l 319 985 l 200 1201 m 528 1038 l 668 847 l 638 828 l 496 1001 l 293 828 l 267 851 l 469 1038 l 528 1038 z "},"ẩ":{"ha":833,"x_min":93,"x_max":806,"o":"m 564 0 l 590 163 l 586 163 q 485 33 546 82 q 331 -17 425 -17 q 228 3 272 -17 q 153 60 183 24 q 108 147 124 96 q 93 258 93 197 q 115 440 93 354 q 181 592 138 526 q 287 695 224 657 q 431 733 350 733 q 579 694 522 733 q 657 589 636 654 l 663 589 l 683 717 l 731 717 l 611 0 l 564 0 m 339 26 q 424 41 385 26 q 500 89 464 56 q 569 176 538 124 q 613 293 601 228 l 646 490 q 642 563 651 526 q 608 627 633 599 q 540 673 583 656 q 438 690 497 690 q 333 668 381 690 q 251 607 286 646 q 192 515 215 568 q 158 401 168 463 l 146 325 q 140 257 140 293 q 152 167 140 208 q 188 94 164 125 q 249 44 211 63 q 339 26 286 26 m 585 1203 l 758 1203 q 795 1194 785 1203 q 806 1169 806 1185 q 797 1142 806 1157 q 756 1088 788 1126 l 667 979 l 636 999 l 764 1164 l 578 1164 l 585 1203 m 528 1038 l 668 847 l 638 828 l 496 1001 l 293 828 l 267 851 l 469 1038 l 528 1038 z "},"ẫ":{"ha":833,"x_min":93,"x_max":732,"o":"m 564 0 l 590 163 l 586 163 q 485 33 546 82 q 331 -17 425 -17 q 228 3 272 -17 q 153 60 183 24 q 108 147 124 96 q 93 258 93 197 q 115 440 93 354 q 181 592 138 526 q 287 695 224 657 q 431 733 350 733 q 579 694 522 733 q 657 589 636 654 l 663 589 l 683 717 l 731 717 l 611 0 l 564 0 m 339 26 q 424 41 385 26 q 500 89 464 56 q 569 176 538 124 q 613 293 601 228 l 646 490 q 642 563 651 526 q 608 627 633 599 q 540 673 583 656 q 438 690 497 690 q 333 668 381 690 q 251 607 286 646 q 192 515 215 568 q 158 401 168 463 l 146 325 q 140 257 140 293 q 152 167 140 208 q 188 94 164 125 q 249 44 211 63 q 339 26 286 26 m 426 1201 q 477 1191 454 1201 q 528 1161 500 1181 q 573 1135 553 1144 q 615 1126 593 1126 q 663 1138 640 1126 q 711 1171 685 1149 l 732 1144 q 610 1088 676 1088 q 559 1098 582 1088 q 508 1128 536 1108 q 463 1153 483 1144 q 421 1163 443 1163 q 374 1151 396 1163 q 325 1118 351 1140 l 304 1144 q 426 1201 360 1201 m 528 1035 l 669 847 l 638 828 l 496 999 l 294 828 l 268 853 l 469 1035 l 528 1035 z "},"æ":{"ha":833,"x_min":4,"x_max":821,"o":"m 161 -17 q 45 24 86 -17 q 4 135 4 64 q 293 371 4 357 l 396 376 l 417 497 q 422 556 422 529 q 388 664 422 633 q 296 694 354 694 q 191 662 231 694 q 117 575 151 629 l 83 596 q 168 693 115 653 q 299 733 221 733 q 419 690 379 733 q 457 569 460 647 l 463 569 q 554 693 499 653 q 676 733 610 733 q 782 692 743 733 q 821 586 821 650 q 799 485 821 529 q 731 409 778 440 q 612 360 685 378 q 435 340 539 343 l 432 321 q 421 214 421 257 q 454 69 421 114 q 546 24 488 24 q 652 65 608 24 q 729 176 696 106 l 765 160 q 727 92 749 124 q 678 35 706 60 q 618 -3 651 11 q 543 -17 585 -17 q 431 28 474 -17 q 385 164 389 72 l 379 164 q 303 34 356 85 q 161 -17 251 -17 m 168 22 q 246 38 211 22 q 306 82 281 54 q 348 146 332 110 q 371 224 364 182 l 390 340 l 294 335 q 201 324 242 332 q 130 298 160 315 q 81 253 100 281 q 54 183 63 225 q 49 151 50 163 q 49 133 49 140 q 78 51 49 81 q 168 22 107 22 m 669 694 q 592 674 629 694 q 526 616 556 654 q 474 523 496 578 q 444 400 453 468 l 442 376 q 696 430 615 381 q 776 583 776 479 q 748 665 776 636 q 669 694 719 694 z "},"ǽ":{"ha":833,"x_min":4,"x_max":821,"o":"m 161 -17 q 45 24 86 -17 q 4 135 4 64 q 293 371 4 357 l 396 376 l 417 497 q 422 556 422 529 q 388 664 422 633 q 296 694 354 694 q 191 662 231 694 q 117 575 151 629 l 83 596 q 168 693 115 653 q 299 733 221 733 q 419 690 379 733 q 457 569 460 647 l 463 569 q 554 693 499 653 q 676 733 610 733 q 782 692 743 733 q 821 586 821 650 q 799 485 821 529 q 731 409 778 440 q 612 360 685 378 q 435 340 539 343 l 432 321 q 421 214 421 257 q 454 69 421 114 q 546 24 488 24 q 652 65 608 24 q 729 176 696 106 l 765 160 q 727 92 749 124 q 678 35 706 60 q 618 -3 651 11 q 543 -17 585 -17 q 431 28 474 -17 q 385 164 389 72 l 379 164 q 303 34 356 85 q 161 -17 251 -17 m 168 22 q 246 38 211 22 q 306 82 281 54 q 348 146 332 110 q 371 224 364 182 l 390 340 l 294 335 q 201 324 242 332 q 130 298 160 315 q 81 253 100 281 q 54 183 63 225 q 49 151 50 163 q 49 133 49 140 q 78 51 49 81 q 168 22 107 22 m 669 694 q 592 674 629 694 q 526 616 556 654 q 474 523 496 578 q 444 400 453 468 l 442 376 q 696 430 615 381 q 776 583 776 479 q 748 665 776 636 q 669 694 719 694 m 504 825 l 474 846 l 656 1063 l 697 1036 l 504 825 z "},"ć":{"ha":833,"x_min":113,"x_max":694,"o":"m 369 -17 q 258 6 306 -17 q 177 67 210 28 q 128 161 144 107 q 113 281 113 215 q 139 472 113 388 q 213 614 165 556 q 325 703 260 672 q 467 733 390 733 q 619 688 560 733 q 694 571 678 642 l 653 557 q 584 657 633 624 q 464 690 535 690 q 275 617 351 690 q 178 417 199 544 l 165 344 q 161 308 163 322 q 160 274 160 293 q 173 176 160 221 q 213 97 186 131 q 278 45 239 64 q 372 26 318 26 q 515 73 453 26 q 639 215 576 119 l 676 196 q 544 41 617 99 q 369 -17 472 -17 m 460 825 l 429 846 l 611 1063 l 653 1036 l 460 825 z "},"č":{"ha":833,"x_min":113,"x_max":710,"o":"m 369 -17 q 258 6 306 -17 q 177 67 210 28 q 128 161 144 107 q 113 281 113 215 q 139 472 113 388 q 213 614 165 556 q 325 703 260 672 q 467 733 390 733 q 619 688 560 733 q 694 571 678 642 l 653 557 q 584 657 633 624 q 464 690 535 690 q 275 617 351 690 q 178 417 199 544 l 165 344 q 161 308 163 322 q 160 274 160 293 q 173 176 160 221 q 213 97 186 131 q 278 45 239 64 q 372 26 318 26 q 515 73 453 26 q 639 215 576 119 l 676 196 q 544 41 617 99 q 369 -17 472 -17 m 450 847 l 308 1038 l 339 1057 l 481 883 l 683 1057 l 710 1033 l 507 847 l 450 847 z "},"ç":{"ha":833,"x_min":113,"x_max":694,"o":"m 467 733 q 619 688 560 733 q 694 571 678 642 l 653 557 q 584 657 633 624 q 464 690 535 690 q 275 617 351 690 q 178 417 199 544 l 165 344 q 161 308 163 322 q 160 274 160 293 q 173 176 160 221 q 213 97 186 131 q 278 45 239 64 q 372 26 318 26 q 515 73 453 26 q 639 215 576 119 l 676 196 q 547 43 618 100 q 376 -17 476 -14 l 368 -17 l 333 -97 l 336 -100 q 359 -97 347 -97 q 379 -96 371 -96 q 440 -116 418 -96 q 461 -172 461 -136 q 424 -251 461 -221 q 326 -282 388 -282 q 255 -268 283 -282 q 214 -235 226 -254 l 242 -208 q 276 -235 256 -225 q 326 -246 297 -246 q 393 -226 368 -246 q 418 -174 418 -206 q 402 -136 418 -151 q 342 -118 386 -121 l 292 -114 l 332 -14 q 167 79 222 -1 q 113 281 113 160 q 139 472 113 388 q 213 614 165 556 q 325 703 260 672 q 467 733 390 733 z "},"ĉ":{"ha":833,"x_min":113,"x_max":694,"o":"m 369 -17 q 258 6 306 -17 q 177 67 210 28 q 128 161 144 107 q 113 281 113 215 q 139 472 113 388 q 213 614 165 556 q 325 703 260 672 q 467 733 390 733 q 619 688 560 733 q 694 571 678 642 l 653 557 q 584 657 633 624 q 464 690 535 690 q 275 617 351 690 q 178 417 199 544 l 165 344 q 161 308 163 322 q 160 274 160 293 q 173 176 160 221 q 213 97 186 131 q 278 45 239 64 q 372 26 318 26 q 515 73 453 26 q 639 215 576 119 l 676 196 q 544 41 617 99 q 369 -17 472 -17 m 542 1050 l 682 860 l 651 840 l 510 1013 l 307 840 l 281 864 l 483 1050 l 542 1050 z "},"ċ":{"ha":833,"x_min":113,"x_max":694,"o":"m 369 -17 q 258 6 306 -17 q 177 67 210 28 q 128 161 144 107 q 113 281 113 215 q 139 472 113 388 q 213 614 165 556 q 325 703 260 672 q 467 733 390 733 q 619 688 560 733 q 694 571 678 642 l 653 557 q 584 657 633 624 q 464 690 535 690 q 275 617 351 690 q 178 417 199 544 l 165 344 q 161 308 163 322 q 160 274 160 293 q 173 176 160 221 q 213 97 186 131 q 278 45 239 64 q 372 26 318 26 q 515 73 453 26 q 639 215 576 119 l 676 196 q 544 41 617 99 q 369 -17 472 -17 m 489 889 q 451 899 461 889 q 442 921 442 908 q 446 946 442 929 q 463 974 450 964 q 499 985 475 985 q 536 975 526 985 q 546 953 546 965 q 542 928 546 944 q 525 899 538 910 q 489 889 513 889 z "},"ď":{"ha":833,"x_min":89,"x_max":947,"o":"m 322 -17 q 222 3 265 -17 q 149 60 178 24 q 104 147 119 96 q 89 258 89 197 q 111 440 89 354 q 176 592 133 526 q 281 695 218 657 q 422 733 343 733 q 570 694 514 733 q 647 590 626 656 l 651 590 l 722 1028 l 771 1028 l 600 0 l 553 0 l 579 163 l 575 163 q 475 33 535 82 q 322 -17 415 -17 m 332 26 q 415 40 376 26 q 490 89 454 54 q 558 176 526 124 q 601 293 590 228 l 635 490 q 631 563 640 526 q 597 627 622 599 q 531 673 572 656 q 429 690 489 690 q 326 668 372 690 q 244 608 279 646 q 187 517 210 569 q 154 401 164 464 l 142 325 q 136 257 136 293 q 147 167 136 208 q 183 94 158 125 q 244 44 207 63 q 332 26 281 26 m 888 1028 l 947 1028 l 865 779 l 828 779 l 888 1028 z "},"đ":{"ha":833,"x_min":93,"x_max":860,"o":"m 590 163 l 586 163 q 485 33 546 82 q 331 -17 425 -17 q 228 3 272 -17 q 153 60 183 24 q 108 147 124 96 q 93 258 93 197 q 115 440 93 354 q 181 592 138 526 q 287 695 224 657 q 431 733 350 733 q 579 694 522 733 q 657 589 636 654 l 663 589 l 710 875 l 482 875 l 489 914 l 717 914 l 735 1028 l 782 1028 l 763 914 l 860 914 l 853 875 l 757 875 l 611 0 l 564 0 l 590 163 m 339 26 q 424 41 385 26 q 500 89 464 56 q 569 176 538 124 q 613 293 601 228 l 646 490 q 642 563 651 526 q 608 627 633 599 q 540 673 583 656 q 438 690 497 690 q 333 668 381 690 q 251 607 286 646 q 192 515 215 568 q 158 401 168 463 l 146 325 q 140 257 140 293 q 152 167 140 208 q 188 94 164 125 q 249 44 211 63 q 339 26 286 26 z "},"ð":{"ha":833,"x_min":103,"x_max":719,"o":"m 554 908 q 617 825 588 871 q 670 724 647 779 q 706 602 693 668 q 719 460 719 536 q 693 256 719 344 q 619 107 667 168 q 504 15 571 46 q 357 -17 438 -17 q 171 56 239 -17 q 103 256 103 129 q 128 438 103 356 q 201 580 154 521 q 311 672 247 639 q 451 704 375 704 q 579 672 524 704 q 663 581 635 639 l 668 583 q 613 744 653 668 q 517 886 574 821 l 363 788 l 342 818 l 493 913 q 350 1028 429 976 l 426 1028 q 476 986 450 1008 q 531 936 503 964 l 689 1038 l 710 1007 l 554 908 m 363 26 q 551 97 474 26 q 653 297 629 167 l 664 361 q 668 403 667 383 q 669 439 669 422 q 611 603 669 546 q 457 661 553 661 q 268 591 346 661 q 167 390 190 521 l 156 326 q 151 285 153 304 q 150 249 150 265 q 208 84 150 142 q 363 26 267 26 z "},"é":{"ha":833,"x_min":113,"x_max":710,"o":"m 381 -17 q 181 62 250 -17 q 113 293 113 140 q 140 464 113 383 q 215 604 167 544 q 331 699 264 664 q 481 733 399 733 q 648 687 586 733 q 710 557 710 640 q 692 481 710 521 q 618 405 675 440 q 453 345 561 369 q 161 317 344 321 q 160 294 160 306 q 160 281 160 283 q 171 181 160 228 q 208 100 182 135 q 278 45 235 65 q 383 25 321 25 q 536 74 472 25 q 649 215 600 124 l 686 194 q 554 35 628 86 q 381 -17 481 -17 m 476 692 q 370 672 421 692 q 278 613 319 651 q 210 518 238 574 q 171 390 182 463 l 165 354 q 419 376 322 357 q 570 423 517 394 q 642 486 624 451 q 661 556 661 521 q 619 653 661 614 q 476 692 576 692 m 481 825 l 450 846 l 632 1063 l 674 1036 l 481 825 z "},"ĕ":{"ha":833,"x_min":113,"x_max":729,"o":"m 381 -17 q 181 62 250 -17 q 113 293 113 140 q 140 464 113 383 q 215 604 167 544 q 331 699 264 664 q 481 733 399 733 q 648 687 586 733 q 710 557 710 640 q 692 481 710 521 q 618 405 675 440 q 453 345 561 369 q 161 317 344 321 q 160 294 160 306 q 160 281 160 283 q 171 181 160 228 q 208 100 182 135 q 278 45 235 65 q 383 25 321 25 q 536 74 472 25 q 649 215 600 124 l 686 194 q 554 35 628 86 q 381 -17 481 -17 m 476 692 q 370 672 421 692 q 278 613 319 651 q 210 518 238 574 q 171 390 182 463 l 165 354 q 419 376 322 357 q 570 423 517 394 q 642 486 624 451 q 661 556 661 521 q 619 653 661 614 q 476 692 576 692 m 501 843 q 433 857 460 843 q 387 895 406 871 q 355 953 368 919 q 331 1029 342 988 l 363 1044 l 388 981 q 435 906 411 928 q 503 885 458 885 q 577 906 546 885 q 650 981 608 926 l 696 1044 l 729 1029 q 681 953 704 988 q 631 895 657 919 q 574 857 606 871 q 501 843 543 843 z "},"ě":{"ha":833,"x_min":113,"x_max":731,"o":"m 381 -17 q 181 62 250 -17 q 113 293 113 140 q 140 464 113 383 q 215 604 167 544 q 331 699 264 664 q 481 733 399 733 q 648 687 586 733 q 710 557 710 640 q 692 481 710 521 q 618 405 675 440 q 453 345 561 369 q 161 317 344 321 q 160 294 160 306 q 160 281 160 283 q 171 181 160 228 q 208 100 182 135 q 278 45 235 65 q 383 25 321 25 q 536 74 472 25 q 649 215 600 124 l 686 194 q 554 35 628 86 q 381 -17 481 -17 m 476 692 q 370 672 421 692 q 278 613 319 651 q 210 518 238 574 q 171 390 182 463 l 165 354 q 419 376 322 357 q 570 423 517 394 q 642 486 624 451 q 661 556 661 521 q 619 653 661 614 q 476 692 576 692 m 471 847 l 329 1038 l 360 1057 l 501 883 l 704 1057 l 731 1033 l 528 847 l 471 847 z "},"ê":{"ha":833,"x_min":113,"x_max":710,"o":"m 381 -17 q 181 62 250 -17 q 113 293 113 140 q 140 464 113 383 q 215 604 167 544 q 331 699 264 664 q 481 733 399 733 q 648 687 586 733 q 710 557 710 640 q 692 481 710 521 q 618 405 675 440 q 453 345 561 369 q 161 317 344 321 q 160 294 160 306 q 160 281 160 283 q 171 181 160 228 q 208 100 182 135 q 278 45 235 65 q 383 25 321 25 q 536 74 472 25 q 649 215 600 124 l 686 194 q 554 35 628 86 q 381 -17 481 -17 m 476 692 q 370 672 421 692 q 278 613 319 651 q 210 518 238 574 q 171 390 182 463 l 165 354 q 419 376 322 357 q 570 423 517 394 q 642 486 624 451 q 661 556 661 521 q 619 653 661 614 q 476 692 576 692 m 563 1050 l 703 860 l 672 840 l 531 1013 l 328 840 l 301 864 l 504 1050 l 563 1050 z "},"ë":{"ha":833,"x_min":113,"x_max":710,"o":"m 381 -17 q 181 62 250 -17 q 113 293 113 140 q 140 464 113 383 q 215 604 167 544 q 331 699 264 664 q 481 733 399 733 q 648 687 586 733 q 710 557 710 640 q 692 481 710 521 q 618 405 675 440 q 453 345 561 369 q 161 317 344 321 q 160 294 160 306 q 160 281 160 283 q 171 181 160 228 q 208 100 182 135 q 278 45 235 65 q 383 25 321 25 q 536 74 472 25 q 649 215 600 124 l 686 194 q 554 35 628 86 q 381 -17 481 -17 m 476 692 q 370 672 421 692 q 278 613 319 651 q 210 518 238 574 q 171 390 182 463 l 165 354 q 419 376 322 357 q 570 423 517 394 q 642 486 624 451 q 661 556 661 521 q 619 653 661 614 q 476 692 576 692 m 383 892 q 349 901 358 892 q 339 922 339 911 q 340 933 339 928 q 342 946 340 939 q 393 983 349 983 q 428 974 418 983 q 438 953 438 964 q 437 942 438 947 q 435 929 436 936 q 383 892 428 892 m 636 892 q 601 901 611 892 q 592 922 592 911 q 592 933 592 928 q 594 946 593 939 q 646 983 601 983 q 681 974 671 983 q 690 953 690 964 q 690 942 690 947 q 688 929 689 936 q 636 892 681 892 z "},"ė":{"ha":833,"x_min":113,"x_max":710,"o":"m 381 -17 q 181 62 250 -17 q 113 293 113 140 q 140 464 113 383 q 215 604 167 544 q 331 699 264 664 q 481 733 399 733 q 648 687 586 733 q 710 557 710 640 q 692 481 710 521 q 618 405 675 440 q 453 345 561 369 q 161 317 344 321 q 160 294 160 306 q 160 281 160 283 q 171 181 160 228 q 208 100 182 135 q 278 45 235 65 q 383 25 321 25 q 536 74 472 25 q 649 215 600 124 l 686 194 q 554 35 628 86 q 381 -17 481 -17 m 476 692 q 370 672 421 692 q 278 613 319 651 q 210 518 238 574 q 171 390 182 463 l 165 354 q 419 376 322 357 q 570 423 517 394 q 642 486 624 451 q 661 556 661 521 q 619 653 661 614 q 476 692 576 692 m 510 889 q 472 899 482 889 q 463 921 463 908 q 467 946 463 929 q 483 974 471 964 q 519 985 496 985 q 557 975 547 985 q 567 953 567 965 q 563 928 567 944 q 546 899 558 910 q 510 889 533 889 z "},"ẹ":{"ha":833,"x_min":113,"x_max":710,"o":"m 381 -17 q 181 62 250 -17 q 113 293 113 140 q 140 464 113 383 q 215 604 167 544 q 331 699 264 664 q 481 733 399 733 q 648 687 586 733 q 710 557 710 640 q 692 481 710 521 q 618 405 675 440 q 453 345 561 369 q 161 317 344 321 q 160 294 160 306 q 160 281 160 283 q 171 181 160 228 q 208 100 182 135 q 278 45 235 65 q 383 25 321 25 q 536 74 472 25 q 649 215 600 124 l 686 194 q 554 35 628 86 q 381 -17 481 -17 m 476 692 q 370 672 421 692 q 278 613 319 651 q 210 518 238 574 q 171 390 182 463 l 165 354 q 419 376 322 357 q 570 423 517 394 q 642 486 624 451 q 661 556 661 521 q 619 653 661 614 q 476 692 576 692 m 349 -201 q 314 -192 324 -201 q 304 -171 304 -182 q 305 -160 304 -165 q 307 -147 306 -154 q 358 -110 314 -110 q 393 -119 383 -110 q 403 -140 403 -129 q 402 -151 403 -146 q 400 -164 401 -157 q 349 -201 393 -201 z "},"è":{"ha":833,"x_min":113,"x_max":710,"o":"m 381 -17 q 181 62 250 -17 q 113 293 113 140 q 140 464 113 383 q 215 604 167 544 q 331 699 264 664 q 481 733 399 733 q 648 687 586 733 q 710 557 710 640 q 692 481 710 521 q 618 405 675 440 q 453 345 561 369 q 161 317 344 321 q 160 294 160 306 q 160 281 160 283 q 171 181 160 228 q 208 100 182 135 q 278 45 235 65 q 383 25 321 25 q 536 74 472 25 q 649 215 600 124 l 686 194 q 554 35 628 86 q 381 -17 481 -17 m 476 692 q 370 672 421 692 q 278 613 319 651 q 210 518 238 574 q 171 390 182 463 l 165 354 q 419 376 322 357 q 570 423 517 394 q 642 486 624 451 q 661 556 661 521 q 619 653 661 614 q 476 692 576 692 m 393 1042 l 439 1063 l 546 842 l 513 825 l 393 1042 z "},"ẻ":{"ha":833,"x_min":113,"x_max":710,"o":"m 381 -17 q 181 62 250 -17 q 113 293 113 140 q 140 464 113 383 q 215 604 167 544 q 331 699 264 664 q 481 733 399 733 q 648 687 586 733 q 710 557 710 640 q 692 481 710 521 q 618 405 675 440 q 453 345 561 369 q 161 317 344 321 q 160 294 160 306 q 160 281 160 283 q 171 181 160 228 q 208 100 182 135 q 278 45 235 65 q 383 25 321 25 q 536 74 472 25 q 649 215 600 124 l 686 194 q 554 35 628 86 q 381 -17 481 -17 m 476 692 q 370 672 421 692 q 278 613 319 651 q 210 518 238 574 q 171 390 182 463 l 165 354 q 419 376 322 357 q 570 423 517 394 q 642 486 624 451 q 661 556 661 521 q 619 653 661 614 q 476 692 576 692 m 429 1043 l 604 1043 q 640 1034 629 1043 q 651 1010 651 1025 q 641 978 651 996 q 596 921 631 961 l 511 821 l 482 839 l 608 1004 l 422 1004 l 429 1043 z "},"ē":{"ha":833,"x_min":113,"x_max":710,"o":"m 381 -17 q 181 62 250 -17 q 113 293 113 140 q 140 464 113 383 q 215 604 167 544 q 331 699 264 664 q 481 733 399 733 q 648 687 586 733 q 710 557 710 640 q 692 481 710 521 q 618 405 675 440 q 453 345 561 369 q 161 317 344 321 q 160 294 160 306 q 160 281 160 283 q 171 181 160 228 q 208 100 182 135 q 278 45 235 65 q 383 25 321 25 q 536 74 472 25 q 649 215 600 124 l 686 194 q 554 35 628 86 q 381 -17 481 -17 m 476 692 q 370 672 421 692 q 278 613 319 651 q 210 518 238 574 q 171 390 182 463 l 165 354 q 419 376 322 357 q 570 423 517 394 q 642 486 624 451 q 661 556 661 521 q 619 653 661 614 q 476 692 576 692 m 336 960 l 700 960 l 693 918 l 329 918 l 336 960 z "},"ę":{"ha":833,"x_min":113,"x_max":710,"o":"m 425 -282 q 343 -260 376 -282 q 310 -190 310 -239 q 316 -148 310 -169 q 339 -104 322 -126 q 384 -58 356 -82 q 457 -10 413 -35 l 456 -6 q 381 -17 418 -17 q 181 62 250 -17 q 113 293 113 140 q 140 464 113 383 q 215 604 167 544 q 331 699 264 664 q 481 733 399 733 q 648 687 586 733 q 710 557 710 640 q 692 481 710 521 q 618 405 675 440 q 453 345 561 369 q 161 317 344 321 q 160 294 160 306 q 160 281 160 283 q 171 181 160 228 q 208 100 182 135 q 278 45 235 65 q 383 25 321 25 q 536 74 472 25 q 649 215 600 124 l 686 194 q 539 25 624 78 q 453 -35 489 -8 q 396 -85 418 -61 q 364 -133 374 -108 q 354 -183 354 -157 q 374 -231 354 -217 q 426 -246 394 -246 q 474 -235 454 -246 q 508 -210 493 -225 l 535 -236 q 490 -269 518 -256 q 425 -282 463 -282 m 476 692 q 370 672 421 692 q 278 613 319 651 q 210 518 238 574 q 171 390 182 463 l 165 354 q 419 376 322 357 q 570 423 517 394 q 642 486 624 451 q 661 556 661 521 q 619 653 661 614 q 476 692 576 692 z "},"ẽ":{"ha":833,"x_min":113,"x_max":728,"o":"m 381 -17 q 181 62 250 -17 q 113 293 113 140 q 140 464 113 383 q 215 604 167 544 q 331 699 264 664 q 481 733 399 733 q 648 687 586 733 q 710 557 710 640 q 692 481 710 521 q 618 405 675 440 q 453 345 561 369 q 161 317 344 321 q 160 294 160 306 q 160 281 160 283 q 171 181 160 228 q 208 100 182 135 q 278 45 235 65 q 383 25 321 25 q 536 74 472 25 q 649 215 600 124 l 686 194 q 554 35 628 86 q 381 -17 481 -17 m 476 692 q 370 672 421 692 q 278 613 319 651 q 210 518 238 574 q 171 390 182 463 l 165 354 q 419 376 322 357 q 570 423 517 394 q 642 486 624 451 q 661 556 661 521 q 619 653 661 614 q 476 692 576 692 m 604 878 q 554 888 576 878 q 504 918 532 899 q 459 944 479 935 q 415 954 439 954 q 369 943 392 954 q 321 910 346 932 l 300 936 q 424 994 356 994 q 474 984 451 994 q 524 954 496 974 q 569 928 549 938 q 613 918 589 918 q 659 929 636 918 q 707 963 682 940 l 728 936 q 604 878 671 878 z "},"ế":{"ha":833,"x_min":113,"x_max":888,"o":"m 381 -17 q 181 62 250 -17 q 113 293 113 140 q 140 464 113 383 q 215 604 167 544 q 331 699 264 664 q 481 733 399 733 q 648 687 586 733 q 710 557 710 640 q 692 481 710 521 q 618 405 675 440 q 453 345 561 369 q 161 317 344 321 q 160 294 160 306 q 160 281 160 283 q 171 181 160 228 q 208 100 182 135 q 278 45 235 65 q 383 25 321 25 q 536 74 472 25 q 649 215 600 124 l 686 194 q 554 35 628 86 q 381 -17 481 -17 m 476 692 q 370 672 421 692 q 278 613 319 651 q 210 518 238 574 q 171 390 182 463 l 165 354 q 419 376 322 357 q 570 423 517 394 q 642 486 624 451 q 661 556 661 521 q 619 653 661 614 q 476 692 576 692 m 694 982 l 665 1003 l 847 1219 l 888 1193 l 694 982 m 560 1038 l 700 847 l 669 828 l 528 1001 l 325 828 l 299 851 l 501 1038 l 560 1038 z "},"ệ":{"ha":833,"x_min":113,"x_max":710,"o":"m 381 -17 q 181 62 250 -17 q 113 293 113 140 q 140 464 113 383 q 215 604 167 544 q 331 699 264 664 q 481 733 399 733 q 648 687 586 733 q 710 557 710 640 q 692 481 710 521 q 618 405 675 440 q 453 345 561 369 q 161 317 344 321 q 160 294 160 306 q 160 281 160 283 q 171 181 160 228 q 208 100 182 135 q 278 45 235 65 q 383 25 321 25 q 536 74 472 25 q 649 215 600 124 l 686 194 q 554 35 628 86 q 381 -17 481 -17 m 476 692 q 370 672 421 692 q 278 613 319 651 q 210 518 238 574 q 171 390 182 463 l 165 354 q 419 376 322 357 q 570 423 517 394 q 642 486 624 451 q 661 556 661 521 q 619 653 661 614 q 476 692 576 692 m 563 1050 l 703 860 l 672 840 l 531 1013 l 328 840 l 301 864 l 504 1050 l 563 1050 m 349 -201 q 314 -192 324 -201 q 304 -171 304 -182 q 305 -160 304 -165 q 307 -147 306 -154 q 358 -110 314 -110 q 393 -119 383 -110 q 403 -140 403 -129 q 402 -151 403 -146 q 400 -164 401 -157 q 349 -201 393 -201 z "},"ề":{"ha":833,"x_min":113,"x_max":710,"o":"m 381 -17 q 181 62 250 -17 q 113 293 113 140 q 140 464 113 383 q 215 604 167 544 q 331 699 264 664 q 481 733 399 733 q 648 687 586 733 q 710 557 710 640 q 692 481 710 521 q 618 405 675 440 q 453 345 561 369 q 161 317 344 321 q 160 294 160 306 q 160 281 160 283 q 171 181 160 228 q 208 100 182 135 q 278 45 235 65 q 383 25 321 25 q 536 74 472 25 q 649 215 600 124 l 686 194 q 554 35 628 86 q 381 -17 481 -17 m 476 692 q 370 672 421 692 q 278 613 319 651 q 210 518 238 574 q 171 390 182 463 l 165 354 q 419 376 322 357 q 570 423 517 394 q 642 486 624 451 q 661 556 661 521 q 619 653 661 614 q 476 692 576 692 m 232 1201 l 276 1222 l 385 1000 l 351 985 l 232 1201 m 560 1038 l 700 847 l 669 828 l 528 1001 l 325 828 l 299 851 l 501 1038 l 560 1038 z "},"ể":{"ha":833,"x_min":113,"x_max":838,"o":"m 381 -17 q 181 62 250 -17 q 113 293 113 140 q 140 464 113 383 q 215 604 167 544 q 331 699 264 664 q 481 733 399 733 q 648 687 586 733 q 710 557 710 640 q 692 481 710 521 q 618 405 675 440 q 453 345 561 369 q 161 317 344 321 q 160 294 160 306 q 160 281 160 283 q 171 181 160 228 q 208 100 182 135 q 278 45 235 65 q 383 25 321 25 q 536 74 472 25 q 649 215 600 124 l 686 194 q 554 35 628 86 q 381 -17 481 -17 m 476 692 q 370 672 421 692 q 278 613 319 651 q 210 518 238 574 q 171 390 182 463 l 165 354 q 419 376 322 357 q 570 423 517 394 q 642 486 624 451 q 661 556 661 521 q 619 653 661 614 q 476 692 576 692 m 617 1203 l 790 1203 q 827 1194 817 1203 q 838 1169 838 1185 q 828 1142 838 1157 q 788 1088 819 1126 l 699 979 l 668 999 l 796 1164 l 610 1164 l 617 1203 m 560 1038 l 700 847 l 669 828 l 528 1001 l 325 828 l 299 851 l 501 1038 l 560 1038 z "},"ễ":{"ha":833,"x_min":113,"x_max":764,"o":"m 381 -17 q 181 62 250 -17 q 113 293 113 140 q 140 464 113 383 q 215 604 167 544 q 331 699 264 664 q 481 733 399 733 q 648 687 586 733 q 710 557 710 640 q 692 481 710 521 q 618 405 675 440 q 453 345 561 369 q 161 317 344 321 q 160 294 160 306 q 160 281 160 283 q 171 181 160 228 q 208 100 182 135 q 278 45 235 65 q 383 25 321 25 q 536 74 472 25 q 649 215 600 124 l 686 194 q 554 35 628 86 q 381 -17 481 -17 m 476 692 q 370 672 421 692 q 278 613 319 651 q 210 518 238 574 q 171 390 182 463 l 165 354 q 419 376 322 357 q 570 423 517 394 q 642 486 624 451 q 661 556 661 521 q 619 653 661 614 q 476 692 576 692 m 458 1201 q 509 1191 486 1201 q 560 1161 532 1181 q 605 1135 585 1144 q 647 1126 625 1126 q 694 1138 672 1126 q 743 1171 717 1149 l 764 1144 q 642 1088 708 1088 q 591 1098 614 1088 q 540 1128 568 1108 q 495 1153 515 1144 q 453 1163 475 1163 q 406 1151 428 1163 q 357 1118 383 1140 l 336 1144 q 458 1201 392 1201 m 560 1035 l 701 847 l 669 828 l 528 999 l 326 828 l 300 853 l 501 1035 l 560 1035 z "},"ə":{"ha":833,"x_min":121,"x_max":719,"o":"m 350 -17 q 183 30 244 -17 q 121 160 121 76 q 138 235 121 194 q 213 312 156 276 q 378 372 269 347 q 669 400 488 396 q 671 422 671 411 q 671 436 671 433 q 660 535 671 489 q 622 617 649 582 q 553 672 596 651 q 449 692 511 692 q 294 642 358 692 q 182 501 231 593 l 144 522 q 276 682 203 631 q 451 733 350 733 q 651 655 582 733 q 719 424 719 576 q 692 253 719 333 q 617 113 665 172 q 500 18 568 53 q 350 -17 432 -17 m 354 25 q 460 45 410 25 q 551 103 511 65 q 620 198 592 142 q 660 326 649 254 l 665 363 q 412 341 508 360 q 262 294 315 322 q 190 231 208 265 q 171 161 171 196 q 213 65 171 104 q 354 25 256 25 z "},"ğ":{"ha":833,"x_min":63,"x_max":731,"o":"m 289 -294 q 153 -269 208 -294 q 63 -200 99 -244 l 97 -168 q 173 -229 126 -207 q 290 -251 219 -251 q 471 -194 401 -251 q 561 -8 540 -137 l 590 168 l 586 168 q 485 38 546 88 q 331 -11 425 -11 q 228 9 272 -11 q 153 65 183 29 q 108 152 124 101 q 93 264 93 203 q 116 444 93 358 q 182 594 139 529 q 288 696 225 658 q 431 733 350 733 q 580 694 522 733 q 658 589 638 654 l 663 589 l 683 717 l 731 717 l 607 -19 q 501 -228 583 -162 q 289 -294 419 -294 m 339 32 q 424 47 385 32 q 500 94 464 61 q 569 178 536 126 q 613 297 601 231 l 646 490 q 642 563 651 526 q 608 627 633 599 q 540 673 583 656 q 438 690 497 690 q 333 668 381 690 q 250 608 286 646 q 190 517 214 569 q 157 401 167 464 l 146 332 q 140 264 140 300 q 152 173 140 215 q 188 99 164 131 q 249 50 211 68 q 339 32 286 32 m 472 843 q 403 857 431 843 q 358 895 376 871 q 326 953 339 919 q 301 1029 313 988 l 333 1044 l 358 981 q 406 906 382 928 q 474 885 429 885 q 548 906 517 885 q 621 981 579 926 l 667 1044 l 700 1029 q 651 953 675 988 q 602 895 628 919 q 545 857 576 871 q 472 843 514 843 z "},"ĝ":{"ha":833,"x_min":63,"x_max":731,"o":"m 289 -294 q 153 -269 208 -294 q 63 -200 99 -244 l 97 -168 q 173 -229 126 -207 q 290 -251 219 -251 q 471 -194 401 -251 q 561 -8 540 -137 l 590 168 l 586 168 q 485 38 546 88 q 331 -11 425 -11 q 228 9 272 -11 q 153 65 183 29 q 108 152 124 101 q 93 264 93 203 q 116 444 93 358 q 182 594 139 529 q 288 696 225 658 q 431 733 350 733 q 580 694 522 733 q 658 589 638 654 l 663 589 l 683 717 l 731 717 l 607 -19 q 501 -228 583 -162 q 289 -294 419 -294 m 339 32 q 424 47 385 32 q 500 94 464 61 q 569 178 536 126 q 613 297 601 231 l 646 490 q 642 563 651 526 q 608 627 633 599 q 540 673 583 656 q 438 690 497 690 q 333 668 381 690 q 250 608 286 646 q 190 517 214 569 q 157 401 167 464 l 146 332 q 140 264 140 300 q 152 173 140 215 q 188 99 164 131 q 249 50 211 68 q 339 32 286 32 m 533 1050 l 674 860 l 643 840 l 501 1013 l 299 840 l 272 864 l 475 1050 l 533 1050 z "},"ģ":{"ha":833,"x_min":63,"x_max":731,"o":"m 289 -294 q 153 -269 208 -294 q 63 -200 99 -244 l 97 -168 q 173 -229 126 -207 q 290 -251 219 -251 q 471 -194 401 -251 q 561 -8 540 -137 l 590 168 l 586 168 q 485 38 546 88 q 331 -11 425 -11 q 228 9 272 -11 q 153 65 183 29 q 108 152 124 101 q 93 264 93 203 q 116 444 93 358 q 182 594 139 529 q 288 696 225 658 q 431 733 350 733 q 580 694 522 733 q 658 589 638 654 l 663 589 l 683 717 l 731 717 l 607 -19 q 501 -228 583 -162 q 289 -294 419 -294 m 339 32 q 424 47 385 32 q 500 94 464 61 q 569 178 536 126 q 613 297 601 231 l 646 490 q 642 563 651 526 q 608 627 633 599 q 540 673 583 656 q 438 690 497 690 q 333 668 381 690 q 250 608 286 646 q 190 517 214 569 q 157 401 167 464 l 146 332 q 140 264 140 300 q 152 173 140 215 q 188 99 164 131 q 249 50 211 68 q 339 32 286 32 m 564 1069 l 604 1069 l 497 822 l 436 822 l 564 1069 z "},"ġ":{"ha":833,"x_min":63,"x_max":731,"o":"m 289 -294 q 153 -269 208 -294 q 63 -200 99 -244 l 97 -168 q 173 -229 126 -207 q 290 -251 219 -251 q 471 -194 401 -251 q 561 -8 540 -137 l 590 168 l 586 168 q 485 38 546 88 q 331 -11 425 -11 q 228 9 272 -11 q 153 65 183 29 q 108 152 124 101 q 93 264 93 203 q 116 444 93 358 q 182 594 139 529 q 288 696 225 658 q 431 733 350 733 q 580 694 522 733 q 658 589 638 654 l 663 589 l 683 717 l 731 717 l 607 -19 q 501 -228 583 -162 q 289 -294 419 -294 m 339 32 q 424 47 385 32 q 500 94 464 61 q 569 178 536 126 q 613 297 601 231 l 646 490 q 642 563 651 526 q 608 627 633 599 q 540 673 583 656 q 438 690 497 690 q 333 668 381 690 q 250 608 286 646 q 190 517 214 569 q 157 401 167 464 l 146 332 q 140 264 140 300 q 152 173 140 215 q 188 99 164 131 q 249 50 211 68 q 339 32 286 32 m 481 889 q 443 899 453 889 q 433 921 433 908 q 438 946 433 929 q 454 974 442 964 q 490 985 467 985 q 528 975 518 985 q 538 953 538 965 q 533 928 538 944 q 517 899 529 910 q 481 889 504 889 z "},"ħ":{"ha":833,"x_min":113,"x_max":699,"o":"m 258 875 l 161 875 l 167 914 l 265 914 l 283 1028 l 332 1028 l 313 914 l 538 914 l 531 875 l 307 875 l 253 556 l 258 556 q 357 686 299 639 q 507 733 415 733 q 649 681 599 733 q 699 535 699 629 q 697 494 699 515 q 692 453 694 474 l 615 0 l 568 0 l 643 449 q 648 489 646 468 q 650 528 650 510 q 494 690 650 690 q 400 670 446 690 q 317 603 354 650 q 294 573 307 590 q 269 533 282 556 q 247 483 257 510 q 231 425 236 456 l 160 0 l 113 0 l 258 875 z "},"ĥ":{"ha":833,"x_min":113,"x_max":699,"o":"m 283 1028 l 332 1028 l 253 556 l 258 556 q 357 686 299 639 q 507 733 415 733 q 649 681 599 733 q 699 535 699 629 q 697 494 699 515 q 692 453 694 474 l 615 0 l 568 0 l 643 449 q 648 489 646 468 q 650 528 650 510 q 494 690 650 690 q 400 670 446 690 q 317 603 354 650 q 294 573 307 590 q 269 533 282 556 q 247 483 257 510 q 231 425 236 456 l 160 0 l 113 0 l 283 1028 m 383 1303 l 524 1113 l 493 1093 l 351 1265 l 149 1093 l 122 1117 l 325 1303 l 383 1303 z "},"ı":{"ha":833,"x_min":124,"x_max":713,"o":"m 326 -17 q 293 -5 304 -17 q 282 26 282 7 q 283 43 282 33 q 289 76 285 53 l 406 675 l 124 675 l 131 717 l 461 717 l 329 36 l 342 29 l 688 275 l 713 244 l 428 39 q 367 -3 388 11 q 326 -17 346 -17 z "},"í":{"ha":833,"x_min":124,"x_max":713,"o":"m 326 -17 q 293 -5 304 -17 q 282 26 282 7 q 283 43 282 33 q 289 76 285 53 l 406 675 l 124 675 l 131 717 l 461 717 l 329 36 l 342 29 l 688 275 l 713 244 l 428 39 q 367 -3 388 11 q 326 -17 346 -17 m 439 825 l 408 846 l 590 1063 l 632 1036 l 439 825 z "},"ĭ":{"ha":833,"x_min":124,"x_max":713,"o":"m 326 -17 q 293 -5 304 -17 q 282 26 282 7 q 283 43 282 33 q 289 76 285 53 l 406 675 l 124 675 l 131 717 l 461 717 l 329 36 l 342 29 l 688 275 l 713 244 l 428 39 q 367 -3 388 11 q 326 -17 346 -17 m 460 843 q 391 857 418 843 q 345 895 364 871 q 313 953 326 919 q 289 1029 300 988 l 321 1044 l 346 981 q 393 906 369 928 q 461 885 417 885 q 535 906 504 885 q 608 981 567 926 l 654 1044 l 688 1029 q 639 953 663 988 q 590 895 615 919 q 533 857 564 871 q 460 843 501 843 z "},"î":{"ha":833,"x_min":124,"x_max":713,"o":"m 326 -17 q 293 -5 304 -17 q 282 26 282 7 q 283 43 282 33 q 289 76 285 53 l 406 675 l 124 675 l 131 717 l 461 717 l 329 36 l 342 29 l 688 275 l 713 244 l 428 39 q 367 -3 388 11 q 326 -17 346 -17 m 521 1050 l 661 860 l 631 840 l 489 1013 l 286 840 l 260 864 l 463 1050 l 521 1050 z "},"ï":{"ha":833,"x_min":124,"x_max":713,"o":"m 326 -17 q 293 -5 304 -17 q 282 26 282 7 q 283 43 282 33 q 289 76 285 53 l 406 675 l 124 675 l 131 717 l 461 717 l 329 36 l 342 29 l 688 275 l 713 244 l 428 39 q 367 -3 388 11 q 326 -17 346 -17 m 342 892 q 307 901 317 892 q 297 922 297 911 q 298 933 297 928 q 300 946 299 939 q 351 983 307 983 q 386 974 376 983 q 396 953 396 964 q 395 942 396 947 q 393 929 394 936 q 342 892 386 892 m 594 892 q 560 901 569 892 q 550 922 550 911 q 551 933 550 928 q 553 946 551 939 q 604 983 560 983 q 639 974 629 983 q 649 953 649 964 q 648 942 649 947 q 646 929 647 936 q 594 892 639 892 z "},"ị":{"ha":833,"x_min":124,"x_max":713,"o":"m 483 940 q 446 950 456 940 q 436 972 436 960 q 440 997 436 981 q 457 1026 444 1015 q 493 1036 469 1036 q 531 1026 521 1036 q 540 1004 540 1017 q 536 979 540 996 q 519 951 532 961 q 483 940 507 940 m 326 -17 q 293 -5 304 -17 q 282 26 282 7 q 283 43 282 33 q 289 76 285 53 l 406 675 l 124 675 l 131 717 l 461 717 l 329 36 l 342 29 l 688 275 l 713 244 l 428 39 q 367 -3 388 11 q 326 -17 346 -17 m 292 -201 q 257 -192 267 -201 q 247 -171 247 -182 q 248 -160 247 -165 q 250 -147 249 -154 q 301 -110 257 -110 q 336 -119 326 -110 q 346 -140 346 -129 q 345 -151 346 -146 q 343 -164 344 -157 q 292 -201 336 -201 z "},"ì":{"ha":833,"x_min":124,"x_max":713,"o":"m 326 -17 q 293 -5 304 -17 q 282 26 282 7 q 283 43 282 33 q 289 76 285 53 l 406 675 l 124 675 l 131 717 l 461 717 l 329 36 l 342 29 l 688 275 l 713 244 l 428 39 q 367 -3 388 11 q 326 -17 346 -17 m 351 1042 l 397 1063 l 504 842 l 471 825 l 351 1042 z "},"ỉ":{"ha":833,"x_min":124,"x_max":713,"o":"m 326 -17 q 293 -5 304 -17 q 282 26 282 7 q 283 43 282 33 q 289 76 285 53 l 406 675 l 124 675 l 131 717 l 461 717 l 329 36 l 342 29 l 688 275 l 713 244 l 428 39 q 367 -3 388 11 q 326 -17 346 -17 m 388 1043 l 563 1043 q 599 1034 588 1043 q 610 1010 610 1025 q 599 978 610 996 q 554 921 589 961 l 469 821 l 440 839 l 567 1004 l 381 1004 l 388 1043 z "},"ī":{"ha":833,"x_min":124,"x_max":713,"o":"m 326 -17 q 293 -5 304 -17 q 282 26 282 7 q 283 43 282 33 q 289 76 285 53 l 406 675 l 124 675 l 131 717 l 461 717 l 329 36 l 342 29 l 688 275 l 713 244 l 428 39 q 367 -3 388 11 q 326 -17 346 -17 m 294 960 l 658 960 l 651 918 l 288 918 l 294 960 z "},"į":{"ha":833,"x_min":124,"x_max":715,"o":"m 275 -282 q 198 -258 231 -282 q 165 -186 165 -235 q 199 -101 165 -140 q 318 -14 233 -61 l 318 -11 l 313 -11 q 290 -1 297 -11 q 282 24 282 10 q 283 40 282 31 q 289 76 283 50 l 406 675 l 124 675 l 131 717 l 461 717 l 329 36 l 342 29 l 688 275 l 715 244 l 388 13 q 305 -49 339 -24 q 250 -97 271 -75 q 219 -138 229 -118 q 210 -182 210 -158 q 229 -230 210 -214 q 276 -246 249 -246 q 328 -235 307 -246 q 363 -210 349 -225 l 389 -236 q 344 -269 374 -256 q 275 -282 314 -282 m 483 940 q 446 950 456 940 q 436 972 436 960 q 440 997 436 981 q 493 1036 447 1036 q 531 1026 521 1036 q 540 1003 540 1015 q 539 992 540 999 q 536 979 538 986 q 483 940 529 940 z "},"ĩ":{"ha":833,"x_min":124,"x_max":713,"o":"m 326 -17 q 293 -5 304 -17 q 282 26 282 7 q 283 43 282 33 q 289 76 285 53 l 406 675 l 124 675 l 131 717 l 461 717 l 329 36 l 342 29 l 688 275 l 713 244 l 428 39 q 367 -3 388 11 q 326 -17 346 -17 m 563 878 q 513 888 535 878 q 463 918 490 899 q 417 944 438 935 q 374 954 397 954 q 327 943 350 954 q 279 910 304 932 l 258 936 q 382 994 314 994 q 432 984 410 994 q 482 954 454 974 q 527 928 507 938 q 571 918 547 918 q 617 929 594 918 q 665 963 640 940 l 686 936 q 563 878 629 878 z "},"ĳ":{"ha":833,"x_min":115,"x_max":790,"o":"m 235 717 l 282 717 l 163 0 l 115 0 l 235 717 m 503 -294 q 467 -282 483 -294 q 428 -246 451 -269 l 264 -96 l 294 -64 l 497 -250 l 510 -247 l 669 717 l 718 717 l 561 -224 q 543 -275 556 -256 q 503 -294 531 -294 m 299 940 q 261 950 271 940 q 251 972 251 960 q 252 983 251 978 q 254 997 253 989 q 308 1036 264 1036 q 345 1026 335 1036 q 356 1003 356 1015 q 354 992 356 999 q 351 979 353 986 q 299 940 344 940 m 733 940 q 696 950 706 940 q 686 972 686 960 q 688 983 686 978 q 690 997 689 989 q 743 1036 697 1036 q 781 1026 771 1036 q 790 1003 790 1015 q 786 979 790 993 q 733 940 779 940 z "},"ȷ":{"ha":833,"x_min":138,"x_max":654,"o":"m 440 -294 q 406 -282 422 -294 q 357 -239 389 -269 l 138 -35 l 168 -4 l 433 -250 l 446 -247 l 600 675 l 201 675 l 208 717 l 654 717 l 497 -224 q 480 -275 492 -256 q 440 -294 468 -294 z "},"ĵ":{"ha":833,"x_min":138,"x_max":856,"o":"m 440 -294 q 406 -282 422 -294 q 357 -239 389 -269 l 138 -35 l 168 -4 l 433 -250 l 446 -247 l 600 675 l 201 675 l 208 717 l 654 717 l 497 -224 q 480 -275 492 -256 q 440 -294 468 -294 m 715 1050 l 856 860 l 825 840 l 683 1013 l 481 840 l 454 864 l 657 1050 l 715 1050 z "},"ķ":{"ha":833,"x_min":103,"x_max":796,"o":"m 274 1028 l 322 1028 l 244 556 l 249 556 q 365 691 296 649 q 518 733 435 733 q 660 687 614 733 q 707 568 707 640 q 693 497 707 533 q 643 426 679 461 q 542 360 607 392 q 376 306 478 329 l 529 29 l 539 28 l 769 240 l 796 211 l 624 49 q 567 -2 586 13 q 529 -17 549 -17 q 500 -6 511 -17 q 475 31 489 6 l 318 319 q 482 370 417 343 q 586 428 547 397 q 641 493 625 460 q 657 563 657 526 q 622 656 657 621 q 507 692 588 692 q 331 624 403 692 q 259 532 286 583 q 222 425 232 481 l 151 0 l 103 0 l 274 1028 m 283 -93 l 344 -93 l 246 -349 l 207 -349 l 283 -93 z "},"ĸ":{"ha":833,"x_min":125,"x_max":806,"o":"m 404 394 l 214 243 l 174 0 l 125 0 l 244 717 l 292 717 l 224 306 l 229 306 l 408 451 l 739 717 l 806 717 l 442 424 l 726 0 l 669 0 l 404 394 z "},"ĺ":{"ha":833,"x_min":168,"x_max":700,"o":"m 308 -17 q 276 -5 288 -17 q 265 26 265 7 q 267 44 265 33 q 271 75 268 56 l 449 986 l 168 986 l 175 1028 l 504 1028 l 311 35 l 326 29 l 675 276 l 700 246 l 410 38 q 349 -3 369 10 q 308 -17 328 -17 m 471 1078 l 440 1099 l 622 1315 l 664 1289 l 471 1078 z "},"ľ":{"ha":833,"x_min":168,"x_max":721,"o":"m 308 -17 q 276 -5 288 -17 q 265 26 265 7 q 267 44 265 33 q 271 75 268 56 l 449 986 l 168 986 l 175 1028 l 504 1028 l 311 35 l 326 29 l 675 276 l 700 246 l 410 38 q 349 -3 369 10 q 308 -17 328 -17 m 638 779 l 600 779 l 660 1028 l 721 1028 l 638 779 z "},"ļ":{"ha":833,"x_min":168,"x_max":700,"o":"m 308 -17 q 276 -5 288 -17 q 265 26 265 7 q 267 44 265 33 q 271 75 268 56 l 449 986 l 168 986 l 175 1028 l 504 1028 l 311 35 l 326 29 l 675 276 l 700 246 l 410 38 q 349 -3 369 10 q 308 -17 328 -17 m 265 -93 l 326 -93 l 228 -349 l 189 -349 l 265 -93 z "},"ŀ":{"ha":833,"x_min":168,"x_max":725,"o":"m 308 -17 q 276 -5 288 -17 q 265 26 265 7 q 267 44 265 33 q 271 75 268 56 l 449 986 l 168 986 l 175 1028 l 504 1028 l 311 35 l 326 29 l 675 276 l 700 246 l 410 38 q 349 -3 369 10 q 308 -17 328 -17 m 668 464 q 631 474 640 464 q 621 496 621 483 q 625 521 621 504 q 642 549 629 539 q 678 560 654 560 q 715 550 706 560 q 725 528 725 540 q 721 503 725 519 q 704 474 717 485 q 668 464 692 464 z "},"ł":{"ha":833,"x_min":113,"x_max":700,"o":"m 308 -17 q 276 -4 286 -17 q 265 26 265 8 q 266 44 265 33 q 271 75 267 56 l 342 435 l 113 365 l 119 410 l 350 481 l 449 986 l 168 986 l 175 1028 l 504 1028 l 401 494 l 640 567 l 633 522 l 393 449 l 311 35 l 326 29 l 675 276 l 700 246 l 410 38 q 349 -3 369 10 q 308 -17 328 -17 z "},"ń":{"ha":833,"x_min":113,"x_max":699,"o":"m 113 0 l 232 717 l 279 717 l 253 556 l 258 556 q 357 686 299 639 q 507 733 415 733 q 649 681 599 733 q 699 535 699 629 q 697 494 699 515 q 692 453 694 474 l 615 0 l 568 0 l 643 449 q 648 489 646 468 q 650 528 650 510 q 494 690 650 690 q 400 670 446 690 q 317 603 354 650 q 294 573 307 590 q 269 533 282 556 q 247 483 257 510 q 231 425 236 456 l 160 0 l 113 0 m 483 825 l 453 846 l 635 1063 l 676 1036 l 483 825 z "},"ň":{"ha":833,"x_min":113,"x_max":733,"o":"m 113 0 l 232 717 l 279 717 l 253 556 l 258 556 q 357 686 299 639 q 507 733 415 733 q 649 681 599 733 q 699 535 699 629 q 697 494 699 515 q 692 453 694 474 l 615 0 l 568 0 l 643 449 q 648 489 646 468 q 650 528 650 510 q 494 690 650 690 q 400 670 446 690 q 317 603 354 650 q 294 573 307 590 q 269 533 282 556 q 247 483 257 510 q 231 425 236 456 l 160 0 l 113 0 m 474 847 l 332 1038 l 363 1057 l 504 883 l 707 1057 l 733 1033 l 531 847 l 474 847 z "},"ņ":{"ha":833,"x_min":113,"x_max":699,"o":"m 113 0 l 232 717 l 279 717 l 253 556 l 258 556 q 357 686 299 639 q 507 733 415 733 q 649 681 599 733 q 699 535 699 629 q 697 494 699 515 q 692 453 694 474 l 615 0 l 568 0 l 643 449 q 648 489 646 468 q 650 528 650 510 q 494 690 650 690 q 400 670 446 690 q 317 603 354 650 q 294 573 307 590 q 269 533 282 556 q 247 483 257 510 q 231 425 236 456 l 160 0 l 113 0 m 315 -93 l 376 -93 l 278 -349 l 239 -349 l 315 -93 z "},"ñ":{"ha":833,"x_min":113,"x_max":731,"o":"m 113 0 l 232 717 l 279 717 l 253 556 l 258 556 q 357 686 299 639 q 507 733 415 733 q 649 681 599 733 q 699 535 699 629 q 697 494 699 515 q 692 453 694 474 l 615 0 l 568 0 l 643 449 q 648 489 646 468 q 650 528 650 510 q 494 690 650 690 q 400 670 446 690 q 317 603 354 650 q 294 573 307 590 q 269 533 282 556 q 247 483 257 510 q 231 425 236 456 l 160 0 l 113 0 m 607 878 q 557 888 579 878 q 507 918 535 899 q 462 944 482 935 q 418 954 442 954 q 372 943 394 954 q 324 910 349 932 l 303 936 q 426 994 358 994 q 476 984 454 994 q 526 954 499 974 q 572 928 551 938 q 615 918 592 918 q 662 929 639 918 q 710 963 685 940 l 731 936 q 607 878 674 878 z "},"ŉ":{"ha":833,"x_min":61,"x_max":699,"o":"m 232 717 l 279 717 l 253 556 l 257 556 q 356 685 297 638 q 506 733 415 733 q 649 681 599 733 q 699 535 699 629 q 697 495 699 515 q 692 453 694 475 l 615 0 l 568 0 l 643 450 q 648 490 646 469 q 650 528 650 510 q 494 690 650 690 q 400 670 446 690 q 317 603 354 650 q 294 573 307 590 q 269 533 282 556 q 247 483 257 510 q 231 425 236 456 l 161 0 l 113 0 l 232 717 m 176 1028 l 251 1028 l 97 703 l 61 703 l 176 1028 z "},"ŋ":{"ha":833,"x_min":113,"x_max":699,"o":"m 519 -294 q 484 -282 500 -294 q 444 -246 468 -269 l 274 -90 l 306 -60 l 514 -250 l 526 -247 l 643 449 q 648 489 646 468 q 650 528 650 510 q 494 690 650 690 q 400 670 446 690 q 317 603 354 650 q 294 573 307 590 q 269 533 282 556 q 247 483 257 510 q 231 425 236 456 l 160 0 l 113 0 l 232 717 l 279 717 l 253 556 l 258 556 q 357 686 299 639 q 507 733 415 733 q 649 681 599 733 q 699 535 699 629 q 697 494 699 515 q 692 453 694 474 l 578 -224 q 560 -275 572 -256 q 519 -294 547 -294 z "},"ó":{"ha":833,"x_min":108,"x_max":725,"o":"m 369 -17 q 257 4 306 -17 q 175 62 208 25 q 125 149 142 99 q 108 260 108 200 q 134 458 108 369 q 206 607 160 546 q 319 701 253 668 q 464 733 385 733 q 576 713 528 733 q 658 655 625 692 q 708 567 692 618 q 725 457 725 517 q 699 258 725 346 q 627 110 674 171 q 515 16 581 49 q 369 -17 449 -17 m 372 26 q 564 103 492 26 q 660 317 636 181 l 672 389 q 676 424 675 410 q 678 463 678 439 q 665 554 678 513 q 625 626 651 596 q 558 673 599 656 q 461 690 517 690 q 269 613 342 690 q 174 400 197 536 l 161 328 q 157 292 158 307 q 156 254 156 278 q 169 163 156 204 q 208 91 182 121 q 276 44 235 61 q 372 26 317 26 m 468 825 l 438 846 l 619 1063 l 661 1036 l 468 825 z "},"ŏ":{"ha":833,"x_min":108,"x_max":725,"o":"m 369 -17 q 257 4 306 -17 q 175 62 208 25 q 125 149 142 99 q 108 260 108 200 q 134 458 108 369 q 206 607 160 546 q 319 701 253 668 q 464 733 385 733 q 576 713 528 733 q 658 655 625 692 q 708 567 692 618 q 725 457 725 517 q 699 258 725 346 q 627 110 674 171 q 515 16 581 49 q 369 -17 449 -17 m 372 26 q 564 103 492 26 q 660 317 636 181 l 672 389 q 676 424 675 410 q 678 463 678 439 q 665 554 678 513 q 625 626 651 596 q 558 673 599 656 q 461 690 517 690 q 269 613 342 690 q 174 400 197 536 l 161 328 q 157 292 158 307 q 156 254 156 278 q 169 163 156 204 q 208 91 182 121 q 276 44 235 61 q 372 26 317 26 m 489 843 q 420 857 447 843 q 374 895 393 871 q 342 953 356 919 q 318 1029 329 988 l 350 1044 l 375 981 q 422 906 399 928 q 490 885 446 885 q 565 906 533 885 q 638 981 596 926 l 683 1044 l 717 1029 q 668 953 692 988 q 619 895 644 919 q 562 857 593 871 q 489 843 531 843 z "},"ô":{"ha":833,"x_min":108,"x_max":725,"o":"m 369 -17 q 257 4 306 -17 q 175 62 208 25 q 125 149 142 99 q 108 260 108 200 q 134 458 108 369 q 206 607 160 546 q 319 701 253 668 q 464 733 385 733 q 576 713 528 733 q 658 655 625 692 q 708 567 692 618 q 725 457 725 517 q 699 258 725 346 q 627 110 674 171 q 515 16 581 49 q 369 -17 449 -17 m 372 26 q 564 103 492 26 q 660 317 636 181 l 672 389 q 676 424 675 410 q 678 463 678 439 q 665 554 678 513 q 625 626 651 596 q 558 673 599 656 q 461 690 517 690 q 269 613 342 690 q 174 400 197 536 l 161 328 q 157 292 158 307 q 156 254 156 278 q 169 163 156 204 q 208 91 182 121 q 276 44 235 61 q 372 26 317 26 m 550 1050 l 690 860 l 660 840 l 518 1013 l 315 840 l 289 864 l 492 1050 l 550 1050 z "},"ö":{"ha":833,"x_min":108,"x_max":725,"o":"m 369 -17 q 257 4 306 -17 q 175 62 208 25 q 125 149 142 99 q 108 260 108 200 q 134 458 108 369 q 206 607 160 546 q 319 701 253 668 q 464 733 385 733 q 576 713 528 733 q 658 655 625 692 q 708 567 692 618 q 725 457 725 517 q 699 258 725 346 q 627 110 674 171 q 515 16 581 49 q 369 -17 449 -17 m 372 26 q 564 103 492 26 q 660 317 636 181 l 672 389 q 676 424 675 410 q 678 463 678 439 q 665 554 678 513 q 625 626 651 596 q 558 673 599 656 q 461 690 517 690 q 269 613 342 690 q 174 400 197 536 l 161 328 q 157 292 158 307 q 156 254 156 278 q 169 163 156 204 q 208 91 182 121 q 276 44 235 61 q 372 26 317 26 m 371 892 q 336 901 346 892 q 326 922 326 911 q 327 933 326 928 q 329 946 328 939 q 381 983 336 983 q 415 974 406 983 q 425 953 425 964 q 424 942 425 947 q 422 929 424 936 q 371 892 415 892 m 624 892 q 589 901 599 892 q 579 922 579 911 q 580 933 579 928 q 582 946 581 939 q 633 983 589 983 q 668 974 658 983 q 678 953 678 964 q 677 942 678 947 q 675 929 676 936 q 624 892 668 892 z "},"ọ":{"ha":833,"x_min":108,"x_max":725,"o":"m 369 -17 q 257 4 306 -17 q 175 62 208 25 q 125 149 142 99 q 108 260 108 200 q 134 458 108 369 q 206 607 160 546 q 319 701 253 668 q 464 733 385 733 q 576 713 528 733 q 658 655 625 692 q 708 567 692 618 q 725 457 725 517 q 699 258 725 346 q 627 110 674 171 q 515 16 581 49 q 369 -17 449 -17 m 372 26 q 564 103 492 26 q 660 317 636 181 l 672 389 q 676 424 675 410 q 678 463 678 439 q 665 554 678 513 q 625 626 651 596 q 558 673 599 656 q 461 690 517 690 q 269 613 342 690 q 174 400 197 536 l 161 328 q 157 292 158 307 q 156 254 156 278 q 169 163 156 204 q 208 91 182 121 q 276 44 235 61 q 372 26 317 26 m 336 -201 q 301 -192 311 -201 q 292 -171 292 -182 q 292 -160 292 -165 q 294 -147 293 -154 q 346 -110 301 -110 q 381 -119 371 -110 q 390 -140 390 -129 q 390 -151 390 -146 q 388 -164 389 -157 q 336 -201 381 -201 z "},"ò":{"ha":833,"x_min":108,"x_max":725,"o":"m 369 -17 q 257 4 306 -17 q 175 62 208 25 q 125 149 142 99 q 108 260 108 200 q 134 458 108 369 q 206 607 160 546 q 319 701 253 668 q 464 733 385 733 q 576 713 528 733 q 658 655 625 692 q 708 567 692 618 q 725 457 725 517 q 699 258 725 346 q 627 110 674 171 q 515 16 581 49 q 369 -17 449 -17 m 372 26 q 564 103 492 26 q 660 317 636 181 l 672 389 q 676 424 675 410 q 678 463 678 439 q 665 554 678 513 q 625 626 651 596 q 558 673 599 656 q 461 690 517 690 q 269 613 342 690 q 174 400 197 536 l 161 328 q 157 292 158 307 q 156 254 156 278 q 169 163 156 204 q 208 91 182 121 q 276 44 235 61 q 372 26 317 26 m 381 1042 l 426 1063 l 533 842 l 500 825 l 381 1042 z "},"ỏ":{"ha":833,"x_min":108,"x_max":725,"o":"m 369 -17 q 257 4 306 -17 q 175 62 208 25 q 125 149 142 99 q 108 260 108 200 q 134 458 108 369 q 206 607 160 546 q 319 701 253 668 q 464 733 385 733 q 576 713 528 733 q 658 655 625 692 q 708 567 692 618 q 725 457 725 517 q 699 258 725 346 q 627 110 674 171 q 515 16 581 49 q 369 -17 449 -17 m 372 26 q 564 103 492 26 q 660 317 636 181 l 672 389 q 676 424 675 410 q 678 463 678 439 q 665 554 678 513 q 625 626 651 596 q 558 673 599 656 q 461 690 517 690 q 269 613 342 690 q 174 400 197 536 l 161 328 q 157 292 158 307 q 156 254 156 278 q 169 163 156 204 q 208 91 182 121 q 276 44 235 61 q 372 26 317 26 m 417 1043 l 592 1043 q 628 1034 617 1043 q 639 1010 639 1025 q 628 978 639 996 q 583 921 618 961 l 499 821 l 469 839 l 596 1004 l 410 1004 l 417 1043 z "},"ő":{"ha":833,"x_min":108,"x_max":790,"o":"m 369 -17 q 257 4 306 -17 q 175 62 208 25 q 125 149 142 99 q 108 260 108 200 q 134 458 108 369 q 206 607 160 546 q 319 701 253 668 q 464 733 385 733 q 576 713 528 733 q 658 655 625 692 q 708 567 692 618 q 725 457 725 517 q 699 258 725 346 q 627 110 674 171 q 515 16 581 49 q 369 -17 449 -17 m 372 26 q 564 103 492 26 q 660 317 636 181 l 672 389 q 676 424 675 410 q 678 463 678 439 q 665 554 678 513 q 625 626 651 596 q 558 673 599 656 q 461 690 517 690 q 269 613 342 690 q 174 400 197 536 l 161 328 q 157 292 158 307 q 156 254 156 278 q 169 163 156 204 q 208 91 182 121 q 276 44 235 61 q 372 26 317 26 m 375 825 l 346 846 l 528 1063 l 568 1036 l 375 825 m 599 825 l 569 846 l 750 1063 l 790 1036 l 599 825 z "},"ō":{"ha":833,"x_min":108,"x_max":725,"o":"m 369 -17 q 257 4 306 -17 q 175 62 208 25 q 125 149 142 99 q 108 260 108 200 q 134 458 108 369 q 206 607 160 546 q 319 701 253 668 q 464 733 385 733 q 576 713 528 733 q 658 655 625 692 q 708 567 692 618 q 725 457 725 517 q 699 258 725 346 q 627 110 674 171 q 515 16 581 49 q 369 -17 449 -17 m 372 26 q 564 103 492 26 q 660 317 636 181 l 672 389 q 676 424 675 410 q 678 463 678 439 q 665 554 678 513 q 625 626 651 596 q 558 673 599 656 q 461 690 517 690 q 269 613 342 690 q 174 400 197 536 l 161 328 q 157 292 158 307 q 156 254 156 278 q 169 163 156 204 q 208 91 182 121 q 276 44 235 61 q 372 26 317 26 m 324 960 l 688 960 l 681 918 l 317 918 l 324 960 z "},"ø":{"ha":833,"x_min":38,"x_max":796,"o":"m 38 -15 l 147 101 q 108 260 108 168 q 134 458 108 369 q 206 607 160 546 q 319 701 253 668 q 464 733 385 733 q 582 710 532 733 q 665 646 632 686 l 768 756 l 796 732 l 686 615 q 725 457 725 549 q 699 258 725 346 q 627 110 674 171 q 515 16 581 49 q 369 -17 449 -17 q 251 7 301 -17 q 168 71 201 31 l 65 -39 l 38 -15 m 461 690 q 269 613 342 690 q 174 400 197 536 l 161 328 q 157 292 158 307 q 156 254 156 278 q 161 191 156 221 q 181 135 167 161 l 635 615 q 565 671 607 651 q 461 690 522 690 m 372 26 q 564 103 492 26 q 660 317 636 181 l 672 389 q 676 424 675 410 q 678 463 678 439 q 672 526 678 496 q 653 582 667 556 l 199 101 q 269 46 226 65 q 372 26 311 26 z "},"ǿ":{"ha":833,"x_min":38,"x_max":796,"o":"m 38 -15 l 147 101 q 108 260 108 168 q 134 458 108 369 q 206 607 160 546 q 319 701 253 668 q 464 733 385 733 q 582 710 532 733 q 665 646 632 686 l 768 756 l 796 732 l 686 615 q 725 457 725 549 q 699 258 725 346 q 627 110 674 171 q 515 16 581 49 q 369 -17 449 -17 q 251 7 301 -17 q 168 71 201 31 l 65 -39 l 38 -15 m 461 690 q 269 613 342 690 q 174 400 197 536 l 161 328 q 157 292 158 307 q 156 254 156 278 q 161 191 156 221 q 181 135 167 161 l 635 615 q 565 671 607 651 q 461 690 522 690 m 372 26 q 564 103 492 26 q 660 317 636 181 l 672 389 q 676 424 675 410 q 678 463 678 439 q 672 526 678 496 q 653 582 667 556 l 199 101 q 269 46 226 65 q 372 26 311 26 m 468 825 l 438 846 l 619 1063 l 661 1036 l 468 825 z "},"õ":{"ha":833,"x_min":108,"x_max":725,"o":"m 369 -17 q 257 4 306 -17 q 175 62 208 25 q 125 149 142 99 q 108 260 108 200 q 134 458 108 369 q 206 607 160 546 q 319 701 253 668 q 464 733 385 733 q 576 713 528 733 q 658 655 625 692 q 708 567 692 618 q 725 457 725 517 q 699 258 725 346 q 627 110 674 171 q 515 16 581 49 q 369 -17 449 -17 m 372 26 q 564 103 492 26 q 660 317 636 181 l 672 389 q 676 424 675 410 q 678 463 678 439 q 665 554 678 513 q 625 626 651 596 q 558 673 599 656 q 461 690 517 690 q 269 613 342 690 q 174 400 197 536 l 161 328 q 157 292 158 307 q 156 254 156 278 q 169 163 156 204 q 208 91 182 121 q 276 44 235 61 q 372 26 317 26 m 592 878 q 542 888 564 878 q 492 918 519 899 q 447 944 467 935 q 403 954 426 954 q 356 943 379 954 q 308 910 333 932 l 288 936 q 411 994 343 994 q 461 984 439 994 q 511 954 483 974 q 556 928 536 938 q 600 918 576 918 q 647 929 624 918 q 694 963 669 940 l 715 936 q 592 878 658 878 z "},"ơ":{"ha":833,"x_min":108,"x_max":792,"o":"m 792 871 l 769 732 q 708 682 761 682 l 629 682 q 701 588 678 646 q 725 457 725 529 q 699 258 725 346 q 627 110 674 171 q 515 16 581 49 q 369 -17 449 -17 q 257 4 306 -17 q 175 62 208 25 q 125 149 142 99 q 108 260 108 200 q 134 458 108 369 q 206 607 160 546 q 319 701 253 668 q 464 733 385 733 q 567 717 521 733 l 721 717 l 746 871 l 792 871 m 372 26 q 564 103 492 26 q 660 317 636 181 l 672 389 q 676 424 675 410 q 678 463 678 439 q 665 554 678 513 q 625 626 651 596 q 558 673 599 656 q 461 690 517 690 q 269 613 342 690 q 174 400 197 536 l 161 328 q 157 292 158 307 q 156 254 156 278 q 169 163 156 204 q 208 91 182 121 q 276 44 235 61 q 372 26 317 26 z "},"ớ":{"ha":833,"x_min":108,"x_max":792,"o":"m 792 871 l 769 732 q 708 682 761 682 l 629 682 q 701 588 678 646 q 725 457 725 529 q 699 258 725 346 q 627 110 674 171 q 515 16 581 49 q 369 -17 449 -17 q 257 4 306 -17 q 175 62 208 25 q 125 149 142 99 q 108 260 108 200 q 134 458 108 369 q 206 607 160 546 q 319 701 253 668 q 464 733 385 733 q 567 717 521 733 l 721 717 l 746 871 l 792 871 m 372 26 q 564 103 492 26 q 660 317 636 181 l 672 389 q 676 424 675 410 q 678 463 678 439 q 665 554 678 513 q 625 626 651 596 q 558 673 599 656 q 461 690 517 690 q 269 613 342 690 q 174 400 197 536 l 161 328 q 157 292 158 307 q 156 254 156 278 q 169 163 156 204 q 208 91 182 121 q 276 44 235 61 q 372 26 317 26 m 468 825 l 438 846 l 619 1063 l 661 1036 l 468 825 z "},"ợ":{"ha":833,"x_min":108,"x_max":792,"o":"m 792 871 l 769 732 q 708 682 761 682 l 629 682 q 701 588 678 646 q 725 457 725 529 q 699 258 725 346 q 627 110 674 171 q 515 16 581 49 q 369 -17 449 -17 q 257 4 306 -17 q 175 62 208 25 q 125 149 142 99 q 108 260 108 200 q 134 458 108 369 q 206 607 160 546 q 319 701 253 668 q 464 733 385 733 q 567 717 521 733 l 721 717 l 746 871 l 792 871 m 372 26 q 564 103 492 26 q 660 317 636 181 l 672 389 q 676 424 675 410 q 678 463 678 439 q 665 554 678 513 q 625 626 651 596 q 558 673 599 656 q 461 690 517 690 q 269 613 342 690 q 174 400 197 536 l 161 328 q 157 292 158 307 q 156 254 156 278 q 169 163 156 204 q 208 91 182 121 q 276 44 235 61 q 372 26 317 26 m 336 -201 q 301 -192 311 -201 q 292 -171 292 -182 q 292 -160 292 -165 q 294 -147 293 -154 q 346 -110 301 -110 q 381 -119 371 -110 q 390 -140 390 -129 q 390 -151 390 -146 q 388 -164 389 -157 q 336 -201 381 -201 z "},"ờ":{"ha":833,"x_min":108,"x_max":792,"o":"m 792 871 l 769 732 q 708 682 761 682 l 629 682 q 701 588 678 646 q 725 457 725 529 q 699 258 725 346 q 627 110 674 171 q 515 16 581 49 q 369 -17 449 -17 q 257 4 306 -17 q 175 62 208 25 q 125 149 142 99 q 108 260 108 200 q 134 458 108 369 q 206 607 160 546 q 319 701 253 668 q 464 733 385 733 q 567 717 521 733 l 721 717 l 746 871 l 792 871 m 372 26 q 564 103 492 26 q 660 317 636 181 l 672 389 q 676 424 675 410 q 678 463 678 439 q 665 554 678 513 q 625 626 651 596 q 558 673 599 656 q 461 690 517 690 q 269 613 342 690 q 174 400 197 536 l 161 328 q 157 292 158 307 q 156 254 156 278 q 169 163 156 204 q 208 91 182 121 q 276 44 235 61 q 372 26 317 26 m 381 1042 l 426 1063 l 533 842 l 500 825 l 381 1042 z "},"ở":{"ha":833,"x_min":108,"x_max":792,"o":"m 792 871 l 769 732 q 708 682 761 682 l 629 682 q 701 588 678 646 q 725 457 725 529 q 699 258 725 346 q 627 110 674 171 q 515 16 581 49 q 369 -17 449 -17 q 257 4 306 -17 q 175 62 208 25 q 125 149 142 99 q 108 260 108 200 q 134 458 108 369 q 206 607 160 546 q 319 701 253 668 q 464 733 385 733 q 567 717 521 733 l 721 717 l 746 871 l 792 871 m 372 26 q 564 103 492 26 q 660 317 636 181 l 672 389 q 676 424 675 410 q 678 463 678 439 q 665 554 678 513 q 625 626 651 596 q 558 673 599 656 q 461 690 517 690 q 269 613 342 690 q 174 400 197 536 l 161 328 q 157 292 158 307 q 156 254 156 278 q 169 163 156 204 q 208 91 182 121 q 276 44 235 61 q 372 26 317 26 m 417 1043 l 592 1043 q 628 1034 617 1043 q 639 1010 639 1025 q 628 978 639 996 q 583 921 618 961 l 499 821 l 469 839 l 596 1004 l 410 1004 l 417 1043 z "},"ỡ":{"ha":833,"x_min":108,"x_max":792,"o":"m 792 871 l 769 732 q 708 682 761 682 l 629 682 q 701 588 678 646 q 725 457 725 529 q 699 258 725 346 q 627 110 674 171 q 515 16 581 49 q 369 -17 449 -17 q 257 4 306 -17 q 175 62 208 25 q 125 149 142 99 q 108 260 108 200 q 134 458 108 369 q 206 607 160 546 q 319 701 253 668 q 464 733 385 733 q 567 717 521 733 l 721 717 l 746 871 l 792 871 m 372 26 q 564 103 492 26 q 660 317 636 181 l 672 389 q 676 424 675 410 q 678 463 678 439 q 665 554 678 513 q 625 626 651 596 q 558 673 599 656 q 461 690 517 690 q 269 613 342 690 q 174 400 197 536 l 161 328 q 157 292 158 307 q 156 254 156 278 q 169 163 156 204 q 208 91 182 121 q 276 44 235 61 q 372 26 317 26 m 554 879 q 506 889 526 879 q 457 918 486 899 q 414 944 433 935 q 372 953 394 953 q 279 910 328 953 l 257 935 q 379 993 311 993 q 427 983 407 993 q 476 954 447 974 q 519 928 500 938 q 561 919 539 919 q 654 963 606 919 l 676 938 q 554 879 622 879 z "},"ố":{"ha":833,"x_min":108,"x_max":875,"o":"m 369 -17 q 257 4 306 -17 q 175 62 208 25 q 125 149 142 99 q 108 260 108 200 q 134 458 108 369 q 206 607 160 546 q 319 701 253 668 q 464 733 385 733 q 576 713 528 733 q 658 655 625 692 q 708 567 692 618 q 725 457 725 517 q 699 258 725 346 q 627 110 674 171 q 515 16 581 49 q 369 -17 449 -17 m 372 26 q 564 103 492 26 q 660 317 636 181 l 672 389 q 676 424 675 410 q 678 463 678 439 q 665 554 678 513 q 625 626 651 596 q 558 673 599 656 q 461 690 517 690 q 269 613 342 690 q 174 400 197 536 l 161 328 q 157 292 158 307 q 156 254 156 278 q 169 163 156 204 q 208 91 182 121 q 276 44 235 61 q 372 26 317 26 m 682 982 l 653 1003 l 835 1219 l 875 1193 l 682 982 m 547 1038 l 688 847 l 657 828 l 515 1001 l 313 828 l 286 851 l 489 1038 l 547 1038 z "},"ộ":{"ha":833,"x_min":108,"x_max":725,"o":"m 369 -17 q 257 4 306 -17 q 175 62 208 25 q 125 149 142 99 q 108 260 108 200 q 134 458 108 369 q 206 607 160 546 q 319 701 253 668 q 464 733 385 733 q 576 713 528 733 q 658 655 625 692 q 708 567 692 618 q 725 457 725 517 q 699 258 725 346 q 627 110 674 171 q 515 16 581 49 q 369 -17 449 -17 m 372 26 q 564 103 492 26 q 660 317 636 181 l 672 389 q 676 424 675 410 q 678 463 678 439 q 665 554 678 513 q 625 626 651 596 q 558 673 599 656 q 461 690 517 690 q 269 613 342 690 q 174 400 197 536 l 161 328 q 157 292 158 307 q 156 254 156 278 q 169 163 156 204 q 208 91 182 121 q 276 44 235 61 q 372 26 317 26 m 550 1050 l 690 860 l 660 840 l 518 1013 l 315 840 l 289 864 l 492 1050 l 550 1050 m 336 -201 q 301 -192 311 -201 q 292 -171 292 -182 q 292 -160 292 -165 q 294 -147 293 -154 q 346 -110 301 -110 q 381 -119 371 -110 q 390 -140 390 -129 q 390 -151 390 -146 q 388 -164 389 -157 q 336 -201 381 -201 z "},"ồ":{"ha":833,"x_min":108,"x_max":725,"o":"m 369 -17 q 257 4 306 -17 q 175 62 208 25 q 125 149 142 99 q 108 260 108 200 q 134 458 108 369 q 206 607 160 546 q 319 701 253 668 q 464 733 385 733 q 576 713 528 733 q 658 655 625 692 q 708 567 692 618 q 725 457 725 517 q 699 258 725 346 q 627 110 674 171 q 515 16 581 49 q 369 -17 449 -17 m 372 26 q 564 103 492 26 q 660 317 636 181 l 672 389 q 676 424 675 410 q 678 463 678 439 q 665 554 678 513 q 625 626 651 596 q 558 673 599 656 q 461 690 517 690 q 269 613 342 690 q 174 400 197 536 l 161 328 q 157 292 158 307 q 156 254 156 278 q 169 163 156 204 q 208 91 182 121 q 276 44 235 61 q 372 26 317 26 m 219 1201 l 264 1222 l 372 1000 l 339 985 l 219 1201 m 547 1038 l 688 847 l 657 828 l 515 1001 l 313 828 l 286 851 l 489 1038 l 547 1038 z "},"ổ":{"ha":833,"x_min":108,"x_max":825,"o":"m 369 -17 q 257 4 306 -17 q 175 62 208 25 q 125 149 142 99 q 108 260 108 200 q 134 458 108 369 q 206 607 160 546 q 319 701 253 668 q 464 733 385 733 q 576 713 528 733 q 658 655 625 692 q 708 567 692 618 q 725 457 725 517 q 699 258 725 346 q 627 110 674 171 q 515 16 581 49 q 369 -17 449 -17 m 372 26 q 564 103 492 26 q 660 317 636 181 l 672 389 q 676 424 675 410 q 678 463 678 439 q 665 554 678 513 q 625 626 651 596 q 558 673 599 656 q 461 690 517 690 q 269 613 342 690 q 174 400 197 536 l 161 328 q 157 292 158 307 q 156 254 156 278 q 169 163 156 204 q 208 91 182 121 q 276 44 235 61 q 372 26 317 26 m 604 1203 l 778 1203 q 815 1194 804 1203 q 825 1169 825 1185 q 816 1142 825 1157 q 775 1088 807 1126 l 686 979 l 656 999 l 783 1164 l 597 1164 l 604 1203 m 547 1038 l 688 847 l 657 828 l 515 1001 l 313 828 l 286 851 l 489 1038 l 547 1038 z "},"ỗ":{"ha":833,"x_min":108,"x_max":751,"o":"m 369 -17 q 257 4 306 -17 q 175 62 208 25 q 125 149 142 99 q 108 260 108 200 q 134 458 108 369 q 206 607 160 546 q 319 701 253 668 q 464 733 385 733 q 576 713 528 733 q 658 655 625 692 q 708 567 692 618 q 725 457 725 517 q 699 258 725 346 q 627 110 674 171 q 515 16 581 49 q 369 -17 449 -17 m 372 26 q 564 103 492 26 q 660 317 636 181 l 672 389 q 676 424 675 410 q 678 463 678 439 q 665 554 678 513 q 625 626 651 596 q 558 673 599 656 q 461 690 517 690 q 269 613 342 690 q 174 400 197 536 l 161 328 q 157 292 158 307 q 156 254 156 278 q 169 163 156 204 q 208 91 182 121 q 276 44 235 61 q 372 26 317 26 m 446 1201 q 497 1191 474 1201 q 547 1161 519 1181 q 592 1135 572 1144 q 635 1126 613 1126 q 682 1138 660 1126 q 731 1171 704 1149 l 751 1144 q 629 1088 696 1088 q 578 1098 601 1088 q 528 1128 556 1108 q 483 1153 503 1144 q 440 1163 463 1163 q 393 1151 415 1163 q 344 1118 371 1140 l 324 1144 q 446 1201 379 1201 m 547 1035 l 689 847 l 657 828 l 515 999 l 314 828 l 288 853 l 489 1035 l 547 1035 z "},"œ":{"ha":833,"x_min":32,"x_max":831,"o":"m 554 -17 q 444 30 488 -17 q 397 168 401 76 l 393 168 q 310 30 365 76 q 188 -17 256 -17 q 72 43 113 -17 q 32 225 32 103 q 51 424 32 332 q 105 585 69 517 q 190 694 140 654 q 301 733 239 733 q 410 680 371 733 q 450 533 449 626 l 454 533 q 551 687 490 640 q 685 733 613 733 q 792 692 753 733 q 831 586 831 650 q 809 485 831 529 q 741 409 788 440 q 622 360 694 378 q 444 340 549 343 l 442 321 q 431 214 431 257 q 464 69 431 114 q 556 24 497 24 q 662 65 618 24 q 738 176 706 106 l 775 160 q 737 91 758 124 q 688 35 715 58 q 628 -3 661 11 q 554 -17 594 -17 m 192 22 q 315 88 260 22 q 393 306 369 154 l 407 399 q 413 450 411 426 q 415 499 415 474 q 299 694 415 694 q 176 628 231 694 q 97 411 121 563 l 83 318 q 77 267 79 290 q 75 218 75 243 q 192 22 75 22 m 679 694 q 602 674 639 694 q 535 616 565 654 q 484 523 506 578 q 454 400 463 468 l 451 376 q 706 430 625 381 q 786 583 786 479 q 758 665 786 636 q 679 694 729 694 z "},"ŕ":{"ha":833,"x_min":163,"x_max":828,"o":"m 286 0 l 399 675 l 163 675 l 169 717 l 453 717 l 431 579 l 435 579 q 476 637 454 611 q 527 680 499 663 q 592 707 556 697 q 676 717 628 717 l 828 717 l 821 671 l 667 671 q 507 621 575 671 q 447 559 475 597 q 411 468 419 521 l 333 0 l 286 0 m 511 825 l 481 846 l 663 1063 l 704 1036 l 511 825 z "},"ř":{"ha":833,"x_min":163,"x_max":828,"o":"m 286 0 l 399 675 l 163 675 l 169 717 l 453 717 l 431 579 l 435 579 q 476 637 454 611 q 527 680 499 663 q 592 707 556 697 q 676 717 628 717 l 828 717 l 821 671 l 667 671 q 507 621 575 671 q 447 559 475 597 q 411 468 419 521 l 333 0 l 286 0 m 501 847 l 360 1038 l 390 1057 l 532 883 l 735 1057 l 761 1033 l 558 847 l 501 847 z "},"ŗ":{"ha":833,"x_min":163,"x_max":828,"o":"m 286 0 l 399 675 l 163 675 l 169 717 l 453 717 l 431 579 l 435 579 q 476 637 454 611 q 527 680 499 663 q 592 707 556 697 q 676 717 628 717 l 828 717 l 821 671 l 667 671 q 507 621 575 671 q 447 559 475 597 q 411 468 419 521 l 333 0 l 286 0 m 264 -93 l 325 -93 l 226 -349 l 188 -349 l 264 -93 z "},"ś":{"ha":833,"x_min":82,"x_max":733,"o":"m 390 -17 q 82 124 175 -17 l 119 151 q 231 55 164 85 q 393 25 297 25 q 577 72 508 25 q 646 213 646 119 q 604 306 646 278 q 489 342 563 335 l 381 353 q 303 367 339 357 q 240 397 267 378 q 197 447 213 417 q 182 522 182 478 q 204 618 182 578 q 265 684 226 658 q 353 722 303 710 q 461 733 404 733 q 558 724 515 733 q 633 700 600 715 q 691 664 667 685 q 733 621 715 643 l 697 590 q 664 628 683 610 q 615 661 644 647 q 547 683 586 675 q 457 692 508 692 q 290 650 351 692 q 229 525 229 608 q 271 431 229 458 q 388 396 313 403 l 494 385 q 571 371 535 381 q 634 342 607 361 q 677 292 661 322 q 693 217 693 261 q 669 115 693 158 q 606 42 646 71 q 510 -2 565 13 q 390 -17 454 -17 m 467 825 l 436 846 l 618 1063 l 660 1036 l 467 825 z "},"š":{"ha":833,"x_min":82,"x_max":733,"o":"m 390 -17 q 82 124 175 -17 l 119 151 q 231 55 164 85 q 393 25 297 25 q 577 72 508 25 q 646 213 646 119 q 604 306 646 278 q 489 342 563 335 l 381 353 q 303 367 339 357 q 240 397 267 378 q 197 447 213 417 q 182 522 182 478 q 204 618 182 578 q 265 684 226 658 q 353 722 303 710 q 461 733 404 733 q 558 724 515 733 q 633 700 600 715 q 691 664 667 685 q 733 621 715 643 l 697 590 q 664 628 683 610 q 615 661 644 647 q 547 683 586 675 q 457 692 508 692 q 290 650 351 692 q 229 525 229 608 q 271 431 229 458 q 388 396 313 403 l 494 385 q 571 371 535 381 q 634 342 607 361 q 677 292 661 322 q 693 217 693 261 q 669 115 693 158 q 606 42 646 71 q 510 -2 565 13 q 390 -17 454 -17 m 457 847 l 315 1038 l 346 1057 l 488 883 l 690 1057 l 717 1033 l 514 847 l 457 847 z "},"ş":{"ha":833,"x_min":82,"x_max":733,"o":"m 340 -282 q 269 -268 297 -282 q 228 -235 240 -254 l 256 -208 q 290 -235 269 -225 q 340 -246 311 -246 q 406 -226 381 -246 q 432 -174 432 -206 q 416 -136 432 -151 q 356 -118 400 -121 l 306 -114 l 346 -15 q 82 124 165 -1 l 119 151 q 231 55 164 85 q 393 25 297 25 q 577 72 508 25 q 646 213 646 119 q 604 306 646 278 q 489 342 563 335 l 381 353 q 303 367 339 357 q 240 397 267 378 q 197 447 213 417 q 182 522 182 478 q 204 618 182 578 q 265 684 226 658 q 353 722 303 710 q 461 733 404 733 q 558 724 515 733 q 633 700 600 715 q 691 664 667 685 q 733 621 715 643 l 697 590 q 664 628 683 610 q 615 661 644 647 q 547 683 586 675 q 457 692 508 692 q 290 650 351 692 q 229 525 229 608 q 271 431 229 458 q 388 396 313 403 l 494 385 q 571 371 535 381 q 634 342 607 361 q 677 292 661 322 q 693 217 693 261 q 670 116 693 160 q 608 43 647 72 q 515 -1 568 14 q 399 -17 461 -15 l 381 -17 l 347 -97 l 350 -100 q 373 -97 361 -97 q 393 -96 385 -96 q 453 -116 432 -96 q 475 -172 475 -136 q 438 -251 475 -221 q 340 -282 401 -282 z "},"ŝ":{"ha":833,"x_min":82,"x_max":733,"o":"m 390 -17 q 82 124 175 -17 l 119 151 q 231 55 164 85 q 393 25 297 25 q 577 72 508 25 q 646 213 646 119 q 604 306 646 278 q 489 342 563 335 l 381 353 q 303 367 339 357 q 240 397 267 378 q 197 447 213 417 q 182 522 182 478 q 204 618 182 578 q 265 684 226 658 q 353 722 303 710 q 461 733 404 733 q 558 724 515 733 q 633 700 600 715 q 691 664 667 685 q 733 621 715 643 l 697 590 q 664 628 683 610 q 615 661 644 647 q 547 683 586 675 q 457 692 508 692 q 290 650 351 692 q 229 525 229 608 q 271 431 229 458 q 388 396 313 403 l 494 385 q 571 371 535 381 q 634 342 607 361 q 677 292 661 322 q 693 217 693 261 q 669 115 693 158 q 606 42 646 71 q 510 -2 565 13 q 390 -17 454 -17 m 549 1050 l 689 860 l 658 840 l 517 1013 l 314 840 l 288 864 l 490 1050 l 549 1050 z "},"ș":{"ha":833,"x_min":82,"x_max":733,"o":"m 390 -17 q 82 124 175 -17 l 119 151 q 231 55 164 85 q 393 25 297 25 q 577 72 508 25 q 646 213 646 119 q 604 306 646 278 q 489 342 563 335 l 381 353 q 303 367 339 357 q 240 397 267 378 q 197 447 213 417 q 182 522 182 478 q 204 618 182 578 q 265 684 226 658 q 353 722 303 710 q 461 733 404 733 q 558 724 515 733 q 633 700 600 715 q 691 664 667 685 q 733 621 715 643 l 697 590 q 664 628 683 610 q 615 661 644 647 q 547 683 586 675 q 457 692 508 692 q 290 650 351 692 q 229 525 229 608 q 271 431 229 458 q 388 396 313 403 l 494 385 q 571 371 535 381 q 634 342 607 361 q 677 292 661 322 q 693 217 693 261 q 669 115 693 158 q 606 42 646 71 q 510 -2 565 13 q 390 -17 454 -17 m 335 -93 l 396 -93 l 297 -349 l 258 -349 l 335 -93 z "},"ß":{"ha":833,"x_min":126,"x_max":796,"o":"m 126 0 l 285 958 q 311 1013 292 999 q 363 1028 331 1028 l 639 1028 l 632 986 l 338 986 l 293 717 l 796 717 l 789 669 l 431 289 q 556 273 499 288 q 653 230 613 258 q 716 159 693 201 q 739 61 739 117 q 646 -189 739 -100 q 347 -278 553 -278 l 236 -278 l 243 -236 l 347 -236 q 582 -184 503 -236 q 679 -25 661 -132 q 688 38 686 21 q 689 65 689 54 q 669 149 689 114 q 612 206 649 183 q 524 240 575 229 q 410 250 472 250 l 371 250 l 379 294 l 735 675 l 286 675 l 174 0 l 126 0 z "},"ŧ":{"ha":833,"x_min":107,"x_max":774,"o":"m 304 -17 q 261 26 261 -17 q 263 44 261 33 q 267 78 264 56 l 321 388 l 150 388 l 157 428 l 326 428 l 368 675 l 107 675 l 114 717 l 331 717 q 385 763 376 717 l 418 969 l 465 969 l 424 717 l 774 717 l 767 675 l 415 675 l 374 428 l 629 428 l 622 388 l 368 388 l 307 36 l 321 29 l 692 261 l 715 228 l 407 35 q 347 -3 369 10 q 304 -17 325 -17 z "},"ť":{"ha":833,"x_min":107,"x_max":774,"o":"m 304 -17 q 272 -6 283 -17 q 260 22 260 6 q 260 44 260 33 q 265 78 261 56 l 368 675 l 107 675 l 114 717 l 331 717 q 385 763 376 717 l 418 969 l 465 969 l 424 717 l 774 717 l 767 675 l 415 675 l 307 36 l 321 29 l 692 261 l 715 228 l 407 35 q 347 -3 369 10 q 304 -17 325 -17 m 644 807 l 607 807 l 667 1056 l 728 1056 l 644 807 z "},"ţ":{"ha":833,"x_min":107,"x_max":774,"o":"m 304 -17 q 272 -6 283 -17 q 260 22 260 6 q 260 44 260 33 q 265 78 261 56 l 368 675 l 107 675 l 114 717 l 331 717 q 385 763 376 717 l 418 969 l 465 969 l 424 717 l 774 717 l 767 675 l 415 675 l 307 36 l 321 29 l 692 261 l 715 228 l 407 35 q 347 -3 369 10 q 304 -17 325 -17 m 257 -93 l 318 -93 l 219 -349 l 181 -349 l 257 -93 z "},"ț":{"ha":833,"x_min":107,"x_max":774,"o":"m 304 -17 q 272 -6 283 -17 q 260 22 260 6 q 260 44 260 33 q 265 78 261 56 l 368 675 l 107 675 l 114 717 l 331 717 q 385 763 376 717 l 418 969 l 465 969 l 424 717 l 774 717 l 767 675 l 415 675 l 307 36 l 321 29 l 692 261 l 715 228 l 407 35 q 347 -3 369 10 q 304 -17 325 -17 m 257 -93 l 318 -93 l 219 -349 l 181 -349 l 257 -93 z "},"þ":{"ha":833,"x_min":56,"x_max":740,"o":"m 274 1028 l 321 1028 l 243 554 l 247 554 q 348 684 288 635 q 503 733 408 733 q 606 713 561 733 q 680 657 650 693 q 725 570 710 621 q 740 458 740 519 q 718 276 740 363 q 653 125 696 190 q 547 22 610 60 q 403 -17 483 -17 q 254 23 311 -17 q 176 128 197 63 l 171 128 l 103 -278 l 56 -278 l 274 1028 m 396 26 q 500 49 453 26 q 583 110 547 71 q 641 201 618 149 q 675 315 664 254 l 688 392 q 693 460 693 424 q 681 550 693 508 q 646 623 669 592 q 584 672 622 654 q 494 690 546 690 q 409 676 449 690 q 333 628 369 661 q 264 541 296 593 q 221 424 232 489 l 188 226 q 190 154 181 190 q 225 90 200 118 q 292 44 250 61 q 396 26 335 26 z "},"ú":{"ha":833,"x_min":133,"x_max":721,"o":"m 581 161 l 576 161 q 477 31 536 79 q 328 -17 418 -17 q 185 35 236 -17 q 133 182 133 88 q 136 222 133 201 q 142 264 139 243 l 218 717 l 265 717 l 190 268 q 185 228 188 249 q 183 189 183 207 q 339 26 183 26 q 434 47 388 26 q 517 114 481 67 q 539 144 526 126 q 564 184 551 161 q 587 234 576 207 q 603 292 597 261 l 674 717 l 721 717 l 601 0 l 554 0 l 581 161 m 472 825 l 442 846 l 624 1063 l 665 1036 l 472 825 z "},"ŭ":{"ha":833,"x_min":133,"x_max":721,"o":"m 581 161 l 576 161 q 477 31 536 79 q 328 -17 418 -17 q 185 35 236 -17 q 133 182 133 88 q 136 222 133 201 q 142 264 139 243 l 218 717 l 265 717 l 190 268 q 185 228 188 249 q 183 189 183 207 q 339 26 183 26 q 434 47 388 26 q 517 114 481 67 q 539 144 526 126 q 564 184 551 161 q 587 234 576 207 q 603 292 597 261 l 674 717 l 721 717 l 601 0 l 554 0 l 581 161 m 493 843 q 424 857 451 843 q 378 895 397 871 q 347 953 360 919 q 322 1029 333 988 l 354 1044 l 379 981 q 426 906 403 928 q 494 885 450 885 q 569 906 538 885 q 642 981 600 926 l 688 1044 l 721 1029 q 672 953 696 988 q 623 895 649 919 q 566 857 597 871 q 493 843 535 843 z "},"û":{"ha":833,"x_min":133,"x_max":721,"o":"m 581 161 l 576 161 q 477 31 536 79 q 328 -17 418 -17 q 185 35 236 -17 q 133 182 133 88 q 136 222 133 201 q 142 264 139 243 l 218 717 l 265 717 l 190 268 q 185 228 188 249 q 183 189 183 207 q 339 26 183 26 q 434 47 388 26 q 517 114 481 67 q 539 144 526 126 q 564 184 551 161 q 587 234 576 207 q 603 292 597 261 l 674 717 l 721 717 l 601 0 l 554 0 l 581 161 m 554 1050 l 694 860 l 664 840 l 522 1013 l 319 840 l 293 864 l 496 1050 l 554 1050 z "},"ü":{"ha":833,"x_min":133,"x_max":721,"o":"m 581 161 l 576 161 q 477 31 536 79 q 328 -17 418 -17 q 185 35 236 -17 q 133 182 133 88 q 136 222 133 201 q 142 264 139 243 l 218 717 l 265 717 l 190 268 q 185 228 188 249 q 183 189 183 207 q 339 26 183 26 q 434 47 388 26 q 517 114 481 67 q 539 144 526 126 q 564 184 551 161 q 587 234 576 207 q 603 292 597 261 l 674 717 l 721 717 l 601 0 l 554 0 l 581 161 m 375 892 q 340 901 350 892 q 331 922 331 911 q 331 933 331 928 q 333 946 332 939 q 385 983 340 983 q 419 974 410 983 q 429 953 429 964 q 428 942 429 947 q 426 929 428 936 q 375 892 419 892 m 628 892 q 593 901 603 892 q 583 922 583 911 q 584 933 583 928 q 586 946 585 939 q 638 983 593 983 q 672 974 663 983 q 682 953 682 964 q 681 942 682 947 q 679 929 681 936 q 628 892 672 892 z "},"ụ":{"ha":833,"x_min":133,"x_max":721,"o":"m 581 161 l 576 161 q 477 31 536 79 q 328 -17 418 -17 q 185 35 236 -17 q 133 182 133 88 q 136 222 133 201 q 142 264 139 243 l 218 717 l 265 717 l 190 268 q 185 228 188 249 q 183 189 183 207 q 339 26 183 26 q 434 47 388 26 q 517 114 481 67 q 539 144 526 126 q 564 184 551 161 q 587 234 576 207 q 603 292 597 261 l 674 717 l 721 717 l 601 0 l 554 0 l 581 161 m 322 -201 q 288 -192 297 -201 q 278 -171 278 -182 q 278 -160 278 -165 q 281 -147 279 -154 q 332 -110 288 -110 q 367 -119 357 -110 q 376 -140 376 -129 q 376 -151 376 -146 q 374 -164 375 -157 q 322 -201 367 -201 z "},"ù":{"ha":833,"x_min":133,"x_max":721,"o":"m 581 161 l 576 161 q 477 31 536 79 q 328 -17 418 -17 q 185 35 236 -17 q 133 182 133 88 q 136 222 133 201 q 142 264 139 243 l 218 717 l 265 717 l 190 268 q 185 228 188 249 q 183 189 183 207 q 339 26 183 26 q 434 47 388 26 q 517 114 481 67 q 539 144 526 126 q 564 184 551 161 q 587 234 576 207 q 603 292 597 261 l 674 717 l 721 717 l 601 0 l 554 0 l 581 161 m 385 1042 l 431 1063 l 538 842 l 504 825 l 385 1042 z "},"ủ":{"ha":833,"x_min":133,"x_max":721,"o":"m 581 161 l 576 161 q 477 31 536 79 q 328 -17 418 -17 q 185 35 236 -17 q 133 182 133 88 q 136 222 133 201 q 142 264 139 243 l 218 717 l 265 717 l 190 268 q 185 228 188 249 q 183 189 183 207 q 339 26 183 26 q 434 47 388 26 q 517 114 481 67 q 539 144 526 126 q 564 184 551 161 q 587 234 576 207 q 603 292 597 261 l 674 717 l 721 717 l 601 0 l 554 0 l 581 161 m 421 1043 l 596 1043 q 632 1034 621 1043 q 643 1010 643 1025 q 633 978 643 996 q 588 921 622 961 l 503 821 l 474 839 l 600 1004 l 414 1004 l 421 1043 z "},"ű":{"ha":833,"x_min":133,"x_max":794,"o":"m 581 161 l 576 161 q 477 31 536 79 q 328 -17 418 -17 q 185 35 236 -17 q 133 182 133 88 q 136 222 133 201 q 142 264 139 243 l 218 717 l 265 717 l 190 268 q 185 228 188 249 q 183 189 183 207 q 339 26 183 26 q 434 47 388 26 q 517 114 481 67 q 539 144 526 126 q 564 184 551 161 q 587 234 576 207 q 603 292 597 261 l 674 717 l 721 717 l 601 0 l 554 0 l 581 161 m 379 825 l 350 846 l 532 1063 l 572 1036 l 379 825 m 603 825 l 574 846 l 754 1063 l 794 1036 l 603 825 z "},"ū":{"ha":833,"x_min":133,"x_max":721,"o":"m 581 161 l 576 161 q 477 31 536 79 q 328 -17 418 -17 q 185 35 236 -17 q 133 182 133 88 q 136 222 133 201 q 142 264 139 243 l 218 717 l 265 717 l 190 268 q 185 228 188 249 q 183 189 183 207 q 339 26 183 26 q 434 47 388 26 q 517 114 481 67 q 539 144 526 126 q 564 184 551 161 q 587 234 576 207 q 603 292 597 261 l 674 717 l 721 717 l 601 0 l 554 0 l 581 161 m 328 960 l 692 960 l 685 918 l 321 918 l 328 960 z "},"ų":{"ha":833,"x_min":133,"x_max":721,"o":"m 601 0 q 510 -56 547 -32 q 451 -101 474 -81 q 418 -142 428 -122 q 408 -185 408 -162 q 428 -231 408 -217 q 476 -246 449 -246 q 526 -235 506 -246 q 563 -210 547 -225 l 589 -236 q 543 -269 572 -256 q 475 -282 514 -282 q 397 -260 431 -282 q 364 -189 364 -237 q 372 -146 364 -168 q 402 -101 381 -124 q 460 -53 424 -78 q 554 0 497 -28 l 581 161 l 576 161 q 477 31 536 79 q 328 -17 418 -17 q 185 35 236 -17 q 133 182 133 88 q 136 222 133 201 q 142 264 139 243 l 218 717 l 265 717 l 190 268 q 185 228 188 249 q 183 189 183 207 q 339 26 183 26 q 434 47 388 26 q 517 114 481 67 q 539 144 526 126 q 564 184 551 161 q 587 234 576 207 q 603 292 597 261 l 674 717 l 721 717 l 601 0 z "},"ů":{"ha":833,"x_min":133,"x_max":721,"o":"m 581 161 l 576 161 q 477 31 536 79 q 328 -17 418 -17 q 185 35 236 -17 q 133 182 133 88 q 136 222 133 201 q 142 264 139 243 l 218 717 l 265 717 l 190 268 q 185 228 188 249 q 183 189 183 207 q 339 26 183 26 q 434 47 388 26 q 517 114 481 67 q 539 144 526 126 q 564 184 551 161 q 587 234 576 207 q 603 292 597 261 l 674 717 l 721 717 l 601 0 l 554 0 l 581 161 m 489 825 q 405 856 436 825 q 374 938 374 888 q 386 999 374 971 q 419 1049 399 1028 q 469 1081 440 1069 q 529 1092 497 1092 q 613 1060 582 1092 q 644 979 644 1029 q 632 917 644 946 q 599 868 619 889 q 549 836 578 847 q 489 825 521 825 m 493 858 q 565 882 536 858 q 601 949 594 906 q 605 972 604 964 q 606 988 606 981 q 585 1039 606 1019 q 525 1058 565 1058 q 453 1035 482 1058 q 417 968 424 1011 q 413 944 414 953 q 413 929 413 936 q 433 878 413 897 q 493 858 453 858 z "},"ũ":{"ha":833,"x_min":133,"x_max":721,"o":"m 581 161 l 576 161 q 477 31 536 79 q 328 -17 418 -17 q 185 35 236 -17 q 133 182 133 88 q 136 222 133 201 q 142 264 139 243 l 218 717 l 265 717 l 190 268 q 185 228 188 249 q 183 189 183 207 q 339 26 183 26 q 434 47 388 26 q 517 114 481 67 q 539 144 526 126 q 564 184 551 161 q 587 234 576 207 q 603 292 597 261 l 674 717 l 721 717 l 601 0 l 554 0 l 581 161 m 596 878 q 546 888 568 878 q 496 918 524 899 q 451 944 471 935 q 407 954 431 954 q 360 943 383 954 q 313 910 338 932 l 292 936 q 415 994 347 994 q 465 984 443 994 q 515 954 488 974 q 560 928 540 938 q 604 918 581 918 q 651 929 628 918 q 699 963 674 940 l 719 936 q 596 878 663 878 z "},"ư":{"ha":833,"x_min":133,"x_max":878,"o":"m 856 732 q 794 681 847 681 l 715 681 l 601 0 l 554 0 l 581 161 l 576 161 q 477 31 536 79 q 328 -17 418 -17 q 185 35 236 -17 q 133 182 133 88 q 136 222 133 201 q 142 264 139 243 l 218 717 l 265 717 l 190 268 q 185 228 188 249 q 183 189 183 207 q 339 26 183 26 q 434 47 388 26 q 517 114 481 67 q 539 144 526 126 q 564 184 551 161 q 587 234 576 207 q 603 292 597 261 l 674 717 l 807 717 l 832 871 l 878 871 l 856 732 z "},"ứ":{"ha":833,"x_min":133,"x_max":878,"o":"m 856 732 q 794 681 847 681 l 715 681 l 601 0 l 554 0 l 581 161 l 576 161 q 477 31 536 79 q 328 -17 418 -17 q 185 35 236 -17 q 133 182 133 88 q 136 222 133 201 q 142 264 139 243 l 218 717 l 265 717 l 190 268 q 185 228 188 249 q 183 189 183 207 q 339 26 183 26 q 434 47 388 26 q 517 114 481 67 q 539 144 526 126 q 564 184 551 161 q 587 234 576 207 q 603 292 597 261 l 674 717 l 807 717 l 832 871 l 878 871 l 856 732 m 472 825 l 442 846 l 624 1063 l 665 1036 l 472 825 z "},"ự":{"ha":833,"x_min":133,"x_max":878,"o":"m 856 732 q 794 681 847 681 l 715 681 l 601 0 l 554 0 l 581 161 l 576 161 q 477 31 536 79 q 328 -17 418 -17 q 185 35 236 -17 q 133 182 133 88 q 136 222 133 201 q 142 264 139 243 l 218 717 l 265 717 l 190 268 q 185 228 188 249 q 183 189 183 207 q 339 26 183 26 q 434 47 388 26 q 517 114 481 67 q 539 144 526 126 q 564 184 551 161 q 587 234 576 207 q 603 292 597 261 l 674 717 l 807 717 l 832 871 l 878 871 l 856 732 m 322 -201 q 288 -192 297 -201 q 278 -171 278 -182 q 278 -160 278 -165 q 281 -147 279 -154 q 332 -110 288 -110 q 367 -119 357 -110 q 376 -140 376 -129 q 376 -151 376 -146 q 374 -164 375 -157 q 322 -201 367 -201 z "},"ừ":{"ha":833,"x_min":133,"x_max":878,"o":"m 856 732 q 794 681 847 681 l 715 681 l 601 0 l 554 0 l 581 161 l 576 161 q 477 31 536 79 q 328 -17 418 -17 q 185 35 236 -17 q 133 182 133 88 q 136 222 133 201 q 142 264 139 243 l 218 717 l 265 717 l 190 268 q 185 228 188 249 q 183 189 183 207 q 339 26 183 26 q 434 47 388 26 q 517 114 481 67 q 539 144 526 126 q 564 184 551 161 q 587 234 576 207 q 603 292 597 261 l 674 717 l 807 717 l 832 871 l 878 871 l 856 732 m 385 1042 l 431 1063 l 538 842 l 504 825 l 385 1042 z "},"ử":{"ha":833,"x_min":133,"x_max":878,"o":"m 856 732 q 794 681 847 681 l 715 681 l 601 0 l 554 0 l 581 161 l 576 161 q 477 31 536 79 q 328 -17 418 -17 q 185 35 236 -17 q 133 182 133 88 q 136 222 133 201 q 142 264 139 243 l 218 717 l 265 717 l 190 268 q 185 228 188 249 q 183 189 183 207 q 339 26 183 26 q 434 47 388 26 q 517 114 481 67 q 539 144 526 126 q 564 184 551 161 q 587 234 576 207 q 603 292 597 261 l 674 717 l 807 717 l 832 871 l 878 871 l 856 732 m 421 1043 l 596 1043 q 632 1034 621 1043 q 643 1010 643 1025 q 633 978 643 996 q 588 921 622 961 l 503 821 l 474 839 l 600 1004 l 414 1004 l 421 1043 z "},"ữ":{"ha":833,"x_min":133,"x_max":878,"o":"m 856 732 q 794 681 847 681 l 715 681 l 601 0 l 554 0 l 581 161 l 576 161 q 477 31 536 79 q 328 -17 418 -17 q 185 35 236 -17 q 133 182 133 88 q 136 222 133 201 q 142 264 139 243 l 218 717 l 265 717 l 190 268 q 185 228 188 249 q 183 189 183 207 q 339 26 183 26 q 434 47 388 26 q 517 114 481 67 q 539 144 526 126 q 564 184 551 161 q 587 234 576 207 q 603 292 597 261 l 674 717 l 807 717 l 832 871 l 878 871 l 856 732 m 593 879 q 545 889 565 879 q 496 918 525 899 q 453 944 472 935 q 411 953 433 953 q 318 910 367 953 l 296 935 q 418 993 350 993 q 466 983 446 993 q 515 954 486 974 q 558 928 539 938 q 600 919 578 919 q 693 963 644 919 l 715 938 q 593 879 661 879 z "},"ẃ":{"ha":833,"x_min":92,"x_max":786,"o":"m 214 -17 q 122 20 153 -17 q 92 113 92 57 q 95 167 92 139 q 103 224 99 196 l 185 717 l 231 717 l 149 225 q 140 167 142 189 q 138 121 138 144 q 161 49 138 74 q 225 25 185 25 q 294 46 264 25 q 346 100 324 67 q 377 166 365 129 q 396 239 389 203 l 475 717 l 519 717 l 442 236 q 435 183 438 210 q 432 132 432 156 q 455 54 432 83 q 524 25 478 25 q 615 62 575 25 q 683 161 656 99 q 726 305 711 224 q 742 476 742 386 q 731 606 742 543 q 701 708 721 668 l 743 721 q 774 615 763 678 q 786 478 786 553 q 765 265 786 365 q 697 93 743 164 q 620 13 665 42 q 517 -17 575 -17 q 427 19 463 -17 q 396 135 392 56 l 390 135 q 322 24 365 64 q 214 -17 278 -17 m 501 825 l 471 846 l 653 1063 l 694 1036 l 501 825 z "},"ŵ":{"ha":833,"x_min":92,"x_max":786,"o":"m 214 -17 q 122 20 153 -17 q 92 113 92 57 q 95 167 92 139 q 103 224 99 196 l 185 717 l 231 717 l 149 225 q 140 167 142 189 q 138 121 138 144 q 161 49 138 74 q 225 25 185 25 q 294 46 264 25 q 346 100 324 67 q 377 166 365 129 q 396 239 389 203 l 475 717 l 519 717 l 442 236 q 435 183 438 210 q 432 132 432 156 q 455 54 432 83 q 524 25 478 25 q 615 62 575 25 q 683 161 656 99 q 726 305 711 224 q 742 476 742 386 q 731 606 742 543 q 701 708 721 668 l 743 721 q 774 615 763 678 q 786 478 786 553 q 765 265 786 365 q 697 93 743 164 q 620 13 665 42 q 517 -17 575 -17 q 427 19 463 -17 q 396 135 392 56 l 390 135 q 322 24 365 64 q 214 -17 278 -17 m 583 1050 l 724 860 l 693 840 l 551 1013 l 349 840 l 322 864 l 525 1050 l 583 1050 z "},"ẅ":{"ha":833,"x_min":92,"x_max":786,"o":"m 214 -17 q 122 20 153 -17 q 92 113 92 57 q 95 167 92 139 q 103 224 99 196 l 185 717 l 231 717 l 149 225 q 140 167 142 189 q 138 121 138 144 q 161 49 138 74 q 225 25 185 25 q 294 46 264 25 q 346 100 324 67 q 377 166 365 129 q 396 239 389 203 l 475 717 l 519 717 l 442 236 q 435 183 438 210 q 432 132 432 156 q 455 54 432 83 q 524 25 478 25 q 615 62 575 25 q 683 161 656 99 q 726 305 711 224 q 742 476 742 386 q 731 606 742 543 q 701 708 721 668 l 743 721 q 774 615 763 678 q 786 478 786 553 q 765 265 786 365 q 697 93 743 164 q 620 13 665 42 q 517 -17 575 -17 q 427 19 463 -17 q 396 135 392 56 l 390 135 q 322 24 365 64 q 214 -17 278 -17 m 404 892 q 369 901 379 892 q 360 922 360 911 q 360 933 360 928 q 363 946 361 939 q 414 983 369 983 q 449 974 439 983 q 458 953 458 964 q 458 942 458 947 q 456 929 457 936 q 404 892 449 892 m 657 892 q 622 901 632 892 q 613 922 613 911 q 613 933 613 928 q 615 946 614 939 q 667 983 622 983 q 701 974 692 983 q 711 953 711 964 q 710 942 711 947 q 708 929 710 936 q 657 892 701 892 z "},"ẁ":{"ha":833,"x_min":92,"x_max":786,"o":"m 214 -17 q 122 20 153 -17 q 92 113 92 57 q 95 167 92 139 q 103 224 99 196 l 185 717 l 231 717 l 149 225 q 140 167 142 189 q 138 121 138 144 q 161 49 138 74 q 225 25 185 25 q 294 46 264 25 q 346 100 324 67 q 377 166 365 129 q 396 239 389 203 l 475 717 l 519 717 l 442 236 q 435 183 438 210 q 432 132 432 156 q 455 54 432 83 q 524 25 478 25 q 615 62 575 25 q 683 161 656 99 q 726 305 711 224 q 742 476 742 386 q 731 606 742 543 q 701 708 721 668 l 743 721 q 774 615 763 678 q 786 478 786 553 q 765 265 786 365 q 697 93 743 164 q 620 13 665 42 q 517 -17 575 -17 q 427 19 463 -17 q 396 135 392 56 l 390 135 q 322 24 365 64 q 214 -17 278 -17 m 414 1042 l 460 1063 l 567 842 l 533 825 l 414 1042 z "},"ý":{"ha":833,"x_min":53,"x_max":721,"o":"m 279 -294 q 144 -269 199 -294 q 53 -200 89 -244 l 88 -168 q 163 -229 117 -207 q 281 -251 210 -251 q 462 -194 392 -251 q 553 -8 532 -137 l 582 165 l 578 165 q 478 36 538 83 q 329 -11 419 -11 q 185 40 236 -11 q 133 185 133 90 q 142 268 133 224 l 218 717 l 267 717 l 192 272 q 186 232 189 253 q 183 193 183 211 q 224 72 183 113 q 340 31 264 31 q 435 51 389 31 q 518 118 481 72 q 540 148 528 131 q 565 188 553 165 q 588 237 578 210 q 603 294 597 264 l 674 717 l 721 717 l 599 -19 q 492 -228 575 -162 q 279 -294 410 -294 m 475 825 l 444 846 l 626 1063 l 668 1036 l 475 825 z "},"ŷ":{"ha":833,"x_min":53,"x_max":721,"o":"m 279 -294 q 144 -269 199 -294 q 53 -200 89 -244 l 88 -168 q 163 -229 117 -207 q 281 -251 210 -251 q 462 -194 392 -251 q 553 -8 532 -137 l 582 165 l 578 165 q 478 36 538 83 q 329 -11 419 -11 q 185 40 236 -11 q 133 185 133 90 q 142 268 133 224 l 218 717 l 267 717 l 192 272 q 186 232 189 253 q 183 193 183 211 q 224 72 183 113 q 340 31 264 31 q 435 51 389 31 q 518 118 481 72 q 540 148 528 131 q 565 188 553 165 q 588 237 578 210 q 603 294 597 264 l 674 717 l 721 717 l 599 -19 q 492 -228 575 -162 q 279 -294 410 -294 m 557 1050 l 697 860 l 667 840 l 525 1013 l 322 840 l 296 864 l 499 1050 l 557 1050 z "},"ÿ":{"ha":833,"x_min":53,"x_max":721,"o":"m 279 -294 q 144 -269 199 -294 q 53 -200 89 -244 l 88 -168 q 163 -229 117 -207 q 281 -251 210 -251 q 462 -194 392 -251 q 553 -8 532 -137 l 582 165 l 578 165 q 478 36 538 83 q 329 -11 419 -11 q 185 40 236 -11 q 133 185 133 90 q 142 268 133 224 l 218 717 l 267 717 l 192 272 q 186 232 189 253 q 183 193 183 211 q 224 72 183 113 q 340 31 264 31 q 435 51 389 31 q 518 118 481 72 q 540 148 528 131 q 565 188 553 165 q 588 237 578 210 q 603 294 597 264 l 674 717 l 721 717 l 599 -19 q 492 -228 575 -162 q 279 -294 410 -294 m 378 892 q 343 901 353 892 q 333 922 333 911 q 334 933 333 928 q 336 946 335 939 q 388 983 343 983 q 422 974 413 983 q 432 953 432 964 q 431 942 432 947 q 429 929 431 936 q 378 892 422 892 m 631 892 q 596 901 606 892 q 586 922 586 911 q 587 933 586 928 q 589 946 588 939 q 640 983 596 983 q 675 974 665 983 q 685 953 685 964 q 684 942 685 947 q 682 929 683 936 q 631 892 675 892 z "},"ỵ":{"ha":833,"x_min":53,"x_max":721,"o":"m 279 -294 q 144 -269 199 -294 q 53 -200 89 -244 l 88 -168 q 163 -229 117 -207 q 281 -251 210 -251 q 462 -194 392 -251 q 553 -8 532 -137 l 582 165 l 578 165 q 478 36 538 83 q 329 -11 419 -11 q 186 40 236 -11 q 136 186 136 92 q 138 226 136 206 q 143 268 140 246 l 218 717 l 267 717 l 192 272 q 187 233 189 253 q 185 194 185 213 q 340 31 185 31 q 435 51 389 31 q 518 118 481 72 q 540 148 528 131 q 565 188 553 165 q 588 237 578 210 q 603 294 597 264 l 674 717 l 721 717 l 599 -19 q 492 -228 575 -162 q 279 -294 410 -294 m 315 -90 q 349 -99 340 -90 q 358 -119 358 -108 q 358 -130 358 -125 q 356 -142 357 -135 q 341 -168 351 -158 q 307 -178 331 -178 q 273 -169 282 -178 q 264 -149 264 -160 q 265 -138 264 -143 q 267 -126 265 -133 q 281 -100 271 -110 q 315 -90 292 -90 z "},"ỳ":{"ha":833,"x_min":53,"x_max":721,"o":"m 279 -294 q 144 -269 199 -294 q 53 -200 89 -244 l 88 -168 q 163 -229 117 -207 q 281 -251 210 -251 q 462 -194 392 -251 q 553 -8 532 -137 l 582 165 l 578 165 q 478 36 538 83 q 329 -11 419 -11 q 185 40 236 -11 q 133 185 133 90 q 142 268 133 224 l 218 717 l 267 717 l 192 272 q 186 232 189 253 q 183 193 183 211 q 224 72 183 113 q 340 31 264 31 q 435 51 389 31 q 518 118 481 72 q 540 148 528 131 q 565 188 553 165 q 588 237 578 210 q 603 294 597 264 l 674 717 l 721 717 l 599 -19 q 492 -228 575 -162 q 279 -294 410 -294 m 388 1042 l 433 1063 l 540 842 l 507 825 l 388 1042 z "},"ỷ":{"ha":833,"x_min":53,"x_max":721,"o":"m 279 -294 q 144 -269 199 -294 q 53 -200 89 -244 l 88 -168 q 163 -229 117 -207 q 281 -251 210 -251 q 462 -194 392 -251 q 553 -8 532 -137 l 582 165 l 578 165 q 478 36 538 83 q 329 -11 419 -11 q 185 40 236 -11 q 133 185 133 90 q 142 268 133 224 l 218 717 l 267 717 l 192 272 q 186 232 189 253 q 183 193 183 211 q 224 72 183 113 q 340 31 264 31 q 435 51 389 31 q 518 118 481 72 q 540 148 528 131 q 565 188 553 165 q 588 237 578 210 q 603 294 597 264 l 674 717 l 721 717 l 599 -19 q 492 -228 575 -162 q 279 -294 410 -294 m 424 1043 l 599 1043 q 635 1034 624 1043 q 646 1010 646 1025 q 635 978 646 996 q 590 921 625 961 l 506 821 l 476 839 l 603 1004 l 417 1004 l 424 1043 z "},"ỹ":{"ha":833,"x_min":53,"x_max":722,"o":"m 279 -294 q 144 -269 199 -294 q 53 -200 89 -244 l 88 -168 q 163 -229 117 -207 q 281 -251 210 -251 q 462 -194 392 -251 q 553 -8 532 -137 l 582 165 l 578 165 q 478 36 538 83 q 329 -11 419 -11 q 185 40 236 -11 q 133 185 133 90 q 142 268 133 224 l 218 717 l 267 717 l 192 272 q 186 232 189 253 q 183 193 183 211 q 224 72 183 113 q 340 31 264 31 q 435 51 389 31 q 518 118 481 72 q 540 148 528 131 q 565 188 553 165 q 588 237 578 210 q 603 294 597 264 l 674 717 l 721 717 l 599 -19 q 492 -228 575 -162 q 279 -294 410 -294 m 599 878 q 549 888 571 878 q 499 918 526 899 q 453 944 474 935 q 410 954 433 954 q 363 943 386 954 q 315 910 340 932 l 294 936 q 418 994 350 994 q 468 984 446 994 q 518 954 490 974 q 563 928 543 938 q 607 918 583 918 q 653 929 631 918 q 701 963 676 940 l 722 936 q 599 878 665 878 z "},"ź":{"ha":833,"x_min":72,"x_max":757,"o":"m 622 -17 q 584 -12 604 -17 q 535 -1 564 -8 l 140 89 l 133 82 l 119 0 l 72 0 l 89 103 l 658 599 q 471 669 543 647 q 344 690 399 690 q 229 644 265 690 q 192 481 193 599 l 149 481 l 150 507 q 201 677 157 621 q 346 733 246 733 q 474 712 401 733 q 635 653 547 690 l 689 629 l 696 636 l 710 718 l 757 718 l 740 615 l 174 122 l 633 22 l 643 32 l 604 272 l 642 281 l 665 157 q 681 84 675 113 q 686 39 686 56 q 669 1 686 18 q 622 -17 651 -17 m 474 825 l 443 846 l 625 1063 l 667 1036 l 474 825 z "},"ž":{"ha":833,"x_min":72,"x_max":757,"o":"m 622 -17 q 584 -12 604 -17 q 535 -1 564 -8 l 140 89 l 133 82 l 119 0 l 72 0 l 89 103 l 658 599 q 471 669 543 647 q 344 690 399 690 q 229 644 265 690 q 192 481 193 599 l 149 481 l 150 507 q 201 677 157 621 q 346 733 246 733 q 474 712 401 733 q 635 653 547 690 l 689 629 l 696 636 l 710 718 l 757 718 l 740 615 l 174 122 l 633 22 l 643 32 l 604 272 l 642 281 l 665 157 q 681 84 675 113 q 686 39 686 56 q 669 1 686 18 q 622 -17 651 -17 m 464 847 l 322 1038 l 353 1057 l 494 883 l 697 1057 l 724 1033 l 521 847 l 464 847 z "},"ż":{"ha":833,"x_min":72,"x_max":757,"o":"m 622 -17 q 584 -12 604 -17 q 535 -1 564 -8 l 140 89 l 133 82 l 119 0 l 72 0 l 89 103 l 658 599 q 471 669 543 647 q 344 690 399 690 q 229 644 265 690 q 192 481 193 599 l 149 481 l 150 507 q 201 677 157 621 q 346 733 246 733 q 474 712 401 733 q 635 653 547 690 l 689 629 l 696 636 l 710 718 l 757 718 l 740 615 l 174 122 l 633 22 l 643 32 l 604 272 l 642 281 l 665 157 q 681 84 675 113 q 686 39 686 56 q 669 1 686 18 q 622 -17 651 -17 m 503 889 q 465 899 475 889 q 456 921 456 908 q 460 946 456 929 q 476 974 464 964 q 513 985 489 985 q 550 975 540 985 q 560 953 560 965 q 556 928 560 944 q 539 899 551 910 q 503 889 526 889 z "},"Á":{"ha":833,"x_min":7,"x_max":715,"o":"m 657 0 l 608 314 l 215 314 l 61 0 l 7 0 l 485 969 l 553 969 l 708 0 l 657 0 m 514 915 l 507 915 l 235 358 l 601 358 l 514 915 m 522 1061 l 492 1082 l 674 1299 l 715 1272 l 522 1061 z "},"Ă":{"ha":833,"x_min":7,"x_max":771,"o":"m 657 0 l 608 314 l 215 314 l 61 0 l 7 0 l 485 969 l 553 969 l 708 0 l 657 0 m 514 915 l 507 915 l 235 358 l 601 358 l 514 915 m 543 1079 q 474 1093 501 1079 q 428 1131 447 1107 q 397 1190 410 1156 q 372 1265 383 1224 l 404 1281 l 429 1217 q 476 1142 453 1164 q 544 1121 500 1121 q 619 1142 588 1121 q 692 1217 650 1163 l 738 1281 l 771 1265 q 722 1190 746 1224 q 673 1131 699 1156 q 616 1093 647 1107 q 543 1079 585 1079 z "},"Â":{"ha":833,"x_min":7,"x_max":744,"o":"m 657 0 l 608 314 l 215 314 l 61 0 l 7 0 l 485 969 l 553 969 l 708 0 l 657 0 m 514 915 l 507 915 l 235 358 l 601 358 l 514 915 m 604 1286 l 744 1096 l 714 1076 l 572 1249 l 369 1076 l 343 1100 l 546 1286 l 604 1286 z "},"Ä":{"ha":833,"x_min":7,"x_max":732,"o":"m 657 0 l 608 314 l 215 314 l 61 0 l 7 0 l 485 969 l 553 969 l 708 0 l 657 0 m 514 915 l 507 915 l 235 358 l 601 358 l 514 915 m 425 1128 q 390 1138 400 1128 q 381 1158 381 1147 q 381 1169 381 1164 q 383 1182 382 1175 q 435 1219 390 1219 q 469 1210 460 1219 q 479 1189 479 1200 q 478 1178 479 1183 q 476 1165 478 1172 q 425 1128 469 1128 m 678 1128 q 643 1138 653 1128 q 633 1158 633 1147 q 634 1169 633 1164 q 636 1182 635 1175 q 688 1219 643 1219 q 722 1210 713 1219 q 732 1189 732 1200 q 731 1178 732 1183 q 729 1165 731 1172 q 678 1128 722 1128 z "},"Ạ":{"ha":833,"x_min":7,"x_max":708,"o":"m 657 0 l 608 314 l 215 314 l 61 0 l 7 0 l 485 969 l 553 969 l 708 0 l 657 0 m 514 915 l 507 915 l 235 358 l 601 358 l 514 915 m 329 -201 q 294 -192 304 -201 q 285 -171 285 -182 q 285 -160 285 -165 q 288 -147 286 -154 q 339 -110 294 -110 q 374 -119 364 -110 q 383 -140 383 -129 q 383 -151 383 -146 q 381 -164 382 -157 q 329 -201 374 -201 z "},"À":{"ha":833,"x_min":7,"x_max":708,"o":"m 657 0 l 608 314 l 215 314 l 61 0 l 7 0 l 485 969 l 553 969 l 708 0 l 657 0 m 514 915 l 507 915 l 235 358 l 601 358 l 514 915 m 435 1278 l 481 1299 l 588 1078 l 554 1061 l 435 1278 z "},"Ả":{"ha":833,"x_min":7,"x_max":708,"o":"m 657 0 l 608 314 l 215 314 l 61 0 l 7 0 l 485 969 l 553 969 l 708 0 l 657 0 m 514 915 l 507 915 l 235 358 l 601 358 l 514 915 m 471 1279 l 646 1279 q 682 1270 671 1279 q 693 1246 693 1261 q 683 1215 693 1232 q 638 1157 672 1197 l 553 1057 l 524 1075 l 650 1240 l 464 1240 l 471 1279 z "},"Ā":{"ha":833,"x_min":7,"x_max":742,"o":"m 657 0 l 608 314 l 215 314 l 61 0 l 7 0 l 485 969 l 553 969 l 708 0 l 657 0 m 514 915 l 507 915 l 235 358 l 601 358 l 514 915 m 378 1196 l 742 1196 l 735 1154 l 371 1154 l 378 1196 z "},"Ą":{"ha":833,"x_min":7,"x_max":708,"o":"m 485 969 l 553 969 l 708 0 q 619 -56 656 -32 q 559 -101 582 -81 q 526 -142 536 -122 q 517 -185 517 -162 q 536 -231 517 -217 q 583 -246 556 -246 q 635 -235 614 -246 q 671 -210 656 -225 l 696 -236 q 651 -269 681 -256 q 582 -282 622 -282 q 505 -260 538 -282 q 472 -189 472 -237 q 480 -147 472 -168 q 508 -102 488 -125 q 564 -54 528 -79 q 657 0 600 -29 l 608 314 l 215 314 l 61 0 l 7 0 l 485 969 m 514 915 l 507 915 l 235 358 l 601 358 l 514 915 z "},"Å":{"ha":833,"x_min":7,"x_max":708,"o":"m 657 0 l 608 314 l 215 314 l 61 0 l 7 0 l 485 969 l 553 969 l 708 0 l 657 0 m 514 915 l 507 915 l 235 358 l 601 358 l 514 915 m 539 1061 q 455 1092 486 1061 q 424 1174 424 1124 q 436 1235 424 1207 q 469 1285 449 1264 q 519 1317 490 1306 q 579 1328 547 1328 q 663 1297 632 1328 q 694 1215 694 1265 q 682 1153 694 1182 q 649 1104 669 1125 q 599 1072 628 1083 q 539 1061 571 1061 m 543 1094 q 615 1118 586 1094 q 651 1185 644 1142 q 655 1208 654 1200 q 656 1224 656 1217 q 635 1275 656 1256 q 575 1294 615 1294 q 503 1271 532 1294 q 467 1204 474 1247 q 463 1181 464 1189 q 463 1165 463 1172 q 483 1114 463 1133 q 543 1094 503 1094 z "},"Ǻ":{"ha":833,"x_min":7,"x_max":728,"o":"m 657 0 l 608 314 l 215 314 l 61 0 l 7 0 l 485 969 l 553 969 l 708 0 l 657 0 m 514 915 l 507 915 l 235 358 l 601 358 l 514 915 m 588 1361 l 561 1381 l 693 1526 l 728 1499 l 588 1361 m 539 1058 q 455 1090 486 1058 q 424 1171 424 1121 q 436 1233 424 1204 q 469 1282 449 1261 q 519 1314 490 1303 q 579 1325 547 1325 q 663 1294 632 1325 q 694 1213 694 1263 q 682 1151 694 1179 q 649 1101 669 1122 q 599 1069 628 1081 q 539 1058 571 1058 m 543 1092 q 615 1115 586 1092 q 651 1182 644 1139 q 655 1206 654 1197 q 656 1221 656 1214 q 635 1272 656 1253 q 575 1292 615 1292 q 503 1268 532 1292 q 467 1201 474 1244 q 463 1178 464 1186 q 463 1163 463 1169 q 483 1111 463 1131 q 543 1092 503 1092 z "},"Ã":{"ha":833,"x_min":7,"x_max":769,"o":"m 657 0 l 608 314 l 215 314 l 61 0 l 7 0 l 485 969 l 553 969 l 708 0 l 657 0 m 514 915 l 507 915 l 235 358 l 601 358 l 514 915 m 646 1114 q 596 1124 618 1114 q 546 1154 574 1135 q 501 1181 521 1171 q 457 1190 481 1190 q 410 1179 433 1190 q 363 1146 388 1168 l 342 1172 q 465 1231 397 1231 q 515 1220 493 1231 q 565 1190 538 1210 q 610 1164 590 1174 q 654 1154 631 1154 q 701 1165 678 1154 q 749 1199 724 1176 l 769 1172 q 646 1114 713 1114 z "},"Ắ":{"ha":833,"x_min":7,"x_max":772,"o":"m 657 0 l 608 314 l 215 314 l 61 0 l 7 0 l 485 969 l 553 969 l 708 0 l 657 0 m 514 915 l 507 915 l 235 358 l 601 358 l 514 915 m 542 1068 q 473 1081 500 1068 q 427 1118 446 1094 q 395 1176 408 1142 q 371 1250 382 1210 l 401 1265 l 428 1203 q 476 1129 451 1150 q 544 1108 500 1108 q 620 1128 588 1108 q 693 1203 653 1149 l 740 1265 l 772 1250 q 723 1175 747 1208 q 672 1117 699 1142 q 615 1081 646 1093 q 542 1068 583 1068 m 550 1218 l 519 1239 l 701 1456 l 743 1429 l 550 1218 z "},"Ặ":{"ha":833,"x_min":7,"x_max":771,"o":"m 657 0 l 608 314 l 215 314 l 61 0 l 7 0 l 485 969 l 553 969 l 708 0 l 657 0 m 514 915 l 507 915 l 235 358 l 601 358 l 514 915 m 543 1079 q 474 1093 501 1079 q 428 1131 447 1107 q 397 1190 410 1156 q 372 1265 383 1224 l 404 1281 l 429 1217 q 476 1142 453 1164 q 544 1121 500 1121 q 619 1142 588 1121 q 692 1217 650 1163 l 738 1281 l 771 1265 q 722 1190 746 1224 q 673 1131 699 1156 q 616 1093 647 1107 q 543 1079 585 1079 m 329 -201 q 294 -192 304 -201 q 285 -171 285 -182 q 285 -160 285 -165 q 288 -147 286 -154 q 339 -110 294 -110 q 374 -119 364 -110 q 383 -140 383 -129 q 383 -151 383 -146 q 381 -164 382 -157 q 329 -201 374 -201 z "},"Ằ":{"ha":833,"x_min":7,"x_max":772,"o":"m 657 0 l 608 314 l 215 314 l 61 0 l 7 0 l 485 969 l 553 969 l 708 0 l 657 0 m 514 915 l 507 915 l 235 358 l 601 358 l 514 915 m 542 1068 q 473 1081 500 1068 q 427 1118 446 1094 q 395 1176 408 1142 q 371 1250 382 1210 l 401 1265 l 428 1203 q 476 1129 451 1150 q 544 1108 500 1108 q 620 1128 588 1108 q 693 1203 653 1149 l 740 1265 l 772 1250 q 723 1175 747 1208 q 672 1117 699 1142 q 615 1081 646 1093 q 542 1068 583 1068 m 443 1435 l 489 1456 l 596 1233 l 563 1218 l 443 1435 z "},"Ẳ":{"ha":833,"x_min":7,"x_max":772,"o":"m 657 0 l 608 314 l 215 314 l 61 0 l 7 0 l 485 969 l 553 969 l 708 0 l 657 0 m 514 915 l 507 915 l 235 358 l 601 358 l 514 915 m 483 1438 l 654 1438 q 691 1428 681 1438 q 701 1404 701 1419 q 692 1376 701 1392 q 651 1322 683 1360 l 563 1214 l 532 1233 l 660 1399 l 478 1399 l 483 1438 m 542 1068 q 473 1081 500 1068 q 427 1118 446 1094 q 395 1176 408 1142 q 371 1250 382 1210 l 401 1265 l 428 1203 q 476 1129 451 1150 q 544 1108 500 1108 q 620 1128 588 1108 q 693 1203 653 1149 l 740 1265 l 772 1250 q 723 1175 747 1208 q 672 1117 699 1142 q 615 1081 646 1093 q 542 1068 583 1068 z "},"Ẵ":{"ha":833,"x_min":7,"x_max":793,"o":"m 657 0 l 608 314 l 215 314 l 61 0 l 7 0 l 485 969 l 553 969 l 708 0 l 657 0 m 514 915 l 507 915 l 235 358 l 601 358 l 514 915 m 671 1310 q 620 1320 643 1310 q 569 1350 597 1331 q 524 1376 544 1367 q 482 1385 504 1385 q 435 1374 457 1385 q 386 1340 413 1363 l 365 1367 q 488 1424 421 1424 q 538 1413 515 1424 q 589 1383 561 1403 q 634 1358 614 1367 q 676 1349 654 1349 q 724 1360 701 1349 q 772 1393 746 1371 l 793 1367 q 671 1310 738 1310 m 542 1068 q 473 1081 500 1068 q 427 1118 446 1094 q 395 1176 408 1142 q 371 1250 382 1210 l 401 1265 l 428 1203 q 476 1129 451 1150 q 544 1108 500 1108 q 620 1128 588 1108 q 693 1203 653 1149 l 740 1265 l 772 1250 q 723 1175 747 1208 q 672 1117 699 1142 q 615 1081 646 1093 q 542 1068 583 1068 z "},"Ấ":{"ha":833,"x_min":7,"x_max":929,"o":"m 657 0 l 608 314 l 215 314 l 61 0 l 7 0 l 485 969 l 553 969 l 708 0 l 657 0 m 514 915 l 507 915 l 235 358 l 601 358 l 514 915 m 736 1218 l 707 1239 l 889 1456 l 929 1429 l 736 1218 m 601 1274 l 742 1083 l 711 1064 l 569 1238 l 367 1064 l 340 1088 l 543 1274 l 601 1274 z "},"Ậ":{"ha":833,"x_min":7,"x_max":744,"o":"m 657 0 l 608 314 l 215 314 l 61 0 l 7 0 l 485 969 l 553 969 l 708 0 l 657 0 m 514 915 l 507 915 l 235 358 l 601 358 l 514 915 m 604 1286 l 744 1096 l 714 1076 l 572 1249 l 369 1076 l 343 1100 l 546 1286 l 604 1286 m 329 -201 q 294 -192 304 -201 q 285 -171 285 -182 q 285 -160 285 -165 q 288 -147 286 -154 q 339 -110 294 -110 q 374 -119 364 -110 q 383 -140 383 -129 q 383 -151 383 -146 q 381 -164 382 -157 q 329 -201 374 -201 z "},"Ầ":{"ha":833,"x_min":7,"x_max":742,"o":"m 657 0 l 608 314 l 215 314 l 61 0 l 7 0 l 485 969 l 553 969 l 708 0 l 657 0 m 514 915 l 507 915 l 235 358 l 601 358 l 514 915 m 275 1438 l 319 1458 l 426 1236 l 394 1221 l 275 1438 m 601 1274 l 742 1083 l 711 1064 l 569 1238 l 367 1064 l 340 1088 l 543 1274 l 601 1274 z "},"Ẩ":{"ha":833,"x_min":7,"x_max":881,"o":"m 657 0 l 608 314 l 215 314 l 61 0 l 7 0 l 485 969 l 553 969 l 708 0 l 657 0 m 514 915 l 507 915 l 235 358 l 601 358 l 514 915 m 658 1439 l 832 1439 q 869 1430 858 1439 q 881 1406 881 1421 q 871 1378 881 1393 q 829 1324 861 1363 l 740 1215 l 710 1235 l 838 1400 l 651 1400 l 658 1439 m 601 1274 l 743 1083 l 711 1064 l 569 1238 l 368 1064 l 340 1088 l 543 1274 l 601 1274 z "},"Ẫ":{"ha":833,"x_min":7,"x_max":806,"o":"m 657 0 l 608 314 l 215 314 l 61 0 l 7 0 l 485 969 l 553 969 l 708 0 l 657 0 m 514 915 l 507 915 l 235 358 l 601 358 l 514 915 m 500 1438 q 551 1427 528 1438 q 601 1397 574 1417 q 647 1372 626 1381 q 689 1363 667 1363 q 736 1374 714 1363 q 785 1407 758 1385 l 806 1381 q 683 1324 750 1324 q 633 1334 656 1324 q 582 1364 610 1344 q 537 1390 557 1381 q 494 1399 517 1399 q 447 1388 469 1399 q 399 1354 425 1376 l 378 1381 q 500 1438 433 1438 m 601 1271 l 743 1083 l 711 1064 l 569 1235 l 368 1064 l 342 1089 l 543 1271 l 601 1271 z "},"Æ":{"ha":833,"x_min":-18,"x_max":860,"o":"m 435 314 l 185 314 l 35 0 l -18 0 l 446 969 l 860 969 l 853 925 l 585 925 l 517 514 l 767 514 l 758 469 l 508 469 l 439 44 l 707 44 l 700 0 l 382 0 l 435 314 m 475 929 l 204 357 l 442 357 l 536 929 l 475 929 z "},"Ǽ":{"ha":833,"x_min":-18,"x_max":860,"o":"m 435 314 l 185 314 l 35 0 l -18 0 l 446 969 l 860 969 l 853 925 l 585 925 l 517 514 l 767 514 l 758 469 l 508 469 l 439 44 l 707 44 l 700 0 l 382 0 l 435 314 m 475 929 l 204 357 l 442 357 l 536 929 l 475 929 m 569 1061 l 539 1082 l 721 1299 l 763 1272 l 569 1061 z "},"Ć":{"ha":833,"x_min":121,"x_max":782,"o":"m 392 -17 q 193 63 265 -17 q 121 311 121 143 q 144 548 121 428 q 217 765 167 668 q 344 924 267 863 q 532 986 422 986 q 629 972 588 986 q 701 930 671 957 q 750 866 731 903 q 782 785 769 829 l 736 771 q 709 841 725 810 q 669 894 693 872 q 610 929 644 917 q 529 942 576 942 q 317 839 404 942 q 197 546 229 736 l 182 451 q 173 376 175 413 q 171 304 171 339 q 228 98 171 168 q 394 28 285 28 q 547 77 485 28 q 661 225 608 126 l 703 204 q 640 106 672 147 q 571 38 608 65 q 490 -3 533 10 q 392 -17 446 -17 m 540 1061 l 510 1082 l 692 1299 l 733 1272 l 540 1061 z "},"Č":{"ha":833,"x_min":121,"x_max":790,"o":"m 392 -17 q 193 63 265 -17 q 121 311 121 143 q 144 548 121 428 q 217 765 167 668 q 344 924 267 863 q 532 986 422 986 q 629 972 588 986 q 701 930 671 957 q 750 866 731 903 q 782 785 769 829 l 736 771 q 709 841 725 810 q 669 894 693 872 q 610 929 644 917 q 529 942 576 942 q 317 839 404 942 q 197 546 229 736 l 182 451 q 173 376 175 413 q 171 304 171 339 q 228 98 171 168 q 394 28 285 28 q 547 77 485 28 q 661 225 608 126 l 703 204 q 640 106 672 147 q 571 38 608 65 q 490 -3 533 10 q 392 -17 446 -17 m 531 1083 l 389 1274 l 419 1293 l 561 1119 l 764 1293 l 790 1269 l 588 1083 l 531 1083 z "},"Ç":{"ha":833,"x_min":121,"x_max":782,"o":"m 529 942 q 317 839 404 942 q 197 546 229 736 l 182 451 q 173 376 175 413 q 171 304 171 339 q 228 98 171 168 q 394 28 285 28 q 547 77 485 28 q 661 225 608 126 l 703 204 q 573 40 643 93 q 401 -17 503 -14 l 368 -97 l 371 -100 q 393 -97 382 -97 q 413 -96 404 -96 q 473 -116 451 -96 q 494 -172 494 -136 q 458 -251 494 -221 q 360 -282 421 -282 q 288 -268 317 -282 q 247 -235 260 -254 l 275 -208 q 310 -235 289 -225 q 360 -246 331 -246 q 426 -226 401 -246 q 451 -174 451 -206 q 435 -136 451 -151 q 375 -118 419 -121 l 325 -114 l 365 -17 q 187 72 253 -8 q 121 311 121 151 q 144 547 121 428 q 217 765 167 667 q 344 924 267 863 q 532 986 422 986 q 629 972 588 986 q 701 930 671 957 q 750 866 731 903 q 782 785 769 829 l 736 771 q 709 841 725 810 q 669 894 693 872 q 610 929 644 917 q 529 942 576 942 z "},"Ĉ":{"ha":833,"x_min":121,"x_max":782,"o":"m 392 -17 q 193 63 265 -17 q 121 311 121 143 q 144 548 121 428 q 217 765 167 668 q 344 924 267 863 q 532 986 422 986 q 629 972 588 986 q 701 930 671 957 q 750 866 731 903 q 782 785 769 829 l 736 771 q 709 841 725 810 q 669 894 693 872 q 610 929 644 917 q 529 942 576 942 q 317 839 404 942 q 197 546 229 736 l 182 451 q 173 376 175 413 q 171 304 171 339 q 228 98 171 168 q 394 28 285 28 q 547 77 485 28 q 661 225 608 126 l 703 204 q 640 106 672 147 q 571 38 608 65 q 490 -3 533 10 q 392 -17 446 -17 m 622 1286 l 763 1096 l 732 1076 l 590 1249 l 388 1076 l 361 1100 l 564 1286 l 622 1286 z "},"Ċ":{"ha":833,"x_min":121,"x_max":782,"o":"m 392 -17 q 193 63 265 -17 q 121 311 121 143 q 144 548 121 428 q 217 765 167 668 q 344 924 267 863 q 532 986 422 986 q 629 972 588 986 q 701 930 671 957 q 750 866 731 903 q 782 785 769 829 l 736 771 q 709 841 725 810 q 669 894 693 872 q 610 929 644 917 q 529 942 576 942 q 317 839 404 942 q 197 546 229 736 l 182 451 q 173 376 175 413 q 171 304 171 339 q 228 98 171 168 q 394 28 285 28 q 547 77 485 28 q 661 225 608 126 l 703 204 q 640 106 672 147 q 571 38 608 65 q 490 -3 533 10 q 392 -17 446 -17 m 569 1125 q 532 1135 542 1125 q 522 1157 522 1144 q 526 1182 522 1165 q 543 1210 531 1200 q 579 1221 556 1221 q 617 1211 607 1221 q 626 1189 626 1201 q 622 1164 626 1181 q 606 1135 618 1146 q 569 1125 593 1125 z "},"Ď":{"ha":833,"x_min":88,"x_max":771,"o":"m 249 969 l 476 969 q 597 949 543 969 q 690 888 651 928 q 750 788 729 847 q 771 653 771 729 q 747 398 771 517 q 672 190 722 279 q 544 51 622 101 q 357 0 465 0 l 88 0 l 249 969 m 360 44 q 577 137 490 44 q 694 411 664 229 l 711 506 q 720 580 718 543 q 722 651 722 617 q 657 855 722 785 q 474 925 592 925 l 292 925 l 144 44 l 360 44 m 458 1083 l 317 1274 l 347 1293 l 489 1119 l 692 1293 l 718 1269 l 515 1083 l 458 1083 z "},"Đ":{"ha":833,"x_min":63,"x_max":771,"o":"m 169 492 l 63 492 l 68 532 l 176 532 l 249 969 l 476 969 q 597 949 543 969 q 690 888 651 928 q 750 788 729 847 q 771 653 771 729 q 747 398 771 517 q 672 190 722 279 q 544 51 622 101 q 357 0 465 0 l 88 0 l 169 492 m 360 44 q 577 137 490 44 q 694 411 664 229 l 711 506 q 720 580 718 543 q 722 651 722 617 q 657 855 722 785 q 474 925 592 925 l 292 925 l 226 532 l 479 532 l 474 492 l 219 492 l 144 44 l 360 44 z "},"Ð":{"ha":833,"x_min":63,"x_max":771,"o":"m 169 492 l 63 492 l 68 532 l 176 532 l 249 969 l 476 969 q 597 949 543 969 q 690 888 651 928 q 750 788 729 847 q 771 653 771 729 q 747 398 771 517 q 672 190 722 279 q 544 51 622 101 q 357 0 465 0 l 88 0 l 169 492 m 360 44 q 577 137 490 44 q 694 411 664 229 l 711 506 q 720 580 718 543 q 722 651 722 617 q 657 855 722 785 q 474 925 592 925 l 292 925 l 226 532 l 479 532 l 474 492 l 219 492 l 144 44 l 360 44 z "},"É":{"ha":833,"x_min":85,"x_max":817,"o":"m 85 0 l 246 969 l 817 969 l 810 925 l 289 925 l 221 514 l 722 514 l 715 469 l 213 469 l 142 44 l 663 44 l 656 0 l 85 0 m 536 1061 l 506 1082 l 688 1299 l 729 1272 l 536 1061 z "},"Ĕ":{"ha":833,"x_min":85,"x_max":817,"o":"m 85 0 l 246 969 l 817 969 l 810 925 l 289 925 l 221 514 l 722 514 l 715 469 l 213 469 l 142 44 l 663 44 l 656 0 l 85 0 m 557 1079 q 488 1093 515 1079 q 442 1131 461 1107 q 410 1190 424 1156 q 386 1265 397 1224 l 418 1281 l 443 1217 q 490 1142 467 1164 q 558 1121 514 1121 q 633 1142 601 1121 q 706 1217 664 1163 l 751 1281 l 785 1265 q 736 1190 760 1224 q 687 1131 713 1156 q 630 1093 661 1107 q 557 1079 599 1079 z "},"Ě":{"ha":833,"x_min":85,"x_max":817,"o":"m 85 0 l 246 969 l 817 969 l 810 925 l 289 925 l 221 514 l 722 514 l 715 469 l 213 469 l 142 44 l 663 44 l 656 0 l 85 0 m 526 1083 l 385 1274 l 415 1293 l 557 1119 l 760 1293 l 786 1269 l 583 1083 l 526 1083 z "},"Ê":{"ha":833,"x_min":85,"x_max":817,"o":"m 85 0 l 246 969 l 817 969 l 810 925 l 289 925 l 221 514 l 722 514 l 715 469 l 213 469 l 142 44 l 663 44 l 656 0 l 85 0 m 618 1286 l 758 1096 l 728 1076 l 586 1249 l 383 1076 l 357 1100 l 560 1286 l 618 1286 z "},"Ë":{"ha":833,"x_min":85,"x_max":817,"o":"m 85 0 l 246 969 l 817 969 l 810 925 l 289 925 l 221 514 l 722 514 l 715 469 l 213 469 l 142 44 l 663 44 l 656 0 l 85 0 m 439 1128 q 404 1138 414 1128 q 394 1158 394 1147 q 395 1169 394 1164 q 397 1182 396 1175 q 449 1219 404 1219 q 483 1210 474 1219 q 493 1189 493 1200 q 492 1178 493 1183 q 490 1165 492 1172 q 439 1128 483 1128 m 692 1128 q 657 1138 667 1128 q 647 1158 647 1147 q 648 1169 647 1164 q 650 1182 649 1175 q 701 1219 657 1219 q 736 1210 726 1219 q 746 1189 746 1200 q 745 1178 746 1183 q 743 1165 744 1172 q 692 1128 736 1128 z "},"Ė":{"ha":833,"x_min":85,"x_max":817,"o":"m 85 0 l 246 969 l 817 969 l 810 925 l 289 925 l 221 514 l 722 514 l 715 469 l 213 469 l 142 44 l 663 44 l 656 0 l 85 0 m 565 1125 q 528 1135 538 1125 q 518 1157 518 1144 q 522 1182 518 1165 q 539 1210 526 1200 q 575 1221 551 1221 q 613 1211 603 1221 q 622 1189 622 1201 q 618 1164 622 1181 q 601 1135 614 1146 q 565 1125 589 1125 z "},"Ẹ":{"ha":833,"x_min":85,"x_max":817,"o":"m 85 0 l 246 969 l 817 969 l 810 925 l 289 925 l 221 514 l 722 514 l 715 469 l 213 469 l 142 44 l 663 44 l 656 0 l 85 0 m 346 -201 q 311 -192 321 -201 q 301 -171 301 -182 q 302 -160 301 -165 q 304 -147 303 -154 q 356 -110 311 -110 q 390 -119 381 -110 q 400 -140 400 -129 q 399 -151 400 -146 q 397 -164 399 -157 q 346 -201 390 -201 z "},"È":{"ha":833,"x_min":85,"x_max":817,"o":"m 85 0 l 246 969 l 817 969 l 810 925 l 289 925 l 221 514 l 722 514 l 715 469 l 213 469 l 142 44 l 663 44 l 656 0 l 85 0 m 449 1278 l 494 1299 l 601 1078 l 568 1061 l 449 1278 z "},"Ẻ":{"ha":833,"x_min":85,"x_max":817,"o":"m 85 0 l 246 969 l 817 969 l 810 925 l 289 925 l 221 514 l 722 514 l 715 469 l 213 469 l 142 44 l 663 44 l 656 0 l 85 0 m 485 1279 l 660 1279 q 696 1270 685 1279 q 707 1246 707 1261 q 697 1215 707 1232 q 651 1157 686 1197 l 567 1057 l 538 1075 l 664 1240 l 478 1240 l 485 1279 z "},"Ē":{"ha":833,"x_min":85,"x_max":817,"o":"m 85 0 l 246 969 l 817 969 l 810 925 l 289 925 l 221 514 l 722 514 l 715 469 l 213 469 l 142 44 l 663 44 l 656 0 l 85 0 m 392 1196 l 756 1196 l 749 1154 l 385 1154 l 392 1196 z "},"Ę":{"ha":833,"x_min":85,"x_max":817,"o":"m 246 969 l 817 969 l 810 925 l 289 925 l 221 514 l 722 514 l 715 469 l 213 469 l 142 44 l 663 44 l 656 0 q 566 -56 603 -32 q 506 -101 529 -81 q 474 -142 483 -122 q 464 -185 464 -162 q 483 -231 464 -217 q 531 -246 503 -246 q 582 -235 561 -246 q 617 -210 603 -225 l 643 -236 q 599 -269 628 -256 q 529 -282 569 -282 q 452 -260 485 -282 q 419 -189 419 -237 q 428 -146 419 -168 q 458 -101 436 -124 q 515 -54 479 -78 q 606 -4 551 -31 l 604 0 l 85 0 l 246 969 z "},"Ẽ":{"ha":833,"x_min":85,"x_max":817,"o":"m 85 0 l 246 969 l 817 969 l 810 925 l 289 925 l 221 514 l 722 514 l 715 469 l 213 469 l 142 44 l 663 44 l 656 0 l 85 0 m 660 1114 q 610 1124 632 1114 q 560 1154 588 1135 q 515 1181 535 1171 q 471 1190 494 1190 q 424 1179 447 1190 q 376 1146 401 1168 l 356 1172 q 479 1231 411 1231 q 529 1220 507 1231 q 579 1190 551 1210 q 624 1164 604 1174 q 668 1154 644 1154 q 715 1165 692 1154 q 763 1199 738 1176 l 783 1172 q 660 1114 726 1114 z "},"Ế":{"ha":833,"x_min":85,"x_max":943,"o":"m 85 0 l 246 969 l 817 969 l 810 925 l 289 925 l 221 514 l 722 514 l 715 469 l 213 469 l 142 44 l 663 44 l 656 0 l 85 0 m 750 1218 l 721 1239 l 903 1456 l 943 1429 l 750 1218 m 615 1274 l 756 1083 l 725 1064 l 583 1238 l 381 1064 l 354 1088 l 557 1274 l 615 1274 z "},"Ệ":{"ha":833,"x_min":85,"x_max":817,"o":"m 85 0 l 246 969 l 817 969 l 810 925 l 289 925 l 221 514 l 722 514 l 715 469 l 213 469 l 142 44 l 663 44 l 656 0 l 85 0 m 618 1286 l 758 1096 l 728 1076 l 586 1249 l 383 1076 l 357 1100 l 560 1286 l 618 1286 m 346 -201 q 311 -192 321 -201 q 301 -171 301 -182 q 302 -160 301 -165 q 304 -147 303 -154 q 356 -110 311 -110 q 390 -119 381 -110 q 400 -140 400 -129 q 399 -151 400 -146 q 397 -164 399 -157 q 346 -201 390 -201 z "},"Ề":{"ha":833,"x_min":85,"x_max":817,"o":"m 85 0 l 246 969 l 817 969 l 810 925 l 289 925 l 221 514 l 722 514 l 715 469 l 213 469 l 142 44 l 663 44 l 656 0 l 85 0 m 289 1438 l 333 1458 l 440 1236 l 408 1221 l 289 1438 m 615 1274 l 756 1083 l 725 1064 l 583 1238 l 381 1064 l 354 1088 l 557 1274 l 615 1274 z "}}}
